<?xml version="1.0" encoding="UTF-8" standalone="no"?>
<!DOCTYPE svg PUBLIC "-//W3C//DTD SVG 1.1//EN"
 "http://www.w3.org/Graphics/SVG/1.1/DTD/svg11.dtd">
<!-- Generated by graphviz version 2.38.0 (20140413.2041)
 -->
<!-- Title: G Pages: 1 -->
<svg width="576pt" height="281pt"
 viewBox="0.00 0.00 576.00 281.43" xmlns="http://www.w3.org/2000/svg" xmlns:xlink="http://www.w3.org/1999/xlink">
<g id="G" class="graph" transform="scale(0.386318 0.386318) rotate(0) translate(4 724.5)">
<title>G</title>
<polygon fill="white" stroke="none" points="-4,4 -4,-724.5 1487,-724.5 1487,4 -4,4"/>
<!-- help the Emacs\ncommunity grow -->
<g id="G_node1" class="node"><title>help the Emacs\ncommunity grow</title>
<g id="a_G_node1"><a xlink:href="index.html#help_the_Emacs_community_grow" xlink:title="help the Emacs community grow" target="_parent">
<polygon fill="lightgrey" stroke="black" points="351.5,-388 218.5,-388 218.5,-350 351.5,-350 351.5,-388"/>
<text text-anchor="middle" x="285" y="-372.8" font-family="Open Sans" font-size="14.00">help the Emacs</text>
<text text-anchor="middle" x="285" y="-357.8" font-family="Open Sans" font-size="14.00">community grow</text>
</a>
</g>
</g>
<!-- share useful stuff -->
<g id="G_node2" class="node"><title>share useful stuff</title>
<g id="a_G_node2"><a xlink:href="index.html#share_useful_stuff" xlink:title="share useful stuff" target="_parent">
<polygon fill="lightgrey" stroke="black" points="537,-508 400,-508 400,-472 537,-472 537,-508"/>
<text text-anchor="middle" x="468.5" y="-486.3" font-family="Open Sans" font-size="14.00">share useful stuff</text>
</a>
</g>
</g>
<!-- help the Emacs\ncommunity grow&#45;&gt;share useful stuff -->
<g id="G_edge1" class="edge"><title>help the Emacs\ncommunity grow&#45;&gt;share useful stuff</title>
<path fill="none" stroke="#cccccc" d="M331.117,-388.157C342.149,-393.446 353.729,-399.527 364,-406 391.654,-423.428 420.301,-447.197 440.426,-465.003"/>
<polygon fill="#cccccc" stroke="#cccccc" points="438.181,-467.691 447.967,-471.75 442.848,-462.474 438.181,-467.691"/>
</g>
<!-- tickle my brain -->
<g id="G_node3" class="node"><title>tickle my brain</title>
<g id="a_G_node3"><a xlink:href="index.html#tickle_my_brain" xlink:title="tickle my brain" target="_parent">
<polygon fill="lightgrey" stroke="black" points="1075,-416 956,-416 956,-380 1075,-380 1075,-416"/>
<text text-anchor="middle" x="1015.5" y="-394.3" font-family="Open Sans" font-size="14.00">tickle my brain</text>
</a>
</g>
</g>
<!-- help the Emacs\ncommunity grow&#45;&gt;tickle my brain -->
<g id="G_edge2" class="edge"><title>help the Emacs\ncommunity grow&#45;&gt;tickle my brain</title>
<path fill="none" stroke="#cccccc" d="M351.936,-366.914C464.419,-364.063 700.496,-361.151 899,-379 914.275,-380.373 930.581,-382.588 945.984,-385.029"/>
<polygon fill="#cccccc" stroke="#cccccc" points="945.521,-388.5 955.955,-386.659 946.651,-381.592 945.521,-388.5"/>
</g>
<!-- get more value from\nmy time -->
<g id="G_node4" class="node"><title>get more value from\nmy time</title>
<g id="a_G_node4"><a xlink:href="index.html#get_more_value_from_my_time" xlink:title="get more value from my time" target="_parent">
<polygon fill="lightgrey" stroke="black" points="1289.5,-417 1132.5,-417 1132.5,-379 1289.5,-379 1289.5,-417"/>
<text text-anchor="middle" x="1211" y="-401.8" font-family="Open Sans" font-size="14.00">get more value from</text>
<text text-anchor="middle" x="1211" y="-386.8" font-family="Open Sans" font-size="14.00">my time</text>
</a>
</g>
</g>
<!-- share useful stuff&#45;&gt;get more value from\nmy time -->
<g id="G_edge19" class="edge"><title>share useful stuff&#45;&gt;get more value from\nmy time</title>
<path fill="none" stroke="#cccccc" d="M487.74,-508.276C507.018,-526.183 539.255,-552.297 573,-563 630.192,-581.14 648.755,-572.487 708,-563 877.995,-535.779 1068.52,-459.801 1158.12,-421.177"/>
<polygon fill="#cccccc" stroke="#cccccc" points="1159.73,-424.296 1167.51,-417.108 1156.94,-417.874 1159.73,-424.296"/>
</g>
<!-- build good karma -->
<g id="G_node15" class="node"><title>build good karma</title>
<g id="a_G_node15"><a xlink:href="index.html#build_good_karma" xlink:title="build good karma" target="_parent">
<polygon fill="lightgrey" stroke="black" points="708,-554 573,-554 573,-518 708,-518 708,-554"/>
<text text-anchor="middle" x="640.5" y="-532.3" font-family="Open Sans" font-size="14.00">build good karma</text>
</a>
</g>
</g>
<!-- share useful stuff&#45;&gt;build good karma -->
<g id="G_edge20" class="edge"><title>share useful stuff&#45;&gt;build good karma</title>
<path fill="none" stroke="#cccccc" d="M536.201,-508.048C545.081,-510.451 554.241,-512.93 563.268,-515.373"/>
<polygon fill="#cccccc" stroke="#cccccc" points="562.425,-518.77 572.992,-518.004 564.253,-512.013 562.425,-518.77"/>
</g>
<!-- tickle my brain&#45;&gt;share useful stuff -->
<g id="G_edge22" class="edge"><title>tickle my brain&#45;&gt;share useful stuff</title>
<path fill="none" stroke="#cccccc" d="M955.788,-390.282C869.336,-381.166 703.887,-372.366 573,-417 543.734,-426.98 515.389,-448.024 495.785,-464.964"/>
<polygon fill="#cccccc" stroke="#cccccc" points="493.358,-462.438 488.2,-471.693 498.003,-467.675 493.358,-462.438"/>
</g>
<!-- tickle my brain&#45;&gt;get more value from\nmy time -->
<g id="G_edge23" class="edge"><title>tickle my brain&#45;&gt;get more value from\nmy time</title>
<path fill="none" stroke="#cccccc" d="M1075.08,-398C1089.86,-398 1106.06,-398 1121.94,-398"/>
<polygon fill="#cccccc" stroke="#cccccc" points="1122.32,-401.5 1132.32,-398 1122.32,-394.5 1122.32,-401.5"/>
</g>
<!-- live an awesome life -->
<g id="G_node5" class="node"><title>live an awesome life</title>
<g id="a_G_node5"><a xlink:href="index.html#live_an_awesome_life" xlink:title="live an awesome life" target="_parent">
<polygon fill="lightgrey" stroke="black" points="1483,-219 1326,-219 1326,-183 1483,-183 1483,-219"/>
<text text-anchor="middle" x="1404.5" y="-197.3" font-family="Open Sans" font-size="14.00">live an awesome life</text>
</a>
</g>
</g>
<!-- get more value from\nmy time&#45;&gt;live an awesome life -->
<g id="G_edge3" class="edge"><title>get more value from\nmy time&#45;&gt;live an awesome life</title>
<path fill="none" stroke="#cccccc" d="M1250.1,-378.921C1263.48,-371.249 1278.13,-361.68 1290,-351 1331.1,-314.023 1367.47,-260.356 1387.4,-228.243"/>
<polygon fill="#cccccc" stroke="#cccccc" points="1390.58,-229.756 1392.81,-219.399 1384.61,-226.104 1390.58,-229.756"/>
</g>
<!-- reach 2.5% goal -->
<g id="G_node6" class="node"><title>reach 2.5% goal</title>
<g id="a_G_node6"><a xlink:href="index.html#reach_2_5__goal" xlink:title="reach 2.5% goal" target="_parent">
<polygon fill="none" stroke="black" points="149,-619 21,-619 21,-583 149,-583 149,-619"/>
<text text-anchor="middle" x="85" y="-597.3" font-family="Open Sans" font-size="14.00">reach 2.5% goal</text>
</a>
</g>
</g>
<!-- reach 2% goal -->
<g id="G_node7" class="node"><title>reach 2% goal</title>
<polygon fill="none" stroke="black" points="342.5,-619 227.5,-619 227.5,-583 342.5,-583 342.5,-619"/>
<text text-anchor="middle" x="285" y="-597.3" font-family="Open Sans" font-size="14.00">reach 2% goal</text>
</g>
<!-- reach 2.5% goal&#45;&gt;reach 2% goal -->
<g id="G_edge4" class="edge"><title>reach 2.5% goal&#45;&gt;reach 2% goal</title>
<path fill="none" stroke="#cccccc" d="M149.193,-601C170.883,-601 195.223,-601 217.19,-601"/>
<polygon fill="#cccccc" stroke="#cccccc" points="217.429,-604.5 227.429,-601 217.429,-597.5 217.429,-604.5"/>
</g>
<!-- re&#45;examine spending\nand carve out more\nfor what matters -->
<g id="G_node8" class="node"><title>re&#45;examine spending\nand carve out more\nfor what matters</title>
<g id="a_G_node8"><a xlink:href="index.html#re_examine_spending_and_carve_out_more_for_what_matters" xlink:title="re&#45;examine spending and carve out more for what matters" target="_parent">
<polygon fill="none" stroke="black" points="1096,-361.5 935,-361.5 935,-308.5 1096,-308.5 1096,-361.5"/>
<text text-anchor="middle" x="1015.5" y="-346.3" font-family="Open Sans" font-size="14.00">re&#45;examine spending</text>
<text text-anchor="middle" x="1015.5" y="-331.3" font-family="Open Sans" font-size="14.00">and carve out more</text>
<text text-anchor="middle" x="1015.5" y="-316.3" font-family="Open Sans" font-size="14.00">for what matters</text>
</a>
</g>
</g>
<!-- make better\ndecisions -->
<g id="G_node9" class="node"><title>make better\ndecisions</title>
<g id="a_G_node9"><a xlink:href="index.html#make_better_decisions" xlink:title="make better decisions" target="_parent">
<polygon fill="lightgrey" stroke="black" points="1261.5,-342 1160.5,-342 1160.5,-304 1261.5,-304 1261.5,-342"/>
<text text-anchor="middle" x="1211" y="-326.8" font-family="Open Sans" font-size="14.00">make better</text>
<text text-anchor="middle" x="1211" y="-311.8" font-family="Open Sans" font-size="14.00">decisions</text>
</a>
</g>
</g>
<!-- re&#45;examine spending\nand carve out more\nfor what matters&#45;&gt;make better\ndecisions -->
<g id="G_edge5" class="edge"><title>re&#45;examine spending\nand carve out more\nfor what matters&#45;&gt;make better\ndecisions</title>
<path fill="none" stroke="#cccccc" d="M1096.04,-330.067C1114.08,-328.948 1132.95,-327.778 1150.02,-326.72"/>
<polygon fill="#cccccc" stroke="#cccccc" points="1150.63,-330.189 1160.4,-326.076 1150.2,-323.202 1150.63,-330.189"/>
</g>
<!-- make better\ndecisions&#45;&gt;live an awesome life -->
<g id="G_edge6" class="edge"><title>make better\ndecisions&#45;&gt;live an awesome life</title>
<path fill="none" stroke="#cccccc" d="M1251.92,-303.995C1264.34,-297.696 1277.93,-290.395 1290,-283 1319.04,-265.206 1350.29,-242.328 1372.63,-225.261"/>
<polygon fill="#cccccc" stroke="#cccccc" points="1374.94,-227.899 1380.73,-219.027 1370.67,-222.351 1374.94,-227.899"/>
</g>
<!-- Raise A&#45; -->
<g id="G_node10" class="node"><title>Raise A&#45;</title>
<g id="a_G_node10"><a xlink:href="index.html#Raise_A_" xlink:title="Raise A&#45;" target="_parent">
<polygon fill="none" stroke="black" points="677,-462 604,-462 604,-426 677,-426 677,-462"/>
<text text-anchor="middle" x="640.5" y="-440.3" font-family="Open Sans" font-size="14.00">Raise A&#45;</text>
</a>
</g>
</g>
<!-- learn from people -->
<g id="G_node11" class="node"><title>learn from people</title>
<g id="a_G_node11"><a xlink:href="index.html#learn_from_people" xlink:title="learn from people" target="_parent">
<polygon fill="lightgrey" stroke="black" points="890,-485 753,-485 753,-449 890,-449 890,-485"/>
<text text-anchor="middle" x="821.5" y="-463.3" font-family="Open Sans" font-size="14.00">learn from people</text>
</a>
</g>
</g>
<!-- Raise A&#45;&#45;&gt;learn from people -->
<g id="G_edge7" class="edge"><title>Raise A&#45;&#45;&gt;learn from people</title>
<path fill="none" stroke="#cccccc" d="M677.293,-448.599C696.134,-451.02 720.014,-454.088 742.847,-457.022"/>
<polygon fill="#cccccc" stroke="#cccccc" points="742.531,-460.51 752.896,-458.313 743.423,-453.567 742.531,-460.51"/>
</g>
<!-- learn from people&#45;&gt;share useful stuff -->
<g id="G_edge8" class="edge"><title>learn from people&#45;&gt;share useful stuff</title>
<path fill="none" stroke="#cccccc" d="M752.733,-471.441C693.923,-475.294 608.791,-480.873 547.23,-484.907"/>
<polygon fill="#cccccc" stroke="#cccccc" points="546.926,-481.419 537.176,-485.565 547.384,-488.404 546.926,-481.419"/>
</g>
<!-- learn from people&#45;&gt;tickle my brain -->
<g id="G_edge9" class="edge"><title>learn from people&#45;&gt;tickle my brain</title>
<path fill="none" stroke="#cccccc" d="M872.946,-448.871C898.08,-439.838 928.638,-428.857 954.92,-419.412"/>
<polygon fill="#cccccc" stroke="#cccccc" points="956.164,-422.684 964.391,-416.008 953.797,-416.096 956.164,-422.684"/>
</g>
<!-- figure out recipes\neasily compatible\nwith taking care of\na kid -->
<g id="G_node12" class="node"><title>figure out recipes\neasily compatible\nwith taking care of\na kid</title>
<g id="a_G_node12"><a xlink:href="index.html#figure_out_recipes_easily_compatible_with_taking_care_of_a_kid" xlink:title="figure out recipes easily compatible with taking care of a kid" target="_parent">
<polygon fill="none" stroke="black" points="1089,-290 942,-290 942,-222 1089,-222 1089,-290"/>
<text text-anchor="middle" x="1015.5" y="-274.8" font-family="Open Sans" font-size="14.00">figure out recipes</text>
<text text-anchor="middle" x="1015.5" y="-259.8" font-family="Open Sans" font-size="14.00">easily compatible</text>
<text text-anchor="middle" x="1015.5" y="-244.8" font-family="Open Sans" font-size="14.00">with taking care of</text>
<text text-anchor="middle" x="1015.5" y="-229.8" font-family="Open Sans" font-size="14.00">a kid</text>
</a>
</g>
</g>
<!-- cook yummy food -->
<g id="G_node13" class="node"><title>cook yummy food</title>
<g id="a_G_node13"><a xlink:href="index.html#cook_yummy_food" xlink:title="cook yummy food" target="_parent">
<polygon fill="lightgrey" stroke="black" points="1279.5,-274 1142.5,-274 1142.5,-238 1279.5,-238 1279.5,-274"/>
<text text-anchor="middle" x="1211" y="-252.3" font-family="Open Sans" font-size="14.00">cook yummy food</text>
</a>
</g>
</g>
<!-- figure out recipes\neasily compatible\nwith taking care of\na kid&#45;&gt;cook yummy food -->
<g id="G_edge10" class="edge"><title>figure out recipes\neasily compatible\nwith taking care of\na kid&#45;&gt;cook yummy food</title>
<path fill="none" stroke="#cccccc" d="M1089.1,-256C1103.17,-256 1117.96,-256 1132.19,-256"/>
<polygon fill="#cccccc" stroke="#cccccc" points="1132.43,-259.5 1142.43,-256 1132.43,-252.5 1132.43,-259.5"/>
</g>
<!-- cook yummy food&#45;&gt;live an awesome life -->
<g id="G_edge12" class="edge"><title>cook yummy food&#45;&gt;live an awesome life</title>
<path fill="none" stroke="#cccccc" d="M1274.7,-237.991C1292.64,-232.839 1312.34,-227.181 1330.83,-221.873"/>
<polygon fill="#cccccc" stroke="#cccccc" points="1332.01,-225.174 1340.65,-219.05 1330.08,-218.446 1332.01,-225.174"/>
</g>
<!-- practise types of\nrecipes -->
<g id="G_node14" class="node"><title>practise types of\nrecipes</title>
<g id="a_G_node14"><a xlink:href="index.html#practise_types_of_recipes" xlink:title="practise types of recipes" target="_parent">
<polygon fill="lightgrey" stroke="black" points="1080.5,-204 950.5,-204 950.5,-166 1080.5,-166 1080.5,-204"/>
<text text-anchor="middle" x="1015.5" y="-188.8" font-family="Open Sans" font-size="14.00">practise types of</text>
<text text-anchor="middle" x="1015.5" y="-173.8" font-family="Open Sans" font-size="14.00">recipes</text>
</a>
</g>
</g>
<!-- practise types of\nrecipes&#45;&gt;cook yummy food -->
<g id="G_edge11" class="edge"><title>practise types of\nrecipes&#45;&gt;cook yummy food</title>
<path fill="none" stroke="#cccccc" d="M1072.31,-204.023C1080.3,-206.93 1088.39,-209.972 1096,-213 1112.27,-219.469 1115.71,-222.575 1132,-229 1136.51,-230.78 1141.19,-232.561 1145.92,-234.312"/>
<polygon fill="#cccccc" stroke="#cccccc" points="1145.06,-237.722 1155.65,-237.853 1147.45,-231.144 1145.06,-237.722"/>
</g>
<!-- build good karma&#45;&gt;learn from people -->
<g id="G_edge13" class="edge"><title>build good karma&#45;&gt;learn from people</title>
<path fill="none" stroke="#cccccc" d="M688.53,-517.871C711.757,-508.918 739.952,-498.049 764.308,-488.661"/>
<polygon fill="#cccccc" stroke="#cccccc" points="765.712,-491.87 773.784,-485.008 763.194,-485.339 765.712,-491.87"/>
</g>
<!-- write book about\n5&#45;year experiment to\ncapture memories and\nhelp other people\ncurious about it -->
<g id="G_node16" class="node"><title>write book about\n5&#45;year experiment to\ncapture memories and\nhelp other people\ncurious about it</title>
<g id="a_G_node16"><a xlink:href="index.html#write_book_about_5_year_experiment_to_capture_memories_and_help_other_people_curious_about_it" xlink:title="write book about 5&#45;year experiment to capture memories and help other people curious about it" target="_parent">
<polygon fill="none" stroke="black" points="170,-720.5 0,-720.5 0,-637.5 170,-637.5 170,-720.5"/>
<text text-anchor="middle" x="85" y="-705.3" font-family="Open Sans" font-size="14.00">write book about</text>
<text text-anchor="middle" x="85" y="-690.3" font-family="Open Sans" font-size="14.00">5&#45;year experiment to</text>
<text text-anchor="middle" x="85" y="-675.3" font-family="Open Sans" font-size="14.00">capture memories and</text>
<text text-anchor="middle" x="85" y="-660.3" font-family="Open Sans" font-size="14.00">help other people</text>
<text text-anchor="middle" x="85" y="-645.3" font-family="Open Sans" font-size="14.00">curious about it</text>
</a>
</g>
</g>
<!-- publish resources -->
<g id="G_node17" class="node"><title>publish resources</title>
<polygon fill="none" stroke="black" points="353,-697 217,-697 217,-661 353,-661 353,-697"/>
<text text-anchor="middle" x="285" y="-675.3" font-family="Open Sans" font-size="14.00">publish resources</text>
</g>
<!-- write book about\n5&#45;year experiment to\ncapture memories and\nhelp other people\ncurious about it&#45;&gt;publish resources -->
<g id="G_edge14" class="edge"><title>write book about\n5&#45;year experiment to\ncapture memories and\nhelp other people\ncurious about it&#45;&gt;publish resources</title>
<path fill="none" stroke="#cccccc" d="M170.257,-679C182.305,-679 194.652,-679 206.561,-679"/>
<polygon fill="#cccccc" stroke="#cccccc" points="206.895,-682.5 216.895,-679 206.895,-675.5 206.895,-682.5"/>
</g>
<!-- improve my coding\nskills -->
<g id="G_node18" class="node"><title>improve my coding\nskills</title>
<g id="a_G_node18"><a xlink:href="index.html#improve_my_coding_skills" xlink:title="improve my coding skills" target="_parent">
<polygon fill="lightgrey" stroke="black" points="358,-565 212,-565 212,-527 358,-527 358,-565"/>
<text text-anchor="middle" x="285" y="-549.8" font-family="Open Sans" font-size="14.00">improve my coding</text>
<text text-anchor="middle" x="285" y="-534.8" font-family="Open Sans" font-size="14.00">skills</text>
</a>
</g>
</g>
<!-- improve my coding\nskills&#45;&gt;share useful stuff -->
<g id="G_edge15" class="edge"><title>improve my coding\nskills&#45;&gt;share useful stuff</title>
<path fill="none" stroke="#cccccc" d="M347.701,-526.963C364.281,-521.847 382.307,-516.285 399.222,-511.066"/>
<polygon fill="#cccccc" stroke="#cccccc" points="400.51,-514.332 409.034,-508.039 398.446,-507.643 400.51,-514.332"/>
</g>
<!-- improve my drawing\nskills -->
<g id="G_node19" class="node"><title>improve my drawing\nskills</title>
<g id="a_G_node19"><a xlink:href="index.html#improve_my_drawing_skills" xlink:title="improve my drawing skills" target="_parent">
<polygon fill="lightgrey" stroke="black" points="364,-509 206,-509 206,-471 364,-471 364,-509"/>
<text text-anchor="middle" x="285" y="-493.8" font-family="Open Sans" font-size="14.00">improve my drawing</text>
<text text-anchor="middle" x="285" y="-478.8" font-family="Open Sans" font-size="14.00">skills</text>
</a>
</g>
</g>
<!-- improve my drawing\nskills&#45;&gt;share useful stuff -->
<g id="G_edge16" class="edge"><title>improve my drawing\nskills&#45;&gt;share useful stuff</title>
<path fill="none" stroke="#cccccc" d="M364.026,-490C372.496,-490 381.117,-490 389.585,-490"/>
<polygon fill="#cccccc" stroke="#cccccc" points="389.819,-493.5 399.819,-490 389.819,-486.5 389.819,-493.5"/>
</g>
<!-- harvest my backlog\nof notes -->
<g id="G_node20" class="node"><title>harvest my backlog\nof notes</title>
<g id="a_G_node20"><a xlink:href="index.html#harvest_my_backlog_of_notes" xlink:title="harvest my backlog of notes" target="_parent">
<polygon fill="none" stroke="black" points="160.5,-453 9.5,-453 9.5,-415 160.5,-415 160.5,-453"/>
<text text-anchor="middle" x="85" y="-437.8" font-family="Open Sans" font-size="14.00">harvest my backlog</text>
<text text-anchor="middle" x="85" y="-422.8" font-family="Open Sans" font-size="14.00">of notes</text>
</a>
</g>
</g>
<!-- improve my sharing\nskills -->
<g id="G_node21" class="node"><title>improve my sharing\nskills</title>
<g id="a_G_node21"><a xlink:href="index.html#improve_my_sharing_skills" xlink:title="improve my sharing skills" target="_parent">
<polygon fill="lightgrey" stroke="black" points="361.5,-453 208.5,-453 208.5,-415 361.5,-415 361.5,-453"/>
<text text-anchor="middle" x="285" y="-437.8" font-family="Open Sans" font-size="14.00">improve my sharing</text>
<text text-anchor="middle" x="285" y="-422.8" font-family="Open Sans" font-size="14.00">skills</text>
</a>
</g>
</g>
<!-- harvest my backlog\nof notes&#45;&gt;improve my sharing\nskills -->
<g id="G_edge17" class="edge"><title>harvest my backlog\nof notes&#45;&gt;improve my sharing\nskills</title>
<path fill="none" stroke="#cccccc" d="M160.573,-434C172.734,-434 185.42,-434 197.832,-434"/>
<polygon fill="#cccccc" stroke="#cccccc" points="198.177,-437.5 208.177,-434 198.177,-430.5 198.177,-437.5"/>
</g>
<!-- improve my sharing\nskills&#45;&gt;share useful stuff -->
<g id="G_edge18" class="edge"><title>improve my sharing\nskills&#45;&gt;share useful stuff</title>
<path fill="none" stroke="#cccccc" d="M347.701,-453.037C364.281,-458.153 382.307,-463.715 399.222,-468.934"/>
<polygon fill="#cccccc" stroke="#cccccc" points="398.446,-472.357 409.034,-471.961 400.51,-465.668 398.446,-472.357"/>
</g>
<!-- develop my analysis\nskills -->
<g id="G_node22" class="node"><title>develop my analysis\nskills</title>
<g id="a_G_node22"><a xlink:href="index.html#develop_my_analysis_skills" xlink:title="develop my analysis skills" target="_parent">
<polygon fill="lightgrey" stroke="black" points="899,-332 744,-332 744,-294 899,-294 899,-332"/>
<text text-anchor="middle" x="821.5" y="-316.8" font-family="Open Sans" font-size="14.00">develop my analysis</text>
<text text-anchor="middle" x="821.5" y="-301.8" font-family="Open Sans" font-size="14.00">skills</text>
</a>
</g>
</g>
<!-- develop my analysis\nskills&#45;&gt;tickle my brain -->
<g id="G_edge21" class="edge"><title>develop my analysis\nskills&#45;&gt;tickle my brain</title>
<path fill="none" stroke="#cccccc" d="M870.473,-332.113C880.073,-336.377 889.976,-341.098 899,-346 915.897,-355.179 917.798,-361.406 935,-370 939.275,-372.136 943.753,-374.182 948.312,-376.127"/>
<polygon fill="#cccccc" stroke="#cccccc" points="947.166,-379.44 957.747,-379.974 949.809,-372.958 947.166,-379.44"/>
</g>
<!-- enrich our\nexperiences -->
<g id="G_node23" class="node"><title>enrich our\nexperiences</title>
<g id="a_G_node23"><a xlink:href="index.html#enrich_our_experiences" xlink:title="enrich our experiences" target="_parent">
<polygon fill="lightgrey" stroke="black" points="1260,-220 1162,-220 1162,-182 1260,-182 1260,-220"/>
<text text-anchor="middle" x="1211" y="-204.8" font-family="Open Sans" font-size="14.00">enrich our</text>
<text text-anchor="middle" x="1211" y="-189.8" font-family="Open Sans" font-size="14.00">experiences</text>
</a>
</g>
</g>
<!-- enrich our\nexperiences&#45;&gt;live an awesome life -->
<g id="G_edge24" class="edge"><title>enrich our\nexperiences&#45;&gt;live an awesome life</title>
<path fill="none" stroke="#cccccc" d="M1260.32,-201C1277.14,-201 1296.56,-201 1315.57,-201"/>
<polygon fill="#cccccc" stroke="#cccccc" points="1315.76,-204.5 1325.76,-201 1315.76,-197.5 1315.76,-204.5"/>
</g>
<!-- adapt to A&#45;&#39;s needs\nas a toddler -->
<g id="G_node24" class="node"><title>adapt to A&#45;&#39;s needs\nas a toddler</title>
<g id="a_G_node24"><a xlink:href="index.html#adapt_to_A__s_needs_as_a_toddler" xlink:title="adapt to A&#45;&#39;s needs as a toddler" target="_parent">
<polygon fill="none" stroke="black" points="1090,-148 941,-148 941,-110 1090,-110 1090,-148"/>
<text text-anchor="middle" x="1015.5" y="-132.8" font-family="Open Sans" font-size="14.00">adapt to A&#45;&#39;s needs</text>
<text text-anchor="middle" x="1015.5" y="-117.8" font-family="Open Sans" font-size="14.00">as a toddler</text>
</a>
</g>
</g>
<!-- cultivate equanimity -->
<g id="G_node25" class="node"><title>cultivate equanimity</title>
<g id="a_G_node25"><a xlink:href="index.html#cultivate_equanimity" xlink:title="cultivate equanimity" target="_parent">
<polygon fill="lightgrey" stroke="black" points="1290,-164 1132,-164 1132,-128 1290,-128 1290,-164"/>
<text text-anchor="middle" x="1211" y="-142.3" font-family="Open Sans" font-size="14.00">cultivate equanimity</text>
</a>
</g>
</g>
<!-- adapt to A&#45;&#39;s needs\nas a toddler&#45;&gt;cultivate equanimity -->
<g id="G_edge25" class="edge"><title>adapt to A&#45;&#39;s needs\nas a toddler&#45;&gt;cultivate equanimity</title>
<path fill="none" stroke="#cccccc" d="M1090.21,-135.475C1100.57,-136.386 1111.3,-137.329 1121.89,-138.259"/>
<polygon fill="#cccccc" stroke="#cccccc" points="1121.73,-141.758 1131.99,-139.147 1122.34,-134.785 1121.73,-141.758"/>
</g>
<!-- cultivate equanimity&#45;&gt;live an awesome life -->
<g id="G_edge26" class="edge"><title>cultivate equanimity&#45;&gt;live an awesome life</title>
<path fill="none" stroke="#cccccc" d="M1274.7,-164.009C1292.64,-169.161 1312.34,-174.819 1330.83,-180.127"/>
<polygon fill="#cccccc" stroke="#cccccc" points="1330.08,-183.554 1340.65,-182.95 1332.01,-176.826 1330.08,-183.554"/>
</g>
<!-- do a 5&#45;year\nexperiment in\nself&#45;directed living -->
<g id="G_node26" class="node"><title>do a 5&#45;year\nexperiment in\nself&#45;directed living</title>
<g id="a_G_node26"><a xlink:href="index.html#do_a_5_year_experiment_in_self_directed_living" xlink:title="do a 5&#45;year experiment in self&#45;directed living" target="_parent">
<polygon fill="none" stroke="black" points="1281.5,-109.5 1140.5,-109.5 1140.5,-56.5 1281.5,-56.5 1281.5,-109.5"/>
<text text-anchor="middle" x="1211" y="-94.3" font-family="Open Sans" font-size="14.00">do a 5&#45;year</text>
<text text-anchor="middle" x="1211" y="-79.3" font-family="Open Sans" font-size="14.00">experiment in</text>
<text text-anchor="middle" x="1211" y="-64.3" font-family="Open Sans" font-size="14.00">self&#45;directed living</text>
</a>
</g>
</g>
<!-- do a 5&#45;year\nexperiment in\nself&#45;directed living&#45;&gt;live an awesome life -->
<g id="G_edge27" class="edge"><title>do a 5&#45;year\nexperiment in\nself&#45;directed living&#45;&gt;live an awesome life</title>
<path fill="none" stroke="#cccccc" d="M1272.64,-109.572C1278.59,-112.598 1284.46,-115.763 1290,-119 1319.4,-136.189 1350.62,-159.123 1372.85,-176.366"/>
<polygon fill="#cccccc" stroke="#cccccc" points="1370.88,-179.267 1380.91,-182.672 1375.19,-173.754 1370.88,-179.267"/>
</g>
<!-- Get A&#45; used to\nwalking -->
<g id="G_node27" class="node"><title>Get A&#45; used to\nwalking</title>
<g id="a_G_node27"><a xlink:href="index.html#Get_A__used_to_walking" xlink:title="Get A&#45; used to walking" target="_parent">
<polygon fill="none" stroke="black" points="1074,-38 957,-38 957,-0 1074,-0 1074,-38"/>
<text text-anchor="middle" x="1015.5" y="-22.8" font-family="Open Sans" font-size="14.00">Get A&#45; used to</text>
<text text-anchor="middle" x="1015.5" y="-7.8" font-family="Open Sans" font-size="14.00">walking</text>
</a>
</g>
</g>
<!-- maintain or improve\nmy health -->
<g id="G_node28" class="node"><title>maintain or improve\nmy health</title>
<g id="a_G_node28"><a xlink:href="index.html#maintain_or_improve_my_health" xlink:title="maintain or improve my health" target="_parent">
<polygon fill="lightgrey" stroke="black" points="1289,-38 1133,-38 1133,-0 1289,-0 1289,-38"/>
<text text-anchor="middle" x="1211" y="-22.8" font-family="Open Sans" font-size="14.00">maintain or improve</text>
<text text-anchor="middle" x="1211" y="-7.8" font-family="Open Sans" font-size="14.00">my health</text>
</a>
</g>
</g>
<!-- Get A&#45; used to\nwalking&#45;&gt;maintain or improve\nmy health -->
<g id="G_edge28" class="edge"><title>Get A&#45; used to\nwalking&#45;&gt;maintain or improve\nmy health</title>
<path fill="none" stroke="#cccccc" d="M1074.03,-19C1089.35,-19 1106.24,-19 1122.76,-19"/>
<polygon fill="#cccccc" stroke="#cccccc" points="1122.98,-22.5001 1132.98,-19 1122.98,-15.5001 1122.98,-22.5001"/>
</g>
<!-- maintain or improve\nmy health&#45;&gt;live an awesome life -->
<g id="G_edge29" class="edge"><title>maintain or improve\nmy health&#45;&gt;live an awesome life</title>
<path fill="none" stroke="#cccccc" d="M1275.42,-38.0237C1280.56,-40.668 1285.5,-43.6483 1290,-47 1336.14,-81.3636 1371.8,-139.729 1390.04,-173.883"/>
<polygon fill="#cccccc" stroke="#cccccc" points="1386.99,-175.592 1394.72,-182.834 1393.19,-172.35 1386.99,-175.592"/>
</g>
</g>
</svg>
