<?xml version="1.0" encoding="UTF-8" standalone="no"?>
<!DOCTYPE svg PUBLIC "-//W3C//DTD SVG 1.1//EN"
 "http://www.w3.org/Graphics/SVG/1.1/DTD/svg11.dtd">
<!-- Generated by graphviz version 2.43.0 (0)
 -->
<!-- Title: G Pages: 1 -->
<svg width="524pt" height="209pt"
 viewBox="0.00 0.00 524.00 208.50" xmlns="http://www.w3.org/2000/svg" xmlns:xlink="http://www.w3.org/1999/xlink">
<g id="G" class="graph" transform="scale(1 1) rotate(0) translate(4 204.5)">
<title>G</title>
<polygon fill="white" stroke="transparent" points="-4,4 -4,-204.5 520,-204.5 520,4 -4,4"/>
<!-- figure out new\ndrawing workflow -->
<g id="G_node1" class="node">
<title>figure out new\ndrawing workflow</title>
<g id="a_G_node1"><a xlink:href="index.html#figure_out_new_drawing_workflow" xlink:title="figure out new drawing workflow" target="_parent">
<polygon fill="none" stroke="black" points="135.5,-200.5 1.5,-200.5 1.5,-162.5 135.5,-162.5 135.5,-200.5"/>
<text text-anchor="middle" x="68.5" y="-185.3" font-family="Open Sans" font-size="14.00">figure out new</text>
<text text-anchor="middle" x="68.5" y="-170.3" font-family="Open Sans" font-size="14.00">drawing workflow</text>
</a>
</g>
</g>
<!-- set up my new laptop -->
<g id="G_node2" class="node">
<title>set up my new laptop</title>
<g id="a_G_node2"><a xlink:href="index.html#set_up_my_new_laptop" xlink:title="set up my new laptop" target="_parent">
<polygon fill="none" stroke="black" points="331,-197.5 176,-197.5 176,-161.5 331,-161.5 331,-197.5"/>
<text text-anchor="middle" x="253.5" y="-175.8" font-family="Open Sans" font-size="14.00">set up my new laptop</text>
</a>
</g>
</g>
<!-- figure out new\ndrawing workflow&#45;&gt;set up my new laptop -->
<g id="G_edge1" class="edge">
<title>figure out new\ndrawing workflow&#45;&gt;set up my new laptop</title>
<path fill="none" stroke="#cccccc" d="M135.57,-180.78C145.4,-180.67 155.65,-180.56 165.82,-180.45"/>
<polygon fill="#cccccc" stroke="#cccccc" points="165.99,-183.95 175.95,-180.34 165.91,-176.95 165.99,-183.95"/>
</g>
<!-- tickle my brain and\nlive an awesome life -->
<g id="G_node3" class="node">
<title>tickle my brain and\nlive an awesome life</title>
<g id="a_G_node3"><a xlink:href="index.html#tickle_my_brain_and_live_an_awesome_life" xlink:title="tickle my brain and live an awesome life" target="_parent">
<polygon fill="lightgrey" stroke="black" points="516,-139.5 370,-139.5 370,-101.5 516,-101.5 516,-139.5"/>
<text text-anchor="middle" x="443" y="-124.3" font-family="Open Sans" font-size="14.00">tickle my brain and</text>
<text text-anchor="middle" x="443" y="-109.3" font-family="Open Sans" font-size="14.00">live an awesome life</text>
</a>
</g>
</g>
<!-- set up my new laptop&#45;&gt;tickle my brain and\nlive an awesome life -->
<g id="G_edge2" class="edge">
<title>set up my new laptop&#45;&gt;tickle my brain and\nlive an awesome life</title>
<path fill="none" stroke="#cccccc" d="M311.77,-161.48C330.75,-155.51 352.08,-148.79 371.91,-142.56"/>
<polygon fill="#cccccc" stroke="#cccccc" points="373.01,-145.88 381.5,-139.54 370.91,-139.2 373.01,-145.88"/>
</g>
<!-- edit the rest of the\nsubtitles for\nEmacsConf -->
<g id="G_node4" class="node">
<title>edit the rest of the\nsubtitles for\nEmacsConf</title>
<g id="a_G_node4"><a xlink:href="index.html#edit_the_rest_of_the_subtitles_for_EmacsConf" xlink:title="edit the rest of the subtitles for EmacsConf" target="_parent">
<polygon fill="none" stroke="black" points="137,-144 0,-144 0,-91 137,-91 137,-144"/>
<text text-anchor="middle" x="68.5" y="-128.8" font-family="Open Sans" font-size="14.00">edit the rest of the</text>
<text text-anchor="middle" x="68.5" y="-113.8" font-family="Open Sans" font-size="14.00">subtitles for</text>
<text text-anchor="middle" x="68.5" y="-98.8" font-family="Open Sans" font-size="14.00">EmacsConf</text>
</a>
</g>
</g>
<!-- help the Emacs\ncommunity grow -->
<g id="G_node5" class="node">
<title>help the Emacs\ncommunity grow</title>
<g id="a_G_node5"><a xlink:href="index.html#help_the_Emacs_community_grow" xlink:title="help the Emacs community grow" target="_parent">
<polygon fill="lightgrey" stroke="black" points="316.5,-139.5 190.5,-139.5 190.5,-101.5 316.5,-101.5 316.5,-139.5"/>
<text text-anchor="middle" x="253.5" y="-124.3" font-family="Open Sans" font-size="14.00">help the Emacs</text>
<text text-anchor="middle" x="253.5" y="-109.3" font-family="Open Sans" font-size="14.00">community grow</text>
</a>
</g>
</g>
<!-- edit the rest of the\nsubtitles for\nEmacsConf&#45;&gt;help the Emacs\ncommunity grow -->
<g id="G_edge3" class="edge">
<title>edit the rest of the\nsubtitles for\nEmacsConf&#45;&gt;help the Emacs\ncommunity grow</title>
<path fill="none" stroke="#cccccc" d="M137.12,-118.61C151.13,-118.84 165.95,-119.08 180.12,-119.31"/>
<polygon fill="#cccccc" stroke="#cccccc" points="180.25,-122.82 190.3,-119.48 180.36,-115.82 180.25,-122.82"/>
</g>
<!-- help the Emacs\ncommunity grow&#45;&gt;tickle my brain and\nlive an awesome life -->
<g id="G_edge4" class="edge">
<title>help the Emacs\ncommunity grow&#45;&gt;tickle my brain and\nlive an awesome life</title>
<path fill="none" stroke="#cccccc" d="M316.67,-120.5C330.4,-120.5 345.15,-120.5 359.53,-120.5"/>
<polygon fill="#cccccc" stroke="#cccccc" points="359.93,-124 369.93,-120.5 359.93,-117 359.93,-124"/>
</g>
<!-- fill in at least one\nobservation for each\nspecific expectation\nin the Ontario\nKindergarten Program -->
<g id="G_node6" class="node">
<title>fill in at least one\nobservation for each\nspecific expectation\nin the Ontario\nKindergarten Program</title>
<g id="a_G_node6"><a xlink:href="index.html#fill_in_at_least_one_observation_for_each_specific_expectation_in_the_Ontario_Kindergarten_Program" xlink:title="fill in at least one observation for each specific expectation in the Ontario Kindergarten Program" target="_parent">
<polygon fill="none" stroke="black" points="334,-83 173,-83 173,0 334,0 334,-83"/>
<text text-anchor="middle" x="253.5" y="-67.8" font-family="Open Sans" font-size="14.00">fill in at least one</text>
<text text-anchor="middle" x="253.5" y="-52.8" font-family="Open Sans" font-size="14.00">observation for each</text>
<text text-anchor="middle" x="253.5" y="-37.8" font-family="Open Sans" font-size="14.00">specific expectation</text>
<text text-anchor="middle" x="253.5" y="-22.8" font-family="Open Sans" font-size="14.00">in the Ontario</text>
<text text-anchor="middle" x="253.5" y="-7.8" font-family="Open Sans" font-size="14.00">Kindergarten Program</text>
</a>
</g>
</g>
<!-- fill in at least one\nobservation for each\nspecific expectation\nin the Ontario\nKindergarten Program&#45;&gt;tickle my brain and\nlive an awesome life -->
<g id="G_edge5" class="edge">
<title>fill in at least one\nobservation for each\nspecific expectation\nin the Ontario\nKindergarten Program&#45;&gt;tickle my brain and\nlive an awesome life</title>
<path fill="none" stroke="#cccccc" d="M334.02,-75C351.96,-82.56 370.61,-90.42 387.26,-97.44"/>
<polygon fill="#cccccc" stroke="#cccccc" points="386.24,-100.8 396.81,-101.46 388.95,-94.35 386.24,-100.8"/>
</g>
</g>
</svg>
