<?xml version="1.0" encoding="UTF-8" standalone="no"?>
<!DOCTYPE svg PUBLIC "-//W3C//DTD SVG 1.1//EN"
 "http://www.w3.org/Graphics/SVG/1.1/DTD/svg11.dtd">
<!-- Generated by graphviz version 2.40.1 (20161225.0304)
 -->
<!-- Title: G Pages: 1 -->
<svg width="576pt" height="188pt"
 viewBox="0.00 0.00 576.00 188.29" xmlns="http://www.w3.org/2000/svg" xmlns:xlink="http://www.w3.org/1999/xlink">
<g id="G" class="graph" transform="scale(.5062 .5062) rotate(0) translate(4 368)">
<title>G</title>
<polygon fill="#ffffff" stroke="transparent" points="-4,4 -4,-368 1134,-368 1134,4 -4,4"/>
<!-- help organize a\nvirtual Emacs\nconference -->
<g id="G_node1" class="node">
<title>help organize a\nvirtual Emacs\nconference</title>
<g id="a_G_node1"><a xlink:href="index.html#help_organize_a_virtual_Emacs_conference" xlink:title="help organize a virtual Emacs conference" target="_parent">
<polygon fill="none" stroke="#000000" points="141,-261 21,-261 21,-208 141,-208 141,-261"/>
<text text-anchor="middle" x="81" y="-245.8" font-family="Open Sans" font-size="14.00" fill="#000000">help organize a</text>
<text text-anchor="middle" x="81" y="-230.8" font-family="Open Sans" font-size="14.00" fill="#000000">virtual Emacs</text>
<text text-anchor="middle" x="81" y="-215.8" font-family="Open Sans" font-size="14.00" fill="#000000">conference</text>
</a>
</g>
</g>
<!-- help the Emacs\ncommunity grow -->
<g id="G_node2" class="node">
<title>help the Emacs\ncommunity grow</title>
<g id="a_G_node2"><a xlink:href="index.html#help_the_Emacs_community_grow" xlink:title="help the Emacs community grow" target="_parent">
<polygon fill="#d3d3d3" stroke="#000000" points="341.5,-221.5 211.5,-221.5 211.5,-183.5 341.5,-183.5 341.5,-221.5"/>
<text text-anchor="middle" x="276.5" y="-206.3" font-family="Open Sans" font-size="14.00" fill="#000000">help the Emacs</text>
<text text-anchor="middle" x="276.5" y="-191.3" font-family="Open Sans" font-size="14.00" fill="#000000">community grow</text>
</a>
</g>
</g>
<!-- help organize a\nvirtual Emacs\nconference&#45;&gt;help the Emacs\ncommunity grow -->
<g id="G_edge1" class="edge">
<title>help organize a\nvirtual Emacs\nconference&#45;&gt;help the Emacs\ncommunity grow</title>
<path fill="none" stroke="#cccccc" d="M141.2517,-224.6378C160.2551,-221.5273 181.4873,-218.052 201.3937,-214.7936"/>
<polygon fill="#cccccc" stroke="#cccccc" points="202.0492,-218.233 211.3525,-213.1635 200.9184,-211.3249 202.0492,-218.233"/>
</g>
<!-- share useful stuff -->
<g id="G_node4" class="node">
<title>share useful stuff</title>
<g id="a_G_node4"><a xlink:href="index.html#share_useful_stuff" xlink:title="share useful stuff" target="_parent">
<polygon fill="#d3d3d3" stroke="#000000" points="734,-215.5 600,-215.5 600,-179.5 734,-179.5 734,-215.5"/>
<text text-anchor="middle" x="667" y="-193.8" font-family="Open Sans" font-size="14.00" fill="#000000">share useful stuff</text>
</a>
</g>
</g>
<!-- help the Emacs\ncommunity grow&#45;&gt;share useful stuff -->
<g id="G_edge3" class="edge">
<title>help the Emacs\ncommunity grow&#45;&gt;share useful stuff</title>
<path fill="none" stroke="#cccccc" d="M341.8609,-201.6631C410.0487,-200.79 516.9173,-199.4217 589.3586,-198.4941"/>
<polygon fill="#cccccc" stroke="#cccccc" points="589.8339,-201.9884 599.7882,-198.3606 589.7442,-194.989 589.8339,-201.9884"/>
</g>
<!-- tickle my brain -->
<g id="G_node5" class="node">
<title>tickle my brain</title>
<g id="a_G_node5"><a xlink:href="index.html#tickle_my_brain" xlink:title="tickle my brain" target="_parent">
<polygon fill="#d3d3d3" stroke="#000000" points="527,-167.5 411,-167.5 411,-131.5 527,-131.5 527,-167.5"/>
<text text-anchor="middle" x="469" y="-145.8" font-family="Open Sans" font-size="14.00" fill="#000000">tickle my brain</text>
</a>
</g>
</g>
<!-- help the Emacs\ncommunity grow&#45;&gt;tickle my brain -->
<g id="G_edge4" class="edge">
<title>help the Emacs\ncommunity grow&#45;&gt;tickle my brain</title>
<path fill="none" stroke="#cccccc" d="M341.6717,-184.5566C360.8934,-179.2644 381.9676,-173.4622 401.3418,-168.128"/>
<polygon fill="#cccccc" stroke="#cccccc" points="402.2868,-171.4981 410.9989,-165.4691 400.4286,-164.7492 402.2868,-171.4981"/>
</g>
<!-- smoothen Emacs and\nOrg use on my phone -->
<g id="G_node3" class="node">
<title>smoothen Emacs and\nOrg use on my phone</title>
<g id="a_G_node3"><a xlink:href="index.html#smoothen_Emacs_and_Org_use_on_my_phone" xlink:title="smoothen Emacs and Org use on my phone" target="_parent">
<polygon fill="none" stroke="#000000" points="162,-189.5 0,-189.5 0,-151.5 162,-151.5 162,-189.5"/>
<text text-anchor="middle" x="81" y="-174.3" font-family="Open Sans" font-size="14.00" fill="#000000">smoothen Emacs and</text>
<text text-anchor="middle" x="81" y="-159.3" font-family="Open Sans" font-size="14.00" fill="#000000">Org use on my phone</text>
</a>
</g>
</g>
<!-- smoothen Emacs and\nOrg use on my phone&#45;&gt;help the Emacs\ncommunity grow -->
<g id="G_edge2" class="edge">
<title>smoothen Emacs and\nOrg use on my phone&#45;&gt;help the Emacs\ncommunity grow</title>
<path fill="none" stroke="#cccccc" d="M162.2112,-183.7929C175.1248,-185.9066 188.4351,-188.0853 201.2049,-190.1755"/>
<polygon fill="#cccccc" stroke="#cccccc" points="200.8781,-193.6685 211.3122,-191.8299 202.0089,-186.7604 200.8781,-193.6685"/>
</g>
<!-- get more value from\nmy time -->
<g id="G_node6" class="node">
<title>get more value from\nmy time</title>
<g id="a_G_node6"><a xlink:href="index.html#get_more_value_from_my_time" xlink:title="get more value from my time" target="_parent">
<polygon fill="#d3d3d3" stroke="#000000" points="941,-169.5 787,-169.5 787,-131.5 941,-131.5 941,-169.5"/>
<text text-anchor="middle" x="864" y="-154.3" font-family="Open Sans" font-size="14.00" fill="#000000">get more value from</text>
<text text-anchor="middle" x="864" y="-139.3" font-family="Open Sans" font-size="14.00" fill="#000000">my time</text>
</a>
</g>
</g>
<!-- share useful stuff&#45;&gt;get more value from\nmy time -->
<g id="G_edge10" class="edge">
<title>share useful stuff&#45;&gt;get more value from\nmy time</title>
<path fill="none" stroke="#cccccc" d="M734.2452,-181.4567C748.011,-178.1725 762.6853,-174.6715 777.029,-171.2494"/>
<polygon fill="#cccccc" stroke="#cccccc" points="777.9764,-174.6217 786.8912,-168.8965 776.3519,-167.8128 777.9764,-174.6217"/>
</g>
<!-- tickle my brain&#45;&gt;share useful stuff -->
<g id="G_edge13" class="edge">
<title>tickle my brain&#45;&gt;share useful stuff</title>
<path fill="none" stroke="#cccccc" d="M527.0687,-163.5773C546.7704,-168.3534 569.0971,-173.766 590.0379,-178.8425"/>
<polygon fill="#cccccc" stroke="#cccccc" points="589.3238,-182.2707 599.867,-181.2253 590.9731,-175.4678 589.3238,-182.2707"/>
</g>
<!-- tickle my brain&#45;&gt;get more value from\nmy time -->
<g id="G_edge14" class="edge">
<title>tickle my brain&#45;&gt;get more value from\nmy time</title>
<path fill="none" stroke="#cccccc" d="M527.2836,-149.6476C593.108,-149.8142 700.9104,-150.0871 776.7705,-150.2792"/>
<polygon fill="#cccccc" stroke="#cccccc" points="776.7796,-153.7791 786.7885,-150.3045 776.7974,-146.7791 776.7796,-153.7791"/>
</g>
<!-- live an awesome life -->
<g id="G_node7" class="node">
<title>live an awesome life</title>
<g id="a_G_node7"><a xlink:href="index.html#live_an_awesome_life" xlink:title="live an awesome life" target="_parent">
<polygon fill="#d3d3d3" stroke="#000000" points="1130,-137.5 977,-137.5 977,-101.5 1130,-101.5 1130,-137.5"/>
<text text-anchor="middle" x="1053.5" y="-115.8" font-family="Open Sans" font-size="14.00" fill="#000000">live an awesome life</text>
</a>
</g>
</g>
<!-- get more value from\nmy time&#45;&gt;live an awesome life -->
<g id="G_edge5" class="edge">
<title>get more value from\nmy time&#45;&gt;live an awesome life</title>
<path fill="none" stroke="#cccccc" d="M941.0769,-137.8911C949.5466,-136.5056 958.2116,-135.0881 966.7882,-133.685"/>
<polygon fill="#cccccc" stroke="#cccccc" points="967.4949,-137.116 976.7987,-132.0474 966.3648,-130.2079 967.4949,-137.116"/>
</g>
<!-- improve my coding\nskills -->
<g id="G_node8" class="node">
<title>improve my coding\nskills</title>
<g id="a_G_node8"><a xlink:href="index.html#improve_my_coding_skills" xlink:title="improve my coding skills" target="_parent">
<polygon fill="#d3d3d3" stroke="#000000" points="349.5,-109.5 203.5,-109.5 203.5,-71.5 349.5,-71.5 349.5,-109.5"/>
<text text-anchor="middle" x="276.5" y="-94.3" font-family="Open Sans" font-size="14.00" fill="#000000">improve my coding</text>
<text text-anchor="middle" x="276.5" y="-79.3" font-family="Open Sans" font-size="14.00" fill="#000000">skills</text>
</a>
</g>
</g>
<!-- improve my coding\nskills&#45;&gt;tickle my brain -->
<g id="G_edge6" class="edge">
<title>improve my coding\nskills&#45;&gt;tickle my brain</title>
<path fill="none" stroke="#cccccc" d="M338.7334,-109.5741C358.6517,-115.679 380.8006,-122.4675 401.1017,-128.6896"/>
<polygon fill="#cccccc" stroke="#cccccc" points="400.3148,-132.1091 410.9015,-131.6932 402.3661,-125.4164 400.3148,-132.1091"/>
</g>
<!-- illustrate another\nbook for A&#45; or her\ncousins -->
<g id="G_node9" class="node">
<title>illustrate another\nbook for A&#45; or her\ncousins</title>
<g id="a_G_node9"><a xlink:href="index.html#illustrate_another_book_for_A__or_her_cousins" xlink:title="illustrate another book for A&#45; or her cousins" target="_parent">
<polygon fill="none" stroke="#000000" points="343.5,-364 209.5,-364 209.5,-311 343.5,-311 343.5,-364"/>
<text text-anchor="middle" x="276.5" y="-348.8" font-family="Open Sans" font-size="14.00" fill="#000000">illustrate another</text>
<text text-anchor="middle" x="276.5" y="-333.8" font-family="Open Sans" font-size="14.00" fill="#000000">book for A&#45; or her</text>
<text text-anchor="middle" x="276.5" y="-318.8" font-family="Open Sans" font-size="14.00" fill="#000000">cousins</text>
</a>
</g>
</g>
<!-- improve my drawing\nskills -->
<g id="G_node10" class="node">
<title>improve my drawing\nskills</title>
<g id="a_G_node10"><a xlink:href="index.html#improve_my_drawing_skills" xlink:title="improve my drawing skills" target="_parent">
<polygon fill="#d3d3d3" stroke="#000000" points="547,-285.5 391,-285.5 391,-247.5 547,-247.5 547,-285.5"/>
<text text-anchor="middle" x="469" y="-270.3" font-family="Open Sans" font-size="14.00" fill="#000000">improve my drawing</text>
<text text-anchor="middle" x="469" y="-255.3" font-family="Open Sans" font-size="14.00" fill="#000000">skills</text>
</a>
</g>
</g>
<!-- illustrate another\nbook for A&#45; or her\ncousins&#45;&gt;improve my drawing\nskills -->
<g id="G_edge7" class="edge">
<title>illustrate another\nbook for A&#45; or her\ncousins&#45;&gt;improve my drawing\nskills</title>
<path fill="none" stroke="#cccccc" d="M343.5569,-312.7673C364.4457,-305.0629 387.3607,-296.6111 407.8251,-289.0632"/>
<polygon fill="#cccccc" stroke="#cccccc" points="409.1748,-292.2959 417.3458,-285.5517 406.7524,-285.7284 409.1748,-292.2959"/>
</g>
<!-- improve my drawing\nskills&#45;&gt;share useful stuff -->
<g id="G_edge9" class="edge">
<title>improve my drawing\nskills&#45;&gt;share useful stuff</title>
<path fill="none" stroke="#cccccc" d="M523.6285,-247.4628C549.1152,-238.5811 579.5487,-227.9754 605.8067,-218.825"/>
<polygon fill="#cccccc" stroke="#cccccc" points="606.9836,-222.1213 615.2748,-215.5254 604.68,-215.5112 606.9836,-222.1213"/>
</g>
<!-- make a book about\nmicrophthalmia for\nA&#45; -->
<g id="G_node11" class="node">
<title>make a book about\nmicrophthalmia for\nA&#45;</title>
<g id="a_G_node11"><a xlink:href="index.html#make_a_book_about_microphthalmia_for_A_" xlink:title="make a book about microphthalmia for A&#45;" target="_parent">
<polygon fill="none" stroke="#000000" points="350,-293 203,-293 203,-240 350,-240 350,-293"/>
<text text-anchor="middle" x="276.5" y="-277.8" font-family="Open Sans" font-size="14.00" fill="#000000">make a book about</text>
<text text-anchor="middle" x="276.5" y="-262.8" font-family="Open Sans" font-size="14.00" fill="#000000">microphthalmia for</text>
<text text-anchor="middle" x="276.5" y="-247.8" font-family="Open Sans" font-size="14.00" fill="#000000">A&#45;</text>
</a>
</g>
</g>
<!-- make a book about\nmicrophthalmia for\nA&#45;&#45;&gt;improve my drawing\nskills -->
<g id="G_edge8" class="edge">
<title>make a book about\nmicrophthalmia for\nA&#45;&#45;&gt;improve my drawing\nskills</title>
<path fill="none" stroke="#cccccc" d="M350.1,-266.5C360.1302,-266.5 370.5083,-266.5 380.7642,-266.5"/>
<polygon fill="#cccccc" stroke="#cccccc" points="380.962,-270.0001 390.962,-266.5 380.9619,-263.0001 380.962,-270.0001"/>
</g>
<!-- build organizers and\nother things for the\nhouse -->
<g id="G_node12" class="node">
<title>build organizers and\nother things for the\nhouse</title>
<g id="a_G_node12"><a xlink:href="index.html#build_organizers_and_other_things_for_the_house" xlink:title="build organizers and other things for the house" target="_parent">
<polygon fill="none" stroke="#000000" points="354,-53 199,-53 199,0 354,0 354,-53"/>
<text text-anchor="middle" x="276.5" y="-37.8" font-family="Open Sans" font-size="14.00" fill="#000000">build organizers and</text>
<text text-anchor="middle" x="276.5" y="-22.8" font-family="Open Sans" font-size="14.00" fill="#000000">other things for the</text>
<text text-anchor="middle" x="276.5" y="-7.8" font-family="Open Sans" font-size="14.00" fill="#000000">house</text>
</a>
</g>
</g>
<!-- build organizers and\nother things for the\nhouse&#45;&gt;tickle my brain -->
<g id="G_edge11" class="edge">
<title>build organizers and\nother things for the\nhouse&#45;&gt;tickle my brain</title>
<path fill="none" stroke="#cccccc" d="M338.038,-53.1133C343.862,-56.1098 349.6019,-59.2574 355,-62.5 385.7929,-80.9969 418.0875,-106.2791 440.4099,-124.8229"/>
<polygon fill="#cccccc" stroke="#cccccc" points="438.2506,-127.5799 448.1615,-131.3248 442.7491,-122.2167 438.2506,-127.5799"/>
</g>
<!-- sew more clothes for\nA&#45; and me -->
<g id="G_node13" class="node">
<title>sew more clothes for\nA&#45; and me</title>
<g id="a_G_node13"><a xlink:href="index.html#sew_more_clothes_for_A__and_me" xlink:title="sew more clothes for A&#45; and me" target="_parent">
<polygon fill="none" stroke="#000000" points="355,-165.5 198,-165.5 198,-127.5 355,-127.5 355,-165.5"/>
<text text-anchor="middle" x="276.5" y="-150.3" font-family="Open Sans" font-size="14.00" fill="#000000">sew more clothes for</text>
<text text-anchor="middle" x="276.5" y="-135.3" font-family="Open Sans" font-size="14.00" fill="#000000">A&#45; and me</text>
</a>
</g>
</g>
<!-- sew more clothes for\nA&#45; and me&#45;&gt;tickle my brain -->
<g id="G_edge12" class="edge">
<title>sew more clothes for\nA&#45; and me&#45;&gt;tickle my brain</title>
<path fill="none" stroke="#cccccc" d="M355.0748,-147.7245C370.1947,-147.9602 385.9172,-148.2052 400.68,-148.4353"/>
<polygon fill="#cccccc" stroke="#cccccc" points="400.6745,-151.9355 410.7279,-148.5919 400.7837,-144.9364 400.6745,-151.9355"/>
</g>
<!-- try two weeks of\nhaving prepared\nactivities/provocations\nfor A&#45; -->
<g id="G_node14" class="node">
<title>try two weeks of\nhaving prepared\nactivities/provocations\nfor A&#45;</title>
<g id="a_G_node14"><a xlink:href="index.html#try_two_weeks_of_having_prepared_activities_provocations_for_A_" xlink:title="try two weeks of having prepared activities/provocations for A&#45;" target="_parent">
<polygon fill="none" stroke="#000000" points="751,-122.5 583,-122.5 583,-54.5 751,-54.5 751,-122.5"/>
<text text-anchor="middle" x="667" y="-107.3" font-family="Open Sans" font-size="14.00" fill="#000000">try two weeks of</text>
<text text-anchor="middle" x="667" y="-92.3" font-family="Open Sans" font-size="14.00" fill="#000000">having prepared</text>
<text text-anchor="middle" x="667" y="-77.3" font-family="Open Sans" font-size="14.00" fill="#000000">activities/provocations</text>
<text text-anchor="middle" x="667" y="-62.3" font-family="Open Sans" font-size="14.00" fill="#000000">for A&#45;</text>
</a>
</g>
</g>
<!-- enrich our\nexperiences -->
<g id="G_node15" class="node">
<title>enrich our\nexperiences</title>
<g id="a_G_node15"><a xlink:href="index.html#enrich_our_experiences" xlink:title="enrich our experiences" target="_parent">
<polygon fill="#d3d3d3" stroke="#000000" points="913,-110.5 815,-110.5 815,-72.5 913,-72.5 913,-110.5"/>
<text text-anchor="middle" x="864" y="-95.3" font-family="Open Sans" font-size="14.00" fill="#000000">enrich our</text>
<text text-anchor="middle" x="864" y="-80.3" font-family="Open Sans" font-size="14.00" fill="#000000">experiences</text>
</a>
</g>
</g>
<!-- try two weeks of\nhaving prepared\nactivities/provocations\nfor A&#45;&#45;&gt;enrich our\nexperiences -->
<g id="G_edge15" class="edge">
<title>try two weeks of\nhaving prepared\nactivities/provocations\nfor A&#45;&#45;&gt;enrich our\nexperiences</title>
<path fill="none" stroke="#cccccc" d="M751.1172,-89.781C769.1307,-90.0553 787.8002,-90.3396 804.6454,-90.5961"/>
<polygon fill="#cccccc" stroke="#cccccc" points="804.8238,-94.0992 814.876,-90.7519 804.9305,-87.1 804.8238,-94.0992"/>
</g>
<!-- enrich our\nexperiences&#45;&gt;live an awesome life -->
<g id="G_edge16" class="edge">
<title>enrich our\nexperiences&#45;&gt;live an awesome life</title>
<path fill="none" stroke="#cccccc" d="M913.2942,-98.7836C929.6718,-101.2035 948.4241,-103.9743 966.7722,-106.6853"/>
<polygon fill="#cccccc" stroke="#cccccc" points="966.5022,-110.1834 976.9064,-108.1827 967.5254,-103.2585 966.5022,-110.1834"/>
</g>
</g>
</svg>
