<?xml version="1.0" encoding="UTF-8" standalone="no"?>
<!DOCTYPE svg PUBLIC "-//W3C//DTD SVG 1.1//EN"
 "http://www.w3.org/Graphics/SVG/1.1/DTD/svg11.dtd">
<!-- Generated by graphviz version 2.38.0 (20140413.2041)
 -->
<!-- Title: G Pages: 1 -->
<svg width="800pt" height="371pt"
 viewBox="0.00 0.00 576.00 267.14" xmlns="http://www.w3.org/2000/svg" xmlns:xlink="http://www.w3.org/1999/xlink">
<g id="G" class="graph" transform="scale(0.531561 0.531561) rotate(0) translate(4 694)">
<title>G</title>
<polygon fill="white" stroke="none" points="-4,4 -4,-694 1501,-694 1501,4 -4,4"/>
<!-- help the Emacs\ncommunity grow -->
<g id="G_node1" class="node"><title>help the Emacs\ncommunity grow</title>
<g id="a_G_node1"><a xlink:href="index.html#help_the_Emacs_community_grow" xlink:title="help the Emacs community grow" target="_parent">
<polygon fill="lightgrey" stroke="black" points="347.5,-467 214.5,-467 214.5,-429 347.5,-429 347.5,-467"/>
<text text-anchor="middle" x="281" y="-451.8" font-family="Open Sans" font-size="14.00">help the Emacs</text>
<text text-anchor="middle" x="281" y="-436.8" font-family="Open Sans" font-size="14.00">community grow</text>
</a>
</g>
</g>
<!-- share useful stuff -->
<g id="G_node2" class="node"><title>share useful stuff</title>
<g id="a_G_node2"><a xlink:href="index.html#share_useful_stuff" xlink:title="share useful stuff" target="_parent">
<polygon fill="lightgrey" stroke="black" points="533,-578 396,-578 396,-542 533,-542 533,-578"/>
<text text-anchor="middle" x="464.5" y="-556.3" font-family="Open Sans" font-size="14.00">share useful stuff</text>
</a>
</g>
</g>
<!-- help the Emacs\ncommunity grow&#45;&gt;share useful stuff -->
<g id="G_edge1" class="edge"><title>help the Emacs\ncommunity grow&#45;&gt;share useful stuff</title>
<path fill="none" stroke="#cccccc" d="M341.71,-467.053C348.022,-469.765 354.234,-472.751 360,-476 388.833,-492.25 417.752,-516.559 437.663,-534.852"/>
<polygon fill="#cccccc" stroke="#cccccc" points="435.395,-537.523 445.095,-541.786 440.171,-532.405 435.395,-537.523"/>
</g>
<!-- tickle my brain -->
<g id="G_node3" class="node"><title>tickle my brain</title>
<g id="a_G_node3"><a xlink:href="index.html#tickle_my_brain" xlink:title="tickle my brain" target="_parent">
<polygon fill="lightgrey" stroke="black" points="1080,-504 961,-504 961,-468 1080,-468 1080,-504"/>
<text text-anchor="middle" x="1020.5" y="-482.3" font-family="Open Sans" font-size="14.00">tickle my brain</text>
</a>
</g>
</g>
<!-- help the Emacs\ncommunity grow&#45;&gt;tickle my brain -->
<g id="G_edge2" class="edge"><title>help the Emacs\ncommunity grow&#45;&gt;tickle my brain</title>
<path fill="none" stroke="#cccccc" d="M347.772,-451.389C486.747,-458.55 809.096,-475.159 950.694,-482.455"/>
<polygon fill="#cccccc" stroke="#cccccc" points="950.813,-485.965 960.98,-482.985 951.173,-478.975 950.813,-485.965"/>
</g>
<!-- get more value from\nmy time -->
<g id="G_node5" class="node"><title>get more value from\nmy time</title>
<g id="a_G_node5"><a xlink:href="index.html#get_more_value_from_my_time" xlink:title="get more value from my time" target="_parent">
<polygon fill="lightgrey" stroke="black" points="1303.5,-450 1146.5,-450 1146.5,-412 1303.5,-412 1303.5,-450"/>
<text text-anchor="middle" x="1225" y="-434.8" font-family="Open Sans" font-size="14.00">get more value from</text>
<text text-anchor="middle" x="1225" y="-419.8" font-family="Open Sans" font-size="14.00">my time</text>
</a>
</g>
</g>
<!-- share useful stuff&#45;&gt;get more value from\nmy time -->
<g id="G_edge18" class="edge"><title>share useful stuff&#45;&gt;get more value from\nmy time</title>
<path fill="none" stroke="#cccccc" d="M505.922,-578.093C524.697,-585.54 547.566,-593.284 569,-597 628.118,-607.249 644.289,-602.882 704,-597 887.378,-578.935 941.537,-587.66 1110,-513 1141.62,-498.986 1173.21,-475.319 1195.09,-457.004"/>
<polygon fill="#cccccc" stroke="#cccccc" points="1197.64,-459.429 1202.97,-450.278 1193.09,-454.102 1197.64,-459.429"/>
</g>
<!-- build good karma -->
<g id="G_node13" class="node"><title>build good karma</title>
<g id="a_G_node13"><a xlink:href="index.html#build_good_karma" xlink:title="build good karma" target="_parent">
<polygon fill="lightgrey" stroke="black" points="704,-588 569,-588 569,-552 704,-552 704,-588"/>
<text text-anchor="middle" x="636.5" y="-566.3" font-family="Open Sans" font-size="14.00">build good karma</text>
</a>
</g>
</g>
<!-- share useful stuff&#45;&gt;build good karma -->
<g id="G_edge19" class="edge"><title>share useful stuff&#45;&gt;build good karma</title>
<path fill="none" stroke="#cccccc" d="M533.177,-563.981C541.629,-564.478 550.32,-564.989 558.895,-565.494"/>
<polygon fill="#cccccc" stroke="#cccccc" points="558.7,-568.988 568.888,-566.082 559.111,-562 558.7,-568.988"/>
</g>
<!-- tickle my brain&#45;&gt;share useful stuff -->
<g id="G_edge21" class="edge"><title>tickle my brain&#45;&gt;share useful stuff</title>
<path fill="none" stroke="#cccccc" d="M960.871,-487.389C874.26,-490.413 707.427,-499.967 569,-530 557.026,-532.598 544.405,-535.83 532.251,-539.202"/>
<polygon fill="#cccccc" stroke="#cccccc" points="531.294,-535.835 522.625,-541.926 533.201,-542.57 531.294,-535.835"/>
</g>
<!-- tickle my brain&#45;&gt;get more value from\nmy time -->
<g id="G_edge22" class="edge"><title>tickle my brain&#45;&gt;get more value from\nmy time</title>
<path fill="none" stroke="#cccccc" d="M1080.07,-470.092C1100.03,-464.672 1122.69,-458.517 1144.03,-452.72"/>
<polygon fill="#cccccc" stroke="#cccccc" points="1145,-456.085 1153.73,-450.086 1143.16,-449.33 1145,-456.085"/>
</g>
<!-- delegate more\neffectively -->
<g id="G_node4" class="node"><title>delegate more\neffectively</title>
<g id="a_G_node4"><a xlink:href="index.html#delegate_more_effectively" xlink:title="delegate more effectively" target="_parent">
<polygon fill="lightgrey" stroke="black" points="1078.5,-450 962.5,-450 962.5,-412 1078.5,-412 1078.5,-450"/>
<text text-anchor="middle" x="1020.5" y="-434.8" font-family="Open Sans" font-size="14.00">delegate more</text>
<text text-anchor="middle" x="1020.5" y="-419.8" font-family="Open Sans" font-size="14.00">effectively</text>
</a>
</g>
</g>
<!-- delegate more\neffectively&#45;&gt;get more value from\nmy time -->
<g id="G_edge3" class="edge"><title>delegate more\neffectively&#45;&gt;get more value from\nmy time</title>
<path fill="none" stroke="#cccccc" d="M1078.72,-431C1096.54,-431 1116.63,-431 1136.06,-431"/>
<polygon fill="#cccccc" stroke="#cccccc" points="1136.14,-434.5 1146.14,-431 1136.14,-427.5 1136.14,-434.5"/>
</g>
<!-- live an awesome life -->
<g id="G_node7" class="node"><title>live an awesome life</title>
<g id="a_G_node7"><a xlink:href="index.html#live_an_awesome_life" xlink:title="live an awesome life" target="_parent">
<polygon fill="lightgrey" stroke="black" points="1497,-219 1340,-219 1340,-183 1497,-183 1497,-219"/>
<text text-anchor="middle" x="1418.5" y="-197.3" font-family="Open Sans" font-size="14.00">live an awesome life</text>
</a>
</g>
</g>
<!-- get more value from\nmy time&#45;&gt;live an awesome life -->
<g id="G_edge5" class="edge"><title>get more value from\nmy time&#45;&gt;live an awesome life</title>
<path fill="none" stroke="#cccccc" d="M1242.52,-411.687C1258.36,-393.12 1282.93,-364.235 1304,-339 1336.25,-300.375 1373.21,-255.289 1395.95,-227.44"/>
<polygon fill="#cccccc" stroke="#cccccc" points="1398.92,-229.336 1402.53,-219.376 1393.5,-224.91 1398.92,-229.336"/>
</g>
<!-- create\nsyntopicon/bibliography -->
<g id="G_node6" class="node"><title>create\nsyntopicon/bibliography</title>
<g id="a_G_node6"><a xlink:href="index.html#create_syntopicon_bibliography" xlink:title="create syntopicon/bibliography" target="_parent">
<polygon fill="none" stroke="black" points="1110,-394 931,-394 931,-356 1110,-356 1110,-394"/>
<text text-anchor="middle" x="1020.5" y="-378.8" font-family="Open Sans" font-size="14.00">create</text>
<text text-anchor="middle" x="1020.5" y="-363.8" font-family="Open Sans" font-size="14.00">syntopicon/bibliography</text>
</a>
</g>
</g>
<!-- create\nsyntopicon/bibliography&#45;&gt;get more value from\nmy time -->
<g id="G_edge4" class="edge"><title>create\nsyntopicon/bibliography&#45;&gt;get more value from\nmy time</title>
<path fill="none" stroke="#cccccc" d="M1090.34,-394.037C1108.03,-398.929 1127.19,-404.229 1145.34,-409.246"/>
<polygon fill="#cccccc" stroke="#cccccc" points="1144.44,-412.628 1155.01,-411.92 1146.3,-405.882 1144.44,-412.628"/>
</g>
<!-- re&#45;examine spending\nand carve out more\nfor what matters -->
<g id="G_node8" class="node"><title>re&#45;examine spending\nand carve out more\nfor what matters</title>
<g id="a_G_node8"><a xlink:href="index.html#re_examine_spending_and_carve_out_more_for_what_matters" xlink:title="re&#45;examine spending and carve out more for what matters" target="_parent">
<polygon fill="none" stroke="black" points="1101,-337.5 940,-337.5 940,-284.5 1101,-284.5 1101,-337.5"/>
<text text-anchor="middle" x="1020.5" y="-322.3" font-family="Open Sans" font-size="14.00">re&#45;examine spending</text>
<text text-anchor="middle" x="1020.5" y="-307.3" font-family="Open Sans" font-size="14.00">and carve out more</text>
<text text-anchor="middle" x="1020.5" y="-292.3" font-family="Open Sans" font-size="14.00">for what matters</text>
</a>
</g>
</g>
<!-- make better\ndecisions -->
<g id="G_node9" class="node"><title>make better\ndecisions</title>
<g id="a_G_node9"><a xlink:href="index.html#make_better_decisions" xlink:title="make better decisions" target="_parent">
<polygon fill="lightgrey" stroke="black" points="1275.5,-330 1174.5,-330 1174.5,-292 1275.5,-292 1275.5,-330"/>
<text text-anchor="middle" x="1225" y="-314.8" font-family="Open Sans" font-size="14.00">make better</text>
<text text-anchor="middle" x="1225" y="-299.8" font-family="Open Sans" font-size="14.00">decisions</text>
</a>
</g>
</g>
<!-- re&#45;examine spending\nand carve out more\nfor what matters&#45;&gt;make better\ndecisions -->
<g id="G_edge6" class="edge"><title>re&#45;examine spending\nand carve out more\nfor what matters&#45;&gt;make better\ndecisions</title>
<path fill="none" stroke="#cccccc" d="M1101.24,-311C1122.26,-311 1144.57,-311 1164.33,-311"/>
<polygon fill="#cccccc" stroke="#cccccc" points="1164.41,-314.5 1174.41,-311 1164.41,-307.5 1164.41,-314.5"/>
</g>
<!-- make better\ndecisions&#45;&gt;live an awesome life -->
<g id="G_edge7" class="edge"><title>make better\ndecisions&#45;&gt;live an awesome life</title>
<path fill="none" stroke="#cccccc" d="M1275.58,-295.574C1285.22,-291.918 1295.09,-287.697 1304,-283 1334.51,-266.916 1366.06,-243.475 1388.13,-225.77"/>
<polygon fill="#cccccc" stroke="#cccccc" points="1390.55,-228.316 1396.1,-219.293 1386.14,-222.883 1390.55,-228.316"/>
</g>
<!-- learn from people -->
<g id="G_node10" class="node"><title>learn from people</title>
<g id="a_G_node10"><a xlink:href="index.html#learn_from_people" xlink:title="learn from people" target="_parent">
<polygon fill="lightgrey" stroke="black" points="886,-550 749,-550 749,-514 886,-514 886,-550"/>
<text text-anchor="middle" x="817.5" y="-528.3" font-family="Open Sans" font-size="14.00">learn from people</text>
</a>
</g>
</g>
<!-- learn from people&#45;&gt;share useful stuff -->
<g id="G_edge8" class="edge"><title>learn from people&#45;&gt;share useful stuff</title>
<path fill="none" stroke="#cccccc" d="M748.848,-532.85C699.01,-533.999 629.641,-536.695 569,-543 560.669,-543.866 551.989,-544.97 543.357,-546.198"/>
<polygon fill="#cccccc" stroke="#cccccc" points="542.648,-542.765 533.267,-547.69 543.672,-549.69 542.648,-542.765"/>
</g>
<!-- learn from people&#45;&gt;tickle my brain -->
<g id="G_edge9" class="edge"><title>learn from people&#45;&gt;tickle my brain</title>
<path fill="none" stroke="#cccccc" d="M886.269,-516.491C907.127,-511.717 930.097,-506.46 951.004,-501.676"/>
<polygon fill="#cccccc" stroke="#cccccc" points="951.798,-505.085 960.765,-499.442 950.236,-498.261 951.798,-505.085"/>
</g>
<!-- practise types of\nrecipes -->
<g id="G_node11" class="node"><title>practise types of\nrecipes</title>
<g id="a_G_node11"><a xlink:href="index.html#practise_types_of_recipes" xlink:title="practise types of recipes" target="_parent">
<polygon fill="lightgrey" stroke="black" points="1085.5,-266 955.5,-266 955.5,-228 1085.5,-228 1085.5,-266"/>
<text text-anchor="middle" x="1020.5" y="-250.8" font-family="Open Sans" font-size="14.00">practise types of</text>
<text text-anchor="middle" x="1020.5" y="-235.8" font-family="Open Sans" font-size="14.00">recipes</text>
</a>
</g>
</g>
<!-- cook yummy food -->
<g id="G_node12" class="node"><title>cook yummy food</title>
<g id="a_G_node12"><a xlink:href="index.html#cook_yummy_food" xlink:title="cook yummy food" target="_parent">
<polygon fill="lightgrey" stroke="black" points="1293.5,-274 1156.5,-274 1156.5,-238 1293.5,-238 1293.5,-274"/>
<text text-anchor="middle" x="1225" y="-252.3" font-family="Open Sans" font-size="14.00">cook yummy food</text>
</a>
</g>
</g>
<!-- practise types of\nrecipes&#45;&gt;cook yummy food -->
<g id="G_edge10" class="edge"><title>practise types of\nrecipes&#45;&gt;cook yummy food</title>
<path fill="none" stroke="#cccccc" d="M1085.57,-249.848C1104.8,-250.702 1126.11,-251.649 1146.13,-252.539"/>
<polygon fill="#cccccc" stroke="#cccccc" points="1146,-256.037 1156.15,-252.984 1146.31,-249.044 1146,-256.037"/>
</g>
<!-- cook yummy food&#45;&gt;live an awesome life -->
<g id="G_edge11" class="edge"><title>cook yummy food&#45;&gt;live an awesome life</title>
<path fill="none" stroke="#cccccc" d="M1288.7,-237.991C1306.64,-232.839 1326.34,-227.181 1344.83,-221.873"/>
<polygon fill="#cccccc" stroke="#cccccc" points="1346.01,-225.174 1354.65,-219.05 1344.08,-218.446 1346.01,-225.174"/>
</g>
<!-- build good karma&#45;&gt;learn from people -->
<g id="G_edge12" class="edge"><title>build good karma&#45;&gt;learn from people</title>
<path fill="none" stroke="#cccccc" d="M704.153,-555.85C715.454,-553.451 727.276,-550.941 738.831,-548.488"/>
<polygon fill="#cccccc" stroke="#cccccc" points="739.84,-551.852 748.896,-546.352 738.387,-545.005 739.84,-551.852"/>
</g>
<!-- publish 12 free/PWYC\nresources -->
<g id="G_node14" class="node"><title>publish 12 free/PWYC\nresources</title>
<g id="a_G_node14"><a xlink:href="index.html#publish_12_free_PWYC_resources" xlink:title="publish 12 free/PWYC resources" target="_parent">
<polygon fill="none" stroke="black" points="166,-690 0,-690 0,-652 166,-652 166,-690"/>
<text text-anchor="middle" x="83" y="-674.8" font-family="Open Sans" font-size="14.00">publish 12 free/PWYC</text>
<text text-anchor="middle" x="83" y="-659.8" font-family="Open Sans" font-size="14.00">resources</text>
</a>
</g>
</g>
<!-- publish resources -->
<g id="G_node15" class="node"><title>publish resources</title>
<g id="a_G_node15"><a xlink:href="index.html#publish_resources" xlink:title="publish resources" target="_parent">
<polygon fill="lightgrey" stroke="black" points="349,-689 213,-689 213,-653 349,-653 349,-689"/>
<text text-anchor="middle" x="281" y="-667.3" font-family="Open Sans" font-size="14.00">publish resources</text>
</a>
</g>
</g>
<!-- publish 12 free/PWYC\nresources&#45;&gt;publish resources -->
<g id="G_edge13" class="edge"><title>publish 12 free/PWYC\nresources&#45;&gt;publish resources</title>
<path fill="none" stroke="#cccccc" d="M166.27,-671C178.262,-671 190.576,-671 202.47,-671"/>
<polygon fill="#cccccc" stroke="#cccccc" points="202.794,-674.5 212.794,-671 202.794,-667.5 202.794,-674.5"/>
</g>
<!-- publish resources&#45;&gt;share useful stuff -->
<g id="G_edge14" class="edge"><title>publish resources&#45;&gt;share useful stuff</title>
<path fill="none" stroke="#cccccc" d="M341.308,-652.941C347.76,-650.255 354.114,-647.273 360,-644 388.925,-627.915 417.834,-603.586 437.717,-585.244"/>
<polygon fill="#cccccc" stroke="#cccccc" points="440.234,-587.682 445.137,-578.29 435.447,-582.574 440.234,-587.682"/>
</g>
<!-- improve my coding\nskills -->
<g id="G_node16" class="node"><title>improve my coding\nskills</title>
<g id="a_G_node16"><a xlink:href="index.html#improve_my_coding_skills" xlink:title="improve my coding skills" target="_parent">
<polygon fill="lightgrey" stroke="black" points="354,-635 208,-635 208,-597 354,-597 354,-635"/>
<text text-anchor="middle" x="281" y="-619.8" font-family="Open Sans" font-size="14.00">improve my coding</text>
<text text-anchor="middle" x="281" y="-604.8" font-family="Open Sans" font-size="14.00">skills</text>
</a>
</g>
</g>
<!-- improve my coding\nskills&#45;&gt;share useful stuff -->
<g id="G_edge15" class="edge"><title>improve my coding\nskills&#45;&gt;share useful stuff</title>
<path fill="none" stroke="#cccccc" d="M343.701,-596.963C360.281,-591.847 378.307,-586.285 395.222,-581.066"/>
<polygon fill="#cccccc" stroke="#cccccc" points="396.51,-584.332 405.034,-578.039 394.446,-577.643 396.51,-584.332"/>
</g>
<!-- improve my drawing\nskills -->
<g id="G_node17" class="node"><title>improve my drawing\nskills</title>
<g id="a_G_node17"><a xlink:href="index.html#improve_my_drawing_skills" xlink:title="improve my drawing skills" target="_parent">
<polygon fill="lightgrey" stroke="black" points="360,-579 202,-579 202,-541 360,-541 360,-579"/>
<text text-anchor="middle" x="281" y="-563.8" font-family="Open Sans" font-size="14.00">improve my drawing</text>
<text text-anchor="middle" x="281" y="-548.8" font-family="Open Sans" font-size="14.00">skills</text>
</a>
</g>
</g>
<!-- improve my drawing\nskills&#45;&gt;share useful stuff -->
<g id="G_edge16" class="edge"><title>improve my drawing\nskills&#45;&gt;share useful stuff</title>
<path fill="none" stroke="#cccccc" d="M360.026,-560C368.496,-560 377.117,-560 385.585,-560"/>
<polygon fill="#cccccc" stroke="#cccccc" points="385.819,-563.5 395.819,-560 385.819,-556.5 385.819,-563.5"/>
</g>
<!-- improve my sharing\nskills -->
<g id="G_node18" class="node"><title>improve my sharing\nskills</title>
<g id="a_G_node18"><a xlink:href="index.html#improve_my_sharing_skills" xlink:title="improve my sharing skills" target="_parent">
<polygon fill="lightgrey" stroke="black" points="357.5,-523 204.5,-523 204.5,-485 357.5,-485 357.5,-523"/>
<text text-anchor="middle" x="281" y="-507.8" font-family="Open Sans" font-size="14.00">improve my sharing</text>
<text text-anchor="middle" x="281" y="-492.8" font-family="Open Sans" font-size="14.00">skills</text>
</a>
</g>
</g>
<!-- improve my sharing\nskills&#45;&gt;share useful stuff -->
<g id="G_edge17" class="edge"><title>improve my sharing\nskills&#45;&gt;share useful stuff</title>
<path fill="none" stroke="#cccccc" d="M343.701,-523.037C360.281,-528.153 378.307,-533.715 395.222,-538.934"/>
<polygon fill="#cccccc" stroke="#cccccc" points="394.446,-542.357 405.034,-541.961 396.51,-535.668 394.446,-542.357"/>
</g>
<!-- develop my analysis\nskills -->
<g id="G_node19" class="node"><title>develop my analysis\nskills</title>
<g id="a_G_node19"><a xlink:href="index.html#develop_my_analysis_skills" xlink:title="develop my analysis skills" target="_parent">
<polygon fill="lightgrey" stroke="black" points="895,-420 740,-420 740,-382 895,-382 895,-420"/>
<text text-anchor="middle" x="817.5" y="-404.8" font-family="Open Sans" font-size="14.00">develop my analysis</text>
<text text-anchor="middle" x="817.5" y="-389.8" font-family="Open Sans" font-size="14.00">skills</text>
</a>
</g>
</g>
<!-- develop my analysis\nskills&#45;&gt;tickle my brain -->
<g id="G_edge20" class="edge"><title>develop my analysis\nskills&#45;&gt;tickle my brain</title>
<path fill="none" stroke="#cccccc" d="M866.952,-420.16C876.419,-424.387 886.149,-429.083 895,-434 912.028,-443.461 913.473,-450.5 931,-459 937.459,-462.132 944.36,-464.994 951.351,-467.584"/>
<polygon fill="#cccccc" stroke="#cccccc" points="950.313,-470.929 960.908,-470.947 952.637,-464.326 950.313,-470.929"/>
</g>
<!-- enrich our\nexperiences -->
<g id="G_node20" class="node"><title>enrich our\nexperiences</title>
<g id="a_G_node20"><a xlink:href="index.html#enrich_our_experiences" xlink:title="enrich our experiences" target="_parent">
<polygon fill="lightgrey" stroke="black" points="1274,-220 1176,-220 1176,-182 1274,-182 1274,-220"/>
<text text-anchor="middle" x="1225" y="-204.8" font-family="Open Sans" font-size="14.00">enrich our</text>
<text text-anchor="middle" x="1225" y="-189.8" font-family="Open Sans" font-size="14.00">experiences</text>
</a>
</g>
</g>
<!-- enrich our\nexperiences&#45;&gt;live an awesome life -->
<g id="G_edge23" class="edge"><title>enrich our\nexperiences&#45;&gt;live an awesome life</title>
<path fill="none" stroke="#cccccc" d="M1274.32,-201C1291.14,-201 1310.56,-201 1329.57,-201"/>
<polygon fill="#cccccc" stroke="#cccccc" points="1329.76,-204.5 1339.76,-201 1329.76,-197.5 1329.76,-204.5"/>
</g>
<!-- cultivate equanimity -->
<g id="G_node21" class="node"><title>cultivate equanimity</title>
<g id="a_G_node21"><a xlink:href="index.html#cultivate_equanimity" xlink:title="cultivate equanimity" target="_parent">
<polygon fill="lightgrey" stroke="black" points="1304,-164 1146,-164 1146,-128 1304,-128 1304,-164"/>
<text text-anchor="middle" x="1225" y="-142.3" font-family="Open Sans" font-size="14.00">cultivate equanimity</text>
</a>
</g>
</g>
<!-- cultivate equanimity&#45;&gt;live an awesome life -->
<g id="G_edge24" class="edge"><title>cultivate equanimity&#45;&gt;live an awesome life</title>
<path fill="none" stroke="#cccccc" d="M1288.7,-164.009C1306.64,-169.161 1326.34,-174.819 1344.83,-180.127"/>
<polygon fill="#cccccc" stroke="#cccccc" points="1344.08,-183.554 1354.65,-182.95 1346.01,-176.826 1344.08,-183.554"/>
</g>
<!-- do a 5&#45;year\nexperiment in\nself&#45;directed living -->
<g id="G_node22" class="node"><title>do a 5&#45;year\nexperiment in\nself&#45;directed living</title>
<g id="a_G_node22"><a xlink:href="index.html#do_a_5_year_experiment_in_self_directed_living" xlink:title="do a 5&#45;year experiment in self&#45;directed living" target="_parent">
<polygon fill="none" stroke="black" points="1295.5,-109.5 1154.5,-109.5 1154.5,-56.5 1295.5,-56.5 1295.5,-109.5"/>
<text text-anchor="middle" x="1225" y="-94.3" font-family="Open Sans" font-size="14.00">do a 5&#45;year</text>
<text text-anchor="middle" x="1225" y="-79.3" font-family="Open Sans" font-size="14.00">experiment in</text>
<text text-anchor="middle" x="1225" y="-64.3" font-family="Open Sans" font-size="14.00">self&#45;directed living</text>
</a>
</g>
</g>
<!-- do a 5&#45;year\nexperiment in\nself&#45;directed living&#45;&gt;live an awesome life -->
<g id="G_edge25" class="edge"><title>do a 5&#45;year\nexperiment in\nself&#45;directed living&#45;&gt;live an awesome life</title>
<path fill="none" stroke="#cccccc" d="M1286.64,-109.572C1292.59,-112.598 1298.46,-115.763 1304,-119 1333.4,-136.189 1364.62,-159.123 1386.85,-176.366"/>
<polygon fill="#cccccc" stroke="#cccccc" points="1384.88,-179.267 1394.91,-182.672 1389.19,-173.754 1384.88,-179.267"/>
</g>
<!-- maintain or improve\nmy health -->
<g id="G_node23" class="node"><title>maintain or improve\nmy health</title>
<g id="a_G_node23"><a xlink:href="index.html#maintain_or_improve_my_health" xlink:title="maintain or improve my health" target="_parent">
<polygon fill="lightgrey" stroke="black" points="1303,-38 1147,-38 1147,-0 1303,-0 1303,-38"/>
<text text-anchor="middle" x="1225" y="-22.8" font-family="Open Sans" font-size="14.00">maintain or improve</text>
<text text-anchor="middle" x="1225" y="-7.8" font-family="Open Sans" font-size="14.00">my health</text>
</a>
</g>
</g>
<!-- maintain or improve\nmy health&#45;&gt;live an awesome life -->
<g id="G_edge26" class="edge"><title>maintain or improve\nmy health&#45;&gt;live an awesome life</title>
<path fill="none" stroke="#cccccc" d="M1289.42,-38.0237C1294.56,-40.668 1299.5,-43.6483 1304,-47 1350.14,-81.3636 1385.8,-139.729 1404.04,-173.883"/>
<polygon fill="#cccccc" stroke="#cccccc" points="1400.99,-175.592 1408.72,-182.834 1407.19,-172.35 1400.99,-175.592"/>
</g>
</g>
</svg>
