<?xml version="1.0" encoding="UTF-8" standalone="no"?>
<!DOCTYPE svg PUBLIC "-//W3C//DTD SVG 1.1//EN"
 "http://www.w3.org/Graphics/SVG/1.1/DTD/svg11.dtd">
<!-- Generated by graphviz version 2.38.0 (20140413.2041)
 -->
<!-- Title: G Pages: 1 -->
<svg xmlns="http://www.w3.org/2000/svg" xmlns:xlink="http://www.w3.org/1999/xlink">
<g id="G" class="graph" transform="scale(0.536193 0.536193) rotate(0) translate(4 687)">
<title>G</title>
<polygon fill="white" stroke="none" points="-4,4 -4,-687 1488,-687 1488,4 -4,4"/>
<!-- Make it to 52 issues\nof Emacs News -->
<g id="G_node1" class="node"><title>Make it to 52 issues\nof Emacs News</title>
<g id="a_G_node1"><a xlink:href="index.html#Make_it_to_52_issues_of_Emacs_News" xlink:title="Make it to 52 issues of Emacs News" target="_parent">
<polygon fill="none" stroke="black" points="154,-683 0,-683 0,-645 154,-645 154,-683"/>
<text text-anchor="middle" x="77" y="-667.8" font-family="Open Sans" font-size="14.00">Make it to 52 issues</text>
<text text-anchor="middle" x="77" y="-652.8" font-family="Open Sans" font-size="14.00">of Emacs News</text>
</a>
</g>
</g>
<!-- help the Emacs\ncommunity grow -->
<g id="G_node2" class="node"><title>help the Emacs\ncommunity grow</title>
<g id="a_G_node2"><a xlink:href="index.html#help_the_Emacs_community_grow" xlink:title="help the Emacs community grow" target="_parent">
<polygon fill="lightgrey" stroke="black" points="335.5,-679 202.5,-679 202.5,-641 335.5,-641 335.5,-679"/>
<text text-anchor="middle" x="269" y="-663.8" font-family="Open Sans" font-size="14.00">help the Emacs</text>
<text text-anchor="middle" x="269" y="-648.8" font-family="Open Sans" font-size="14.00">community grow</text>
</a>
</g>
</g>
<!-- Make it to 52 issues\nof Emacs News&#45;&gt;help the Emacs\ncommunity grow -->
<g id="G_edge1" class="edge"><title>Make it to 52 issues\nof Emacs News&#45;&gt;help the Emacs\ncommunity grow</title>
<path fill="none" stroke="#cccccc" d="M154.185,-662.396C166.607,-662.135 179.475,-661.864 191.894,-661.602"/>
<polygon fill="#cccccc" stroke="#cccccc" points="192.277,-665.095 202.201,-661.385 192.13,-658.097 192.277,-665.095"/>
</g>
<!-- share useful stuff -->
<g id="G_node3" class="node"><title>share useful stuff</title>
<g id="a_G_node3"><a xlink:href="index.html#share_useful_stuff" xlink:title="share useful stuff" target="_parent">
<polygon fill="lightgrey" stroke="black" points="521,-582 384,-582 384,-546 521,-546 521,-582"/>
<text text-anchor="middle" x="452.5" y="-560.3" font-family="Open Sans" font-size="14.00">share useful stuff</text>
</a>
</g>
</g>
<!-- help the Emacs\ncommunity grow&#45;&gt;share useful stuff -->
<g id="G_edge2" class="edge"><title>help the Emacs\ncommunity grow&#45;&gt;share useful stuff</title>
<path fill="none" stroke="#cccccc" d="M323.904,-640.898C332.096,-637.53 340.358,-633.857 348,-630 372.362,-617.704 398.248,-601.196 418.038,-587.766"/>
<polygon fill="#cccccc" stroke="#cccccc" points="420.133,-590.573 426.398,-582.029 416.172,-584.801 420.133,-590.573"/>
</g>
<!-- tickle my brain -->
<g id="G_node4" class="node"><title>tickle my brain</title>
<g id="a_G_node4"><a xlink:href="index.html#tickle_my_brain" xlink:title="tickle my brain" target="_parent">
<polygon fill="lightgrey" stroke="black" points="1074.5,-547 955.5,-547 955.5,-511 1074.5,-511 1074.5,-547"/>
<text text-anchor="middle" x="1015" y="-525.3" font-family="Open Sans" font-size="14.00">tickle my brain</text>
</a>
</g>
</g>
<!-- help the Emacs\ncommunity grow&#45;&gt;tickle my brain -->
<g id="G_edge3" class="edge"><title>help the Emacs\ncommunity grow&#45;&gt;tickle my brain</title>
<path fill="none" stroke="#cccccc" d="M335.894,-658.864C451.649,-655.368 698.096,-641.202 897,-584 923.613,-576.347 951.749,-563.296 973.759,-551.827"/>
<polygon fill="#cccccc" stroke="#cccccc" points="975.604,-554.811 982.794,-547.03 972.321,-548.628 975.604,-554.811"/>
</g>
<!-- get more value from\nmy time -->
<g id="G_node7" class="node"><title>get more value from\nmy time</title>
<g id="a_G_node7"><a xlink:href="index.html#get_more_value_from_my_time" xlink:title="get more value from my time" target="_parent">
<polygon fill="lightgrey" stroke="black" points="1290.5,-386 1133.5,-386 1133.5,-348 1290.5,-348 1290.5,-386"/>
<text text-anchor="middle" x="1212" y="-370.8" font-family="Open Sans" font-size="14.00">get more value from</text>
<text text-anchor="middle" x="1212" y="-355.8" font-family="Open Sans" font-size="14.00">my time</text>
</a>
</g>
</g>
<!-- share useful stuff&#45;&gt;get more value from\nmy time -->
<g id="G_edge22" class="edge"><title>share useful stuff&#45;&gt;get more value from\nmy time</title>
<path fill="none" stroke="#cccccc" d="M457.701,-545.912C467.557,-508.115 496.083,-421.27 557,-385 650.051,-329.597 967.345,-346.743 1123.19,-359.099"/>
<polygon fill="#cccccc" stroke="#cccccc" points="1122.97,-362.592 1133.21,-359.905 1123.53,-355.615 1122.97,-362.592"/>
</g>
<!-- build good karma -->
<g id="G_node16" class="node"><title>build good karma</title>
<g id="a_G_node16"><a xlink:href="index.html#build_good_karma" xlink:title="build good karma" target="_parent">
<polygon fill="lightgrey" stroke="black" points="699,-430 564,-430 564,-394 699,-394 699,-430"/>
<text text-anchor="middle" x="631.5" y="-408.3" font-family="Open Sans" font-size="14.00">build good karma</text>
</a>
</g>
</g>
<!-- share useful stuff&#45;&gt;build good karma -->
<g id="G_edge23" class="edge"><title>share useful stuff&#45;&gt;build good karma</title>
<path fill="none" stroke="#cccccc" d="M464.225,-545.683C480.866,-518.742 515.366,-468.449 557,-439 558.894,-437.661 560.861,-436.38 562.885,-435.156"/>
<polygon fill="#cccccc" stroke="#cccccc" points="564.959,-438.011 572.058,-430.146 561.604,-431.867 564.959,-438.011"/>
</g>
<!-- tickle my brain&#45;&gt;share useful stuff -->
<g id="G_edge25" class="edge"><title>tickle my brain&#45;&gt;share useful stuff</title>
<path fill="none" stroke="#cccccc" d="M955.298,-543.653C936.726,-547.991 916.07,-552.509 897,-556 747.925,-583.288 707.991,-595.032 557,-582 548.641,-581.279 539.945,-580.235 531.302,-579.009"/>
<polygon fill="#cccccc" stroke="#cccccc" points="531.612,-575.516 521.204,-577.494 530.573,-582.439 531.612,-575.516"/>
</g>
<!-- tickle my brain&#45;&gt;get more value from\nmy time -->
<g id="G_edge26" class="edge"><title>tickle my brain&#45;&gt;get more value from\nmy time</title>
<path fill="none" stroke="#cccccc" d="M1037.99,-510.731C1072.68,-481.916 1140.21,-425.809 1179.87,-392.864"/>
<polygon fill="#cccccc" stroke="#cccccc" points="1182.43,-395.286 1187.88,-386.204 1177.96,-389.902 1182.43,-395.286"/>
</g>
<!-- Practise kaizen on\nour new routines -->
<g id="G_node5" class="node"><title>Practise kaizen on\nour new routines</title>
<g id="a_G_node5"><a xlink:href="index.html#Practise_kaizen_on_our_new_routines" xlink:title="Practise kaizen on our new routines" target="_parent">
<polygon fill="none" stroke="black" points="1086.5,-338 943.5,-338 943.5,-300 1086.5,-300 1086.5,-338"/>
<text text-anchor="middle" x="1015" y="-322.8" font-family="Open Sans" font-size="14.00">Practise kaizen on</text>
<text text-anchor="middle" x="1015" y="-307.8" font-family="Open Sans" font-size="14.00">our new routines</text>
</a>
</g>
</g>
<!-- enrich our\nexperiences -->
<g id="G_node6" class="node"><title>enrich our\nexperiences</title>
<g id="a_G_node6"><a xlink:href="index.html#enrich_our_experiences" xlink:title="enrich our experiences" target="_parent">
<polygon fill="lightgrey" stroke="black" points="1261,-330 1163,-330 1163,-292 1261,-292 1261,-330"/>
<text text-anchor="middle" x="1212" y="-314.8" font-family="Open Sans" font-size="14.00">enrich our</text>
<text text-anchor="middle" x="1212" y="-299.8" font-family="Open Sans" font-size="14.00">experiences</text>
</a>
</g>
</g>
<!-- Practise kaizen on\nour new routines&#45;&gt;enrich our\nexperiences -->
<g id="G_edge4" class="edge"><title>Practise kaizen on\nour new routines&#45;&gt;enrich our\nexperiences</title>
<path fill="none" stroke="#cccccc" d="M1086.68,-316.101C1108.31,-315.213 1131.85,-314.247 1152.57,-313.397"/>
<polygon fill="#cccccc" stroke="#cccccc" points="1152.96,-316.884 1162.81,-312.977 1152.67,-309.89 1152.96,-316.884"/>
</g>
<!-- Practise kaizen on\nour new routines&#45;&gt;get more value from\nmy time -->
<g id="G_edge5" class="edge"><title>Practise kaizen on\nour new routines&#45;&gt;get more value from\nmy time</title>
<path fill="none" stroke="#cccccc" d="M1086.68,-336.397C1098.72,-339.361 1111.35,-342.47 1123.76,-345.525"/>
<polygon fill="#cccccc" stroke="#cccccc" points="1123.1,-348.967 1133.64,-347.959 1124.77,-342.17 1123.1,-348.967"/>
</g>
<!-- live an awesome life -->
<g id="G_node8" class="node"><title>live an awesome life</title>
<g id="a_G_node8"><a xlink:href="index.html#live_an_awesome_life" xlink:title="live an awesome life" target="_parent">
<polygon fill="lightgrey" stroke="black" points="1484,-218 1327,-218 1327,-182 1484,-182 1484,-218"/>
<text text-anchor="middle" x="1405.5" y="-196.3" font-family="Open Sans" font-size="14.00">live an awesome life</text>
</a>
</g>
</g>
<!-- enrich our\nexperiences&#45;&gt;live an awesome life -->
<g id="G_edge27" class="edge"><title>enrich our\nexperiences&#45;&gt;live an awesome life</title>
<path fill="none" stroke="#cccccc" d="M1261.37,-296.082C1271.39,-292.318 1281.72,-287.925 1291,-283 1321.78,-266.659 1353.53,-242.732 1375.59,-224.761"/>
<polygon fill="#cccccc" stroke="#cccccc" points="1378.07,-227.257 1383.55,-218.193 1373.61,-221.858 1378.07,-227.257"/>
</g>
<!-- get more value from\nmy time&#45;&gt;live an awesome life -->
<g id="G_edge6" class="edge"><title>get more value from\nmy time&#45;&gt;live an awesome life</title>
<path fill="none" stroke="#cccccc" d="M1275.85,-347.932C1281.17,-345.29 1286.3,-342.322 1291,-339 1333.84,-308.719 1369.42,-258.139 1388.77,-227.062"/>
<polygon fill="#cccccc" stroke="#cccccc" points="1391.79,-228.827 1394.01,-218.467 1385.82,-225.18 1391.79,-228.827"/>
</g>
<!-- re&#45;examine spending\nand carve out more\nfor what matters -->
<g id="G_node9" class="node"><title>re&#45;examine spending\nand carve out more\nfor what matters</title>
<g id="a_G_node9"><a xlink:href="index.html#re_examine_spending_and_carve_out_more_for_what_matters" xlink:title="re&#45;examine spending and carve out more for what matters" target="_parent">
<polygon fill="none" stroke="black" points="1095.5,-281.5 934.5,-281.5 934.5,-228.5 1095.5,-228.5 1095.5,-281.5"/>
<text text-anchor="middle" x="1015" y="-266.3" font-family="Open Sans" font-size="14.00">re&#45;examine spending</text>
<text text-anchor="middle" x="1015" y="-251.3" font-family="Open Sans" font-size="14.00">and carve out more</text>
<text text-anchor="middle" x="1015" y="-236.3" font-family="Open Sans" font-size="14.00">for what matters</text>
</a>
</g>
</g>
<!-- make better\ndecisions -->
<g id="G_node10" class="node"><title>make better\ndecisions</title>
<g id="a_G_node10"><a xlink:href="index.html#make_better_decisions" xlink:title="make better decisions" target="_parent">
<polygon fill="lightgrey" stroke="black" points="1262.5,-274 1161.5,-274 1161.5,-236 1262.5,-236 1262.5,-274"/>
<text text-anchor="middle" x="1212" y="-258.8" font-family="Open Sans" font-size="14.00">make better</text>
<text text-anchor="middle" x="1212" y="-243.8" font-family="Open Sans" font-size="14.00">decisions</text>
</a>
</g>
</g>
<!-- re&#45;examine spending\nand carve out more\nfor what matters&#45;&gt;make better\ndecisions -->
<g id="G_edge7" class="edge"><title>re&#45;examine spending\nand carve out more\nfor what matters&#45;&gt;make better\ndecisions</title>
<path fill="none" stroke="#cccccc" d="M1095.6,-255C1114.17,-255 1133.64,-255 1151.19,-255"/>
<polygon fill="#cccccc" stroke="#cccccc" points="1151.28,-258.5 1161.28,-255 1151.28,-251.5 1151.28,-258.5"/>
</g>
<!-- make better\ndecisions&#45;&gt;live an awesome life -->
<g id="G_edge8" class="edge"><title>make better\ndecisions&#45;&gt;live an awesome life</title>
<path fill="none" stroke="#cccccc" d="M1262.81,-240.693C1283.86,-234.65 1308.78,-227.492 1331.81,-220.878"/>
<polygon fill="#cccccc" stroke="#cccccc" points="1332.9,-224.206 1341.54,-218.081 1330.97,-217.478 1332.9,-224.206"/>
</g>
<!-- Choose parenting\nactivities to\nconsistently attend -->
<g id="G_node11" class="node"><title>Choose parenting\nactivities to\nconsistently attend</title>
<g id="a_G_node11"><a xlink:href="index.html#Choose_parenting_activities_to_consistently_attend" xlink:title="Choose parenting activities to consistently attend" target="_parent">
<polygon fill="none" stroke="black" points="706,-555.5 557,-555.5 557,-502.5 706,-502.5 706,-555.5"/>
<text text-anchor="middle" x="631.5" y="-540.3" font-family="Open Sans" font-size="14.00">Choose parenting</text>
<text text-anchor="middle" x="631.5" y="-525.3" font-family="Open Sans" font-size="14.00">activities to</text>
<text text-anchor="middle" x="631.5" y="-510.3" font-family="Open Sans" font-size="14.00">consistently attend</text>
</a>
</g>
</g>
<!-- learn from people -->
<g id="G_node12" class="node"><title>learn from people</title>
<g id="a_G_node12"><a xlink:href="index.html#learn_from_people" xlink:title="learn from people" target="_parent">
<polygon fill="lightgrey" stroke="black" points="888,-547 751,-547 751,-511 888,-511 888,-547"/>
<text text-anchor="middle" x="819.5" y="-525.3" font-family="Open Sans" font-size="14.00">learn from people</text>
</a>
</g>
</g>
<!-- Choose parenting\nactivities to\nconsistently attend&#45;&gt;learn from people -->
<g id="G_edge9" class="edge"><title>Choose parenting\nactivities to\nconsistently attend&#45;&gt;learn from people</title>
<path fill="none" stroke="#cccccc" d="M706.012,-529C717.479,-529 729.359,-529 740.913,-529"/>
<polygon fill="#cccccc" stroke="#cccccc" points="740.963,-532.5 750.963,-529 740.963,-525.5 740.963,-532.5"/>
</g>
<!-- learn from people&#45;&gt;share useful stuff -->
<g id="G_edge11" class="edge"><title>learn from people&#45;&gt;share useful stuff</title>
<path fill="none" stroke="#cccccc" d="M771.622,-547.054C751.71,-553.808 728.042,-560.65 706,-564 647.918,-572.826 581.449,-572.411 531.292,-570.012"/>
<polygon fill="#cccccc" stroke="#cccccc" points="531.333,-566.51 521.166,-569.49 530.973,-573.5 531.333,-566.51"/>
</g>
<!-- learn from people&#45;&gt;tickle my brain -->
<g id="G_edge12" class="edge"><title>learn from people&#45;&gt;tickle my brain</title>
<path fill="none" stroke="#cccccc" d="M888.177,-529C906.66,-529 926.703,-529 945.246,-529"/>
<polygon fill="#cccccc" stroke="#cccccc" points="945.373,-532.5 955.373,-529 945.373,-525.5 945.373,-532.5"/>
</g>
<!-- Raise A&#45; -->
<g id="G_node13" class="node"><title>Raise A&#45;</title>
<g id="a_G_node13"><a xlink:href="index.html#Raise_A_" xlink:title="Raise A&#45;" target="_parent">
<polygon fill="none" stroke="black" points="668,-484 595,-484 595,-448 668,-448 668,-484"/>
<text text-anchor="middle" x="631.5" y="-462.3" font-family="Open Sans" font-size="14.00">Raise A&#45;</text>
</a>
</g>
</g>
<!-- Raise A&#45;&#45;&gt;learn from people -->
<g id="G_edge10" class="edge"><title>Raise A&#45;&#45;&gt;learn from people</title>
<path fill="none" stroke="#cccccc" d="M668.363,-478.147C693.022,-486.499 726.432,-497.816 755.475,-507.653"/>
<polygon fill="#cccccc" stroke="#cccccc" points="754.543,-511.033 765.138,-510.926 756.789,-504.402 754.543,-511.033"/>
</g>
<!-- practise types of\nrecipes -->
<g id="G_node14" class="node"><title>practise types of\nrecipes</title>
<g id="a_G_node14"><a xlink:href="index.html#practise_types_of_recipes" xlink:title="practise types of recipes" target="_parent">
<polygon fill="lightgrey" stroke="black" points="1080,-210 950,-210 950,-172 1080,-172 1080,-210"/>
<text text-anchor="middle" x="1015" y="-194.8" font-family="Open Sans" font-size="14.00">practise types of</text>
<text text-anchor="middle" x="1015" y="-179.8" font-family="Open Sans" font-size="14.00">recipes</text>
</a>
</g>
</g>
<!-- cook yummy food -->
<g id="G_node15" class="node"><title>cook yummy food</title>
<g id="a_G_node15"><a xlink:href="index.html#cook_yummy_food" xlink:title="cook yummy food" target="_parent">
<polygon fill="lightgrey" stroke="black" points="1280.5,-218 1143.5,-218 1143.5,-182 1280.5,-182 1280.5,-218"/>
<text text-anchor="middle" x="1212" y="-196.3" font-family="Open Sans" font-size="14.00">cook yummy food</text>
</a>
</g>
</g>
<!-- practise types of\nrecipes&#45;&gt;cook yummy food -->
<g id="G_edge13" class="edge"><title>practise types of\nrecipes&#45;&gt;cook yummy food</title>
<path fill="none" stroke="#cccccc" d="M1080.12,-193.959C1097.1,-194.743 1115.62,-195.598 1133.24,-196.411"/>
<polygon fill="#cccccc" stroke="#cccccc" points="1133.34,-199.919 1143.49,-196.884 1133.66,-192.927 1133.34,-199.919"/>
</g>
<!-- cook yummy food&#45;&gt;live an awesome life -->
<g id="G_edge14" class="edge"><title>cook yummy food&#45;&gt;live an awesome life</title>
<path fill="none" stroke="#cccccc" d="M1280.52,-200C1292.21,-200 1304.52,-200 1316.66,-200"/>
<polygon fill="#cccccc" stroke="#cccccc" points="1316.8,-203.5 1326.8,-200 1316.8,-196.5 1316.8,-203.5"/>
</g>
<!-- build good karma&#45;&gt;learn from people -->
<g id="G_edge15" class="edge"><title>build good karma&#45;&gt;learn from people</title>
<path fill="none" stroke="#cccccc" d="M693.04,-430.136C697.662,-432.725 702.055,-435.665 706,-439 730.627,-459.821 717.241,-481.337 742,-502 743.375,-503.148 744.803,-504.248 746.274,-505.303"/>
<polygon fill="#cccccc" stroke="#cccccc" points="744.787,-508.502 755.116,-510.86 748.511,-502.575 744.787,-508.502"/>
</g>
<!-- Build visualizations\nfor baby data -->
<g id="G_node17" class="node"><title>Build visualizations\nfor baby data</title>
<g id="a_G_node17"><a xlink:href="index.html#Build_visualizations_for_baby_data" xlink:title="Build visualizations for baby data" target="_parent">
<polygon fill="none" stroke="black" points="151.5,-627 2.5,-627 2.5,-589 151.5,-589 151.5,-627"/>
<text text-anchor="middle" x="77" y="-611.8" font-family="Open Sans" font-size="14.00">Build visualizations</text>
<text text-anchor="middle" x="77" y="-596.8" font-family="Open Sans" font-size="14.00">for baby data</text>
</a>
</g>
</g>
<!-- improve my coding\nskills -->
<g id="G_node18" class="node"><title>improve my coding\nskills</title>
<g id="a_G_node18"><a xlink:href="index.html#improve_my_coding_skills" xlink:title="improve my coding skills" target="_parent">
<polygon fill="lightgrey" stroke="black" points="342,-621 196,-621 196,-583 342,-583 342,-621"/>
<text text-anchor="middle" x="269" y="-605.8" font-family="Open Sans" font-size="14.00">improve my coding</text>
<text text-anchor="middle" x="269" y="-590.8" font-family="Open Sans" font-size="14.00">skills</text>
</a>
</g>
</g>
<!-- Build visualizations\nfor baby data&#45;&gt;improve my coding\nskills -->
<g id="G_edge16" class="edge"><title>Build visualizations\nfor baby data&#45;&gt;improve my coding\nskills</title>
<path fill="none" stroke="#cccccc" d="M151.731,-605.672C162.832,-605.321 174.341,-604.958 185.61,-604.602"/>
<polygon fill="#cccccc" stroke="#cccccc" points="185.988,-608.092 195.872,-604.278 185.767,-601.095 185.988,-608.092"/>
</g>
<!-- improve my coding\nskills&#45;&gt;share useful stuff -->
<g id="G_edge17" class="edge"><title>improve my coding\nskills&#45;&gt;share useful stuff</title>
<path fill="none" stroke="#cccccc" d="M342.255,-586.872C352.668,-584.692 363.421,-582.441 373.932,-580.24"/>
<polygon fill="#cccccc" stroke="#cccccc" points="374.847,-583.625 383.917,-578.15 373.412,-576.773 374.847,-583.625"/>
</g>
<!-- Make it to another\nyear of daily\njournal drawing -->
<g id="G_node19" class="node"><title>Make it to another\nyear of daily\njournal drawing</title>
<g id="a_G_node19"><a xlink:href="index.html#Make_it_to_another_year_of_daily_journal_drawing" xlink:title="Make it to another year of daily journal drawing" target="_parent">
<polygon fill="none" stroke="black" points="149.5,-570.5 4.5,-570.5 4.5,-517.5 149.5,-517.5 149.5,-570.5"/>
<text text-anchor="middle" x="77" y="-555.3" font-family="Open Sans" font-size="14.00">Make it to another</text>
<text text-anchor="middle" x="77" y="-540.3" font-family="Open Sans" font-size="14.00">year of daily</text>
<text text-anchor="middle" x="77" y="-525.3" font-family="Open Sans" font-size="14.00">journal drawing</text>
</a>
</g>
</g>
<!-- improve my drawing\nskills -->
<g id="G_node20" class="node"><title>improve my drawing\nskills</title>
<g id="a_G_node20"><a xlink:href="index.html#improve_my_drawing_skills" xlink:title="improve my drawing skills" target="_parent">
<polygon fill="lightgrey" stroke="black" points="348,-564 190,-564 190,-526 348,-526 348,-564"/>
<text text-anchor="middle" x="269" y="-548.8" font-family="Open Sans" font-size="14.00">improve my drawing</text>
<text text-anchor="middle" x="269" y="-533.8" font-family="Open Sans" font-size="14.00">skills</text>
</a>
</g>
</g>
<!-- Make it to another\nyear of daily\njournal drawing&#45;&gt;improve my drawing\nskills -->
<g id="G_edge18" class="edge"><title>Make it to another\nyear of daily\njournal drawing&#45;&gt;improve my drawing\nskills</title>
<path fill="none" stroke="#cccccc" d="M149.56,-544.377C159.422,-544.429 169.643,-544.482 179.762,-544.536"/>
<polygon fill="#cccccc" stroke="#cccccc" points="179.811,-548.036 189.829,-544.589 179.848,-541.036 179.811,-548.036"/>
</g>
<!-- improve my drawing\nskills&#45;&gt;share useful stuff -->
<g id="G_edge19" class="edge"><title>improve my drawing\nskills&#45;&gt;share useful stuff</title>
<path fill="none" stroke="#cccccc" d="M348.026,-553.168C356.589,-554.064 365.306,-554.977 373.864,-555.873"/>
<polygon fill="#cccccc" stroke="#cccccc" points="373.509,-559.355 383.819,-556.915 374.238,-552.393 373.509,-559.355"/>
</g>
<!-- harvest my backlog\nof notes -->
<g id="G_node21" class="node"><title>harvest my backlog\nof notes</title>
<g id="a_G_node21"><a xlink:href="index.html#harvest_my_backlog_of_notes" xlink:title="harvest my backlog of notes" target="_parent">
<polygon fill="none" stroke="black" points="152.5,-499 1.5,-499 1.5,-461 152.5,-461 152.5,-499"/>
<text text-anchor="middle" x="77" y="-483.8" font-family="Open Sans" font-size="14.00">harvest my backlog</text>
<text text-anchor="middle" x="77" y="-468.8" font-family="Open Sans" font-size="14.00">of notes</text>
</a>
</g>
</g>
<!-- improve my sharing\nskills -->
<g id="G_node22" class="node"><title>improve my sharing\nskills</title>
<g id="a_G_node22"><a xlink:href="index.html#improve_my_sharing_skills" xlink:title="improve my sharing skills" target="_parent">
<polygon fill="lightgrey" stroke="black" points="345.5,-504 192.5,-504 192.5,-466 345.5,-466 345.5,-504"/>
<text text-anchor="middle" x="269" y="-488.8" font-family="Open Sans" font-size="14.00">improve my sharing</text>
<text text-anchor="middle" x="269" y="-473.8" font-family="Open Sans" font-size="14.00">skills</text>
</a>
</g>
</g>
<!-- harvest my backlog\nof notes&#45;&gt;improve my sharing\nskills -->
<g id="G_edge20" class="edge"><title>harvest my backlog\nof notes&#45;&gt;improve my sharing\nskills</title>
<path fill="none" stroke="#cccccc" d="M152.548,-481.962C162.27,-482.218 172.292,-482.481 182.181,-482.742"/>
<polygon fill="#cccccc" stroke="#cccccc" points="182.33,-486.247 192.419,-483.011 182.514,-479.249 182.33,-486.247"/>
</g>
<!-- improve my sharing\nskills&#45;&gt;share useful stuff -->
<g id="G_edge21" class="edge"><title>improve my sharing\nskills&#45;&gt;share useful stuff</title>
<path fill="none" stroke="#cccccc" d="M317.139,-504.011C327.345,-508.218 338.057,-512.704 348,-517 366.037,-524.792 385.699,-533.632 402.994,-541.527"/>
<polygon fill="#cccccc" stroke="#cccccc" points="401.785,-544.822 412.334,-545.803 404.698,-538.457 401.785,-544.822"/>
</g>
<!-- develop my analysis\nskills -->
<g id="G_node23" class="node"><title>develop my analysis\nskills</title>
<g id="a_G_node23"><a xlink:href="index.html#develop_my_analysis_skills" xlink:title="develop my analysis skills" target="_parent">
<polygon fill="lightgrey" stroke="black" points="897,-493 742,-493 742,-455 897,-455 897,-493"/>
<text text-anchor="middle" x="819.5" y="-477.8" font-family="Open Sans" font-size="14.00">develop my analysis</text>
<text text-anchor="middle" x="819.5" y="-462.8" font-family="Open Sans" font-size="14.00">skills</text>
</a>
</g>
</g>
<!-- develop my analysis\nskills&#45;&gt;tickle my brain -->
<g id="G_edge24" class="edge"><title>develop my analysis\nskills&#45;&gt;tickle my brain</title>
<path fill="none" stroke="#cccccc" d="M887.363,-493.005C906.153,-498.346 926.612,-504.161 945.497,-509.529"/>
<polygon fill="#cccccc" stroke="#cccccc" points="944.636,-512.923 955.212,-512.29 946.55,-506.189 944.636,-512.923"/>
</g>
<!-- cultivate equanimity -->
<g id="G_node24" class="node"><title>cultivate equanimity</title>
<g id="a_G_node24"><a xlink:href="index.html#cultivate_equanimity" xlink:title="cultivate equanimity" target="_parent">
<polygon fill="lightgrey" stroke="black" points="1291,-164 1133,-164 1133,-128 1291,-128 1291,-164"/>
<text text-anchor="middle" x="1212" y="-142.3" font-family="Open Sans" font-size="14.00">cultivate equanimity</text>
</a>
</g>
</g>
<!-- cultivate equanimity&#45;&gt;live an awesome life -->
<g id="G_edge28" class="edge"><title>cultivate equanimity&#45;&gt;live an awesome life</title>
<path fill="none" stroke="#cccccc" d="M1277.03,-164.056C1294.28,-168.92 1313.08,-174.22 1330.8,-179.219"/>
<polygon fill="#cccccc" stroke="#cccccc" points="1329.95,-182.615 1340.53,-181.961 1331.85,-175.878 1329.95,-182.615"/>
</g>
<!-- do a 5&#45;year\nexperiment in\nself&#45;directed living -->
<g id="G_node25" class="node"><title>do a 5&#45;year\nexperiment in\nself&#45;directed living</title>
<g id="a_G_node25"><a xlink:href="index.html#do_a_5_year_experiment_in_self_directed_living" xlink:title="do a 5&#45;year experiment in self&#45;directed living" target="_parent">
<polygon fill="none" stroke="black" points="1282.5,-109.5 1141.5,-109.5 1141.5,-56.5 1282.5,-56.5 1282.5,-109.5"/>
<text text-anchor="middle" x="1212" y="-94.3" font-family="Open Sans" font-size="14.00">do a 5&#45;year</text>
<text text-anchor="middle" x="1212" y="-79.3" font-family="Open Sans" font-size="14.00">experiment in</text>
<text text-anchor="middle" x="1212" y="-64.3" font-family="Open Sans" font-size="14.00">self&#45;directed living</text>
</a>
</g>
</g>
<!-- do a 5&#45;year\nexperiment in\nself&#45;directed living&#45;&gt;live an awesome life -->
<g id="G_edge29" class="edge"><title>do a 5&#45;year\nexperiment in\nself&#45;directed living&#45;&gt;live an awesome life</title>
<path fill="none" stroke="#cccccc" d="M1273.62,-109.606C1279.57,-112.625 1285.45,-115.779 1291,-119 1320.33,-136.032 1351.55,-158.682 1373.81,-175.699"/>
<polygon fill="#cccccc" stroke="#cccccc" points="1371.82,-178.587 1381.88,-181.922 1376.1,-173.044 1371.82,-178.587"/>
</g>
<!-- Get used to\nbabyweight exercises -->
<g id="G_node26" class="node"><title>Get used to\nbabyweight exercises</title>
<g id="a_G_node26"><a xlink:href="index.html#Get_used_to_babyweight_exercises" xlink:title="Get used to babyweight exercises" target="_parent">
<polygon fill="none" stroke="black" points="1097,-38 933,-38 933,-0 1097,-0 1097,-38"/>
<text text-anchor="middle" x="1015" y="-22.8" font-family="Open Sans" font-size="14.00">Get used to</text>
<text text-anchor="middle" x="1015" y="-7.8" font-family="Open Sans" font-size="14.00">babyweight exercises</text>
</a>
</g>
</g>
<!-- maintain or improve\nmy health -->
<g id="G_node27" class="node"><title>maintain or improve\nmy health</title>
<g id="a_G_node27"><a xlink:href="index.html#maintain_or_improve_my_health" xlink:title="maintain or improve my health" target="_parent">
<polygon fill="lightgrey" stroke="black" points="1290,-38 1134,-38 1134,-0 1290,-0 1290,-38"/>
<text text-anchor="middle" x="1212" y="-22.8" font-family="Open Sans" font-size="14.00">maintain or improve</text>
<text text-anchor="middle" x="1212" y="-7.8" font-family="Open Sans" font-size="14.00">my health</text>
</a>
</g>
</g>
<!-- Get used to\nbabyweight exercises&#45;&gt;maintain or improve\nmy health -->
<g id="G_edge30" class="edge"><title>Get used to\nbabyweight exercises&#45;&gt;maintain or improve\nmy health</title>
<path fill="none" stroke="#cccccc" d="M1097,-19C1105.73,-19 1114.63,-19 1123.43,-19"/>
<polygon fill="#cccccc" stroke="#cccccc" points="1123.69,-22.5001 1133.69,-19 1123.69,-15.5001 1123.69,-22.5001"/>
</g>
<!-- maintain or improve\nmy health&#45;&gt;live an awesome life -->
<g id="G_edge31" class="edge"><title>maintain or improve\nmy health&#45;&gt;live an awesome life</title>
<path fill="none" stroke="#cccccc" d="M1276.41,-38.0388C1281.55,-40.6799 1286.49,-43.6553 1291,-47 1337,-81.1476 1372.71,-139.131 1391,-173.061"/>
<polygon fill="#cccccc" stroke="#cccccc" points="1387.93,-174.741 1395.69,-181.954 1394.12,-171.476 1387.93,-174.741"/>
</g>
</g>
</svg>
