<?xml version="1.0" encoding="UTF-8" standalone="no"?>
<!DOCTYPE svg PUBLIC "-//W3C//DTD SVG 1.1//EN"
 "http://www.w3.org/Graphics/SVG/1.1/DTD/svg11.dtd">
<!-- Generated by graphviz version 2.36.0 (20140111.2315)
 -->
<!-- Title: G Pages: 1 -->
<svg width="800pt" height="454pt"
 viewBox="0.00 0.00 800.00 453.83" xmlns="http://www.w3.org/2000/svg" xmlns:xlink="http://www.w3.org/1999/xlink">
<g id="G" class="graph" transform="scale(0.522876 0.522876) rotate(0) translate(4 863.946)">
<title>G</title>
<polygon fill="white" stroke="none" points="-4,4 -4,-863.946 1526,-863.946 1526,4 -4,4"/>
<!-- set up regular Emacs\nhangouts -->
<g id="G_node1" class="node"><title>set up regular Emacs\nhangouts</title>
<g id="a_G_node1"><a xlink:href="#set_up_regular_Emacs_hangouts" xlink:title="set up regular Emacs hangouts">
<polygon fill="none" stroke="black" points="160,-760 2,-760 2,-722 160,-722 160,-760"/>
<text text-anchor="middle" x="81" y="-744.8" font-family="Open Sans" font-size="14.00">set up regular Emacs</text>
<text text-anchor="middle" x="81" y="-729.8" font-family="Open Sans" font-size="14.00">hangouts</text>
</a>
</g>
</g>
<!-- help the Emacs\ncommunity grow -->
<g id="G_node2" class="node"><title>help the Emacs\ncommunity grow</title>
<g id="a_G_node2"><a xlink:href="#help_the_Emacs_community_grow" xlink:title="help the Emacs community grow">
<polygon fill="lightgrey" stroke="black" points="341,-747 211,-747 211,-709 341,-709 341,-747"/>
<text text-anchor="middle" x="276" y="-731.8" font-family="Open Sans" font-size="14.00">help the Emacs</text>
<text text-anchor="middle" x="276" y="-716.8" font-family="Open Sans" font-size="14.00">community grow</text>
</a>
</g>
</g>
<!-- set up regular Emacs\nhangouts&#45;&gt;help the Emacs\ncommunity grow -->
<g id="G_edge1" class="edge"><title>set up regular Emacs\nhangouts&#45;&gt;help the Emacs\ncommunity grow</title>
<path fill="none" stroke="#cccccc" d="M160.222,-735.731C173.628,-734.828 187.522,-733.892 200.819,-732.997"/>
<polygon fill="#cccccc" stroke="#cccccc" points="201.109,-736.485 210.852,-732.321 200.639,-729.501 201.109,-736.485"/>
</g>
<!-- share useful stuff -->
<g id="G_node3" class="node"><title>share useful stuff</title>
<g id="a_G_node3"><a xlink:href="#share_useful_stuff" xlink:title="share useful stuff">
<polygon fill="lightgrey" stroke="black" points="533,-580 399,-580 399,-544 533,-544 533,-580"/>
<text text-anchor="middle" x="466" y="-558.3" font-family="Open Sans" font-size="14.00">share useful stuff</text>
</a>
</g>
</g>
<!-- help the Emacs\ncommunity grow&#45;&gt;share useful stuff -->
<g id="G_edge2" class="edge"><title>help the Emacs\ncommunity grow&#45;&gt;share useful stuff</title>
<path fill="none" stroke="#cccccc" d="M298.566,-708.958C332.692,-678.825 399.138,-620.155 436.934,-586.782"/>
<polygon fill="#cccccc" stroke="#cccccc" points="439.363,-589.306 444.542,-580.064 434.73,-584.059 439.363,-589.306"/>
</g>
<!-- tickle my brain -->
<g id="G_node4" class="node"><title>tickle my brain</title>
<g id="a_G_node4"><a xlink:href="#tickle_my_brain" xlink:title="tickle my brain">
<polygon fill="lightgrey" stroke="black" points="1108,-543 992,-543 992,-507 1108,-507 1108,-543"/>
<text text-anchor="middle" x="1050" y="-521.3" font-family="Open Sans" font-size="14.00">tickle my brain</text>
</a>
</g>
</g>
<!-- help the Emacs\ncommunity grow&#45;&gt;tickle my brain -->
<g id="G_edge3" class="edge"><title>help the Emacs\ncommunity grow&#45;&gt;tickle my brain</title>
<path fill="none" stroke="#cccccc" d="M288.636,-747.399C306.45,-774.971 343.373,-824.328 390,-844 452.243,-870.261 475.967,-858.263 542,-844 726.388,-804.174 801.099,-802.11 924,-659 956.69,-620.935 923.993,-586.943 960,-552 966.398,-545.791 974.177,-541.004 982.444,-537.315"/>
<polygon fill="#cccccc" stroke="#cccccc" points="983.9,-540.503 991.936,-533.599 981.348,-533.985 983.9,-540.503"/>
</g>
<!-- get more value from\nmy time -->
<g id="G_node6" class="node"><title>get more value from\nmy time</title>
<g id="a_G_node6"><a xlink:href="#get_more_value_from_my_time" xlink:title="get more value from my time">
<polygon fill="lightgrey" stroke="black" points="1331,-447 1177,-447 1177,-409 1331,-409 1331,-447"/>
<text text-anchor="middle" x="1254" y="-431.8" font-family="Open Sans" font-size="14.00">get more value from</text>
<text text-anchor="middle" x="1254" y="-416.8" font-family="Open Sans" font-size="14.00">my time</text>
</a>
</g>
</g>
<!-- share useful stuff&#45;&gt;get more value from\nmy time -->
<g id="G_edge27" class="edge"><title>share useful stuff&#45;&gt;get more value from\nmy time</title>
<path fill="none" stroke="#cccccc" d="M480.337,-543.726C499.066,-519.729 535.65,-478.585 578,-461 681.976,-417.827 1009.4,-420.838 1166.82,-425.052"/>
<polygon fill="#cccccc" stroke="#cccccc" points="1166.84,-428.554 1176.94,-425.331 1167.04,-421.556 1166.84,-428.554"/>
</g>
<!-- build good karma -->
<g id="G_node21" class="node"><title>build good karma</title>
<g id="a_G_node21"><a xlink:href="#build_good_karma" xlink:title="build good karma">
<polygon fill="lightgrey" stroke="black" points="723.5,-640 588.5,-640 588.5,-604 723.5,-604 723.5,-640"/>
<text text-anchor="middle" x="656" y="-618.3" font-family="Open Sans" font-size="14.00">build good karma</text>
</a>
</g>
</g>
<!-- share useful stuff&#45;&gt;build good karma -->
<g id="G_edge28" class="edge"><title>share useful stuff&#45;&gt;build good karma</title>
<path fill="none" stroke="#cccccc" d="M523.406,-580.002C543.947,-586.557 567.355,-594.028 588.677,-600.833"/>
<polygon fill="#cccccc" stroke="#cccccc" points="587.718,-604.201 598.309,-603.907 589.847,-597.532 587.718,-604.201"/>
</g>
<!-- tickle my brain&#45;&gt;share useful stuff -->
<g id="G_edge30" class="edge"><title>tickle my brain&#45;&gt;share useful stuff</title>
<path fill="none" stroke="#cccccc" d="M993.481,-506.908C903.852,-480.631 722.698,-439.725 578,-485 545.45,-495.185 514.062,-518.645 493.019,-537.012"/>
<polygon fill="#cccccc" stroke="#cccccc" points="490.595,-534.485 485.48,-543.764 495.265,-539.7 490.595,-534.485"/>
</g>
<!-- tickle my brain&#45;&gt;get more value from\nmy time -->
<g id="G_edge31" class="edge"><title>tickle my brain&#45;&gt;get more value from\nmy time</title>
<path fill="none" stroke="#cccccc" d="M1088.52,-506.982C1121.09,-491.341 1168.48,-468.586 1204.03,-451.514"/>
<polygon fill="#cccccc" stroke="#cccccc" points="1205.76,-454.566 1213.26,-447.082 1202.73,-448.256 1205.76,-454.566"/>
</g>
<!-- delegate more\neffectively -->
<g id="G_node5" class="node"><title>delegate more\neffectively</title>
<g id="a_G_node5"><a xlink:href="#delegate_more_effectively" xlink:title="delegate more effectively">
<polygon fill="lightgrey" stroke="black" points="1107.5,-400 992.5,-400 992.5,-362 1107.5,-362 1107.5,-400"/>
<text text-anchor="middle" x="1050" y="-384.8" font-family="Open Sans" font-size="14.00">delegate more</text>
<text text-anchor="middle" x="1050" y="-369.8" font-family="Open Sans" font-size="14.00">effectively</text>
</a>
</g>
</g>
<!-- delegate more\neffectively&#45;&gt;get more value from\nmy time -->
<g id="G_edge4" class="edge"><title>delegate more\neffectively&#45;&gt;get more value from\nmy time</title>
<path fill="none" stroke="#cccccc" d="M1107.54,-394.155C1125.99,-398.449 1146.92,-403.319 1167.04,-407.999"/>
<polygon fill="#cccccc" stroke="#cccccc" points="1166.3,-411.421 1176.83,-410.278 1167.89,-404.603 1166.3,-411.421"/>
</g>
<!-- live an awesome life -->
<g id="G_node8" class="node"><title>live an awesome life</title>
<g id="a_G_node8"><a xlink:href="#live_an_awesome_life" xlink:title="live an awesome life">
<polygon fill="lightgrey" stroke="black" points="1521.5,-219 1368.5,-219 1368.5,-183 1521.5,-183 1521.5,-219"/>
<text text-anchor="middle" x="1445" y="-197.3" font-family="Open Sans" font-size="14.00">live an awesome life</text>
</a>
</g>
</g>
<!-- get more value from\nmy time&#45;&gt;live an awesome life -->
<g id="G_edge6" class="edge"><title>get more value from\nmy time&#45;&gt;live an awesome life</title>
<path fill="none" stroke="#cccccc" d="M1273.12,-408.755C1288.98,-391.743 1312.46,-366.11 1332,-343 1365.4,-303.504 1402.19,-256.037 1424.18,-227.214"/>
<polygon fill="#cccccc" stroke="#cccccc" points="1426.97,-229.326 1430.24,-219.249 1421.4,-225.087 1426.97,-229.326"/>
</g>
<!-- create\nsyntopicon/bibliography -->
<g id="G_node7" class="node"><title>create\nsyntopicon/bibliography</title>
<g id="a_G_node7"><a xlink:href="#create_syntopicon_bibliography" xlink:title="create syntopicon/bibliography">
<polygon fill="none" stroke="black" points="1140,-599 960,-599 960,-561 1140,-561 1140,-599"/>
<text text-anchor="middle" x="1050" y="-583.8" font-family="Open Sans" font-size="14.00">create</text>
<text text-anchor="middle" x="1050" y="-568.8" font-family="Open Sans" font-size="14.00">syntopicon/bibliography</text>
</a>
</g>
</g>
<!-- create\nsyntopicon/bibliography&#45;&gt;get more value from\nmy time -->
<g id="G_edge5" class="edge"><title>create\nsyntopicon/bibliography&#45;&gt;get more value from\nmy time</title>
<path fill="none" stroke="#cccccc" d="M1123.41,-560.874C1129.2,-558.259 1134.81,-555.313 1140,-552 1179.82,-526.572 1214.55,-483.579 1234.65,-455.493"/>
<polygon fill="#cccccc" stroke="#cccccc" points="1237.53,-457.486 1240.41,-447.291 1231.8,-453.465 1237.53,-457.486"/>
</g>
<!-- re&#45;examine spending\nand carve out more\nfor what matters -->
<g id="G_node9" class="node"><title>re&#45;examine spending\nand carve out more\nfor what matters</title>
<g id="a_G_node9"><a xlink:href="#re_examine_spending_and_carve_out_more_for_what_matters" xlink:title="re&#45;examine spending and carve out more for what matters">
<polygon fill="none" stroke="black" points="1130,-343.5 970,-343.5 970,-290.5 1130,-290.5 1130,-343.5"/>
<text text-anchor="middle" x="1050" y="-328.3" font-family="Open Sans" font-size="14.00">re&#45;examine spending</text>
<text text-anchor="middle" x="1050" y="-313.3" font-family="Open Sans" font-size="14.00">and carve out more</text>
<text text-anchor="middle" x="1050" y="-298.3" font-family="Open Sans" font-size="14.00">for what matters</text>
</a>
</g>
</g>
<!-- make better\ndecisions -->
<g id="G_node10" class="node"><title>make better\ndecisions</title>
<g id="a_G_node10"><a xlink:href="#make_better_decisions" xlink:title="make better decisions">
<polygon fill="lightgrey" stroke="black" points="1304,-334 1204,-334 1204,-296 1304,-296 1304,-334"/>
<text text-anchor="middle" x="1254" y="-318.8" font-family="Open Sans" font-size="14.00">make better</text>
<text text-anchor="middle" x="1254" y="-303.8" font-family="Open Sans" font-size="14.00">decisions</text>
</a>
</g>
</g>
<!-- re&#45;examine spending\nand carve out more\nfor what matters&#45;&gt;make better\ndecisions -->
<g id="G_edge7" class="edge"><title>re&#45;examine spending\nand carve out more\nfor what matters&#45;&gt;make better\ndecisions</title>
<path fill="none" stroke="#cccccc" d="M1130.26,-316.215C1151.43,-316.006 1173.95,-315.783 1193.84,-315.586"/>
<polygon fill="#cccccc" stroke="#cccccc" points="1194.01,-319.084 1203.98,-315.485 1193.94,-312.085 1194.01,-319.084"/>
</g>
<!-- make better\ndecisions&#45;&gt;live an awesome life -->
<g id="G_edge8" class="edge"><title>make better\ndecisions&#45;&gt;live an awesome life</title>
<path fill="none" stroke="#cccccc" d="M1304.3,-296.567C1313.69,-292.486 1323.3,-287.902 1332,-283 1361.6,-266.327 1392.57,-243.147 1414.42,-225.685"/>
<polygon fill="#cccccc" stroke="#cccccc" points="1416.75,-228.305 1422.33,-219.298 1412.35,-222.86 1416.75,-228.305"/>
</g>
<!-- develop a 4+&#45;month\nhabit of frequent\nmessages to parents -->
<g id="G_node11" class="node"><title>develop a 4+&#45;month\nhabit of frequent\nmessages to parents</title>
<g id="a_G_node11"><a xlink:href="#develop_a_4__month_habit_of_frequent_messages_to_parents" xlink:title="develop a 4+&#45;month habit of frequent messages to parents">
<polygon fill="none" stroke="black" points="734,-547.5 578,-547.5 578,-494.5 734,-494.5 734,-547.5"/>
<text text-anchor="middle" x="656" y="-532.3" font-family="Open Sans" font-size="14.00">develop a 4+&#45;month</text>
<text text-anchor="middle" x="656" y="-517.3" font-family="Open Sans" font-size="14.00">habit of frequent</text>
<text text-anchor="middle" x="656" y="-502.3" font-family="Open Sans" font-size="14.00">messages to parents</text>
</a>
</g>
</g>
<!-- learn from people -->
<g id="G_node12" class="node"><title>learn from people</title>
<g id="a_G_node12"><a xlink:href="#learn_from_people" xlink:title="learn from people">
<polygon fill="lightgrey" stroke="black" points="916,-594 778,-594 778,-558 916,-558 916,-594"/>
<text text-anchor="middle" x="847" y="-572.3" font-family="Open Sans" font-size="14.00">learn from people</text>
</a>
</g>
</g>
<!-- develop a 4+&#45;month\nhabit of frequent\nmessages to parents&#45;&gt;learn from people -->
<g id="G_edge9" class="edge"><title>develop a 4+&#45;month\nhabit of frequent\nmessages to parents&#45;&gt;learn from people</title>
<path fill="none" stroke="#cccccc" d="M734.146,-543.45C747.404,-547.308 761.134,-551.304 774.244,-555.118"/>
<polygon fill="#cccccc" stroke="#cccccc" points="773.549,-558.562 784.129,-557.995 775.505,-551.84 773.549,-558.562"/>
</g>
<!-- learn from people&#45;&gt;share useful stuff -->
<g id="G_edge15" class="edge"><title>learn from people&#45;&gt;share useful stuff</title>
<path fill="none" stroke="#cccccc" d="M777.866,-573.483C711.871,-571.045 611.971,-567.355 543.332,-564.82"/>
<polygon fill="#cccccc" stroke="#cccccc" points="543.139,-561.31 533.017,-564.439 542.881,-568.305 543.139,-561.31"/>
</g>
<!-- learn from people&#45;&gt;tickle my brain -->
<g id="G_edge16" class="edge"><title>learn from people&#45;&gt;tickle my brain</title>
<path fill="none" stroke="#cccccc" d="M916.049,-558.734C937.286,-553.345 960.689,-547.407 981.863,-542.035"/>
<polygon fill="#cccccc" stroke="#cccccc" points="982.906,-545.381 991.738,-539.529 981.184,-538.596 982.906,-545.381"/>
</g>
<!-- host another 10\nepisodes of Emacs\nChats or hangouts -->
<g id="G_node13" class="node"><title>host another 10\nepisodes of Emacs\nChats or hangouts</title>
<g id="a_G_node13"><a xlink:href="#host_another_10_episodes_of_Emacs_Chats_or_hangouts" xlink:title="host another 10 episodes of Emacs Chats or hangouts">
<polygon fill="none" stroke="black" points="151,-703.5 11,-703.5 11,-650.5 151,-650.5 151,-703.5"/>
<text text-anchor="middle" x="81" y="-688.3" font-family="Open Sans" font-size="14.00">host another 10</text>
<text text-anchor="middle" x="81" y="-673.3" font-family="Open Sans" font-size="14.00">episodes of Emacs</text>
<text text-anchor="middle" x="81" y="-658.3" font-family="Open Sans" font-size="14.00">Chats or hangouts</text>
</a>
</g>
</g>
<!-- host another 10\nepisodes of Emacs\nChats or hangouts&#45;&gt;help the Emacs\ncommunity grow -->
<g id="G_edge10" class="edge"><title>host another 10\nepisodes of Emacs\nChats or hangouts&#45;&gt;help the Emacs\ncommunity grow</title>
<path fill="none" stroke="#cccccc" d="M151.132,-695.268C167.255,-699.529 184.489,-704.083 200.821,-708.398"/>
<polygon fill="#cccccc" stroke="#cccccc" points="200.293,-711.879 210.855,-711.05 202.081,-705.111 200.293,-711.879"/>
</g>
<!-- host another 10\nepisodes of Emacs\nChats or hangouts&#45;&gt;learn from people -->
<g id="G_edge11" class="edge"><title>host another 10\nepisodes of Emacs\nChats or hangouts&#45;&gt;learn from people</title>
<path fill="none" stroke="#cccccc" d="M151.167,-677.281C308.446,-677.457 683.24,-675.094 734,-649 757.089,-637.131 748.932,-618.17 770,-603 771.893,-601.637 773.861,-600.337 775.887,-599.098"/>
<polygon fill="#cccccc" stroke="#cccccc" points="778.003,-601.929 785.082,-594.046 774.632,-595.794 778.003,-601.929"/>
</g>
<!-- Japanese: Complete\nAnki decks for\nJP&#45;2000 -->
<g id="G_node14" class="node"><title>Japanese: Complete\nAnki decks for\nJP&#45;2000</title>
<g id="a_G_node14"><a xlink:href="#Japanese__Complete_Anki_decks_for_JP_2000" xlink:title="Japanese: Complete Anki decks for JP&#45;2000">
<polygon fill="none" stroke="black" points="541.5,-835.5 390.5,-835.5 390.5,-782.5 541.5,-782.5 541.5,-835.5"/>
<text text-anchor="middle" x="466" y="-820.3" font-family="Open Sans" font-size="14.00">Japanese: Complete</text>
<text text-anchor="middle" x="466" y="-805.3" font-family="Open Sans" font-size="14.00">Anki decks for</text>
<text text-anchor="middle" x="466" y="-790.3" font-family="Open Sans" font-size="14.00">JP&#45;2000</text>
</a>
</g>
</g>
<!-- learn Japanese -->
<g id="G_node15" class="node"><title>learn Japanese</title>
<g id="a_G_node15"><a xlink:href="#learn_Japanese" xlink:title="learn Japanese">
<polygon fill="none" stroke="black" points="714.5,-748 597.5,-748 597.5,-712 714.5,-712 714.5,-748"/>
<text text-anchor="middle" x="656" y="-726.3" font-family="Open Sans" font-size="14.00">learn Japanese</text>
</a>
</g>
</g>
<!-- Japanese: Complete\nAnki decks for\nJP&#45;2000&#45;&gt;learn Japanese -->
<g id="G_edge12" class="edge"><title>Japanese: Complete\nAnki decks for\nJP&#45;2000&#45;&gt;learn Japanese</title>
<path fill="none" stroke="#cccccc" d="M529.601,-782.694C553.247,-772.758 579.889,-761.563 602.514,-752.055"/>
<polygon fill="#cccccc" stroke="#cccccc" points="604.081,-755.193 611.945,-748.092 601.369,-748.74 604.081,-755.193"/>
</g>
<!-- learn Japanese&#45;&gt;learn from people -->
<g id="G_edge14" class="edge"><title>learn Japanese&#45;&gt;learn from people</title>
<path fill="none" stroke="#cccccc" d="M695.561,-711.897C709.022,-704.148 723.399,-694.075 734,-682 759.456,-653.004 741.566,-629.082 770,-603 771.129,-601.965 772.3,-600.969 773.507,-600.01"/>
<polygon fill="#cccccc" stroke="#cccccc" points="775.683,-602.762 781.948,-594.217 771.722,-596.99 775.683,-602.762"/>
</g>
<!-- work through the\nJapanese language\nbooks we have at\nhome -->
<g id="G_node16" class="node"><title>work through the\nJapanese language\nbooks we have at\nhome</title>
<g id="a_G_node16"><a xlink:href="#work_through_the_Japanese_language_books_we_have_at_home" xlink:title="work through the Japanese language books we have at home">
<polygon fill="none" stroke="black" points="537.5,-764 394.5,-764 394.5,-696 537.5,-696 537.5,-764"/>
<text text-anchor="middle" x="466" y="-748.8" font-family="Open Sans" font-size="14.00">work through the</text>
<text text-anchor="middle" x="466" y="-733.8" font-family="Open Sans" font-size="14.00">Japanese language</text>
<text text-anchor="middle" x="466" y="-718.8" font-family="Open Sans" font-size="14.00">books we have at</text>
<text text-anchor="middle" x="466" y="-703.8" font-family="Open Sans" font-size="14.00">home</text>
</a>
</g>
</g>
<!-- work through the\nJapanese language\nbooks we have at\nhome&#45;&gt;learn Japanese -->
<g id="G_edge13" class="edge"><title>work through the\nJapanese language\nbooks we have at\nhome&#45;&gt;learn Japanese</title>
<path fill="none" stroke="#cccccc" d="M537.539,-730C553.693,-730 570.834,-730 586.883,-730"/>
<polygon fill="#cccccc" stroke="#cccccc" points="587.251,-733.5 597.251,-730 587.251,-726.5 587.251,-733.5"/>
</g>
<!-- develop a habit of\ncooking with lots of\nvegetables (CSA&#45;like\nvolume) -->
<g id="G_node17" class="node"><title>develop a habit of\ncooking with lots of\nvegetables (CSA&#45;like\nvolume)</title>
<g id="a_G_node17"><a xlink:href="#develop_a_habit_of_cooking_with_lots_of_vegetables__CSA_like_volume_" xlink:title="develop a habit of cooking with lots of vegetables (CSA&#45;like volume)">
<polygon fill="none" stroke="black" points="1125.5,-216 974.5,-216 974.5,-148 1125.5,-148 1125.5,-216"/>
<text text-anchor="middle" x="1050" y="-200.8" font-family="Open Sans" font-size="14.00">develop a habit of</text>
<text text-anchor="middle" x="1050" y="-185.8" font-family="Open Sans" font-size="14.00">cooking with lots of</text>
<text text-anchor="middle" x="1050" y="-170.8" font-family="Open Sans" font-size="14.00">vegetables (CSA&#45;like</text>
<text text-anchor="middle" x="1050" y="-155.8" font-family="Open Sans" font-size="14.00">volume)</text>
</a>
</g>
</g>
<!-- cook yummy food -->
<g id="G_node18" class="node"><title>cook yummy food</title>
<g id="a_G_node18"><a xlink:href="#cook_yummy_food" xlink:title="cook yummy food">
<polygon fill="lightgrey" stroke="black" points="1322,-274 1186,-274 1186,-238 1322,-238 1322,-274"/>
<text text-anchor="middle" x="1254" y="-252.3" font-family="Open Sans" font-size="14.00">cook yummy food</text>
</a>
</g>
</g>
<!-- develop a habit of\ncooking with lots of\nvegetables (CSA&#45;like\nvolume)&#45;&gt;cook yummy food -->
<g id="G_edge17" class="edge"><title>develop a habit of\ncooking with lots of\nvegetables (CSA&#45;like\nvolume)&#45;&gt;cook yummy food</title>
<path fill="none" stroke="#cccccc" d="M1125.59,-210.358C1142.16,-216.57 1159.66,-223.063 1176,-229 1180.87,-230.768 1185.92,-232.583 1190.99,-234.393"/>
<polygon fill="#cccccc" stroke="#cccccc" points="1190.16,-237.811 1200.76,-237.858 1192.5,-231.214 1190.16,-237.811"/>
</g>
<!-- cook yummy food&#45;&gt;live an awesome life -->
<g id="G_edge20" class="edge"><title>cook yummy food&#45;&gt;live an awesome life</title>
<path fill="none" stroke="#cccccc" d="M1316.89,-237.991C1334.59,-232.839 1354.03,-227.181 1372.27,-221.873"/>
<polygon fill="#cccccc" stroke="#cccccc" points="1373.35,-225.204 1381.98,-219.05 1371.4,-218.483 1373.35,-225.204"/>
</g>
<!-- make udon noodles\nfrom scratch -->
<g id="G_node19" class="node"><title>make udon noodles\nfrom scratch</title>
<g id="a_G_node19"><a xlink:href="#make_udon_noodles_from_scratch" xlink:title="make udon noodles from scratch">
<polygon fill="none" stroke="black" points="922,-272 772,-272 772,-234 922,-234 922,-272"/>
<text text-anchor="middle" x="847" y="-256.8" font-family="Open Sans" font-size="14.00">make udon noodles</text>
<text text-anchor="middle" x="847" y="-241.8" font-family="Open Sans" font-size="14.00">from scratch</text>
</a>
</g>
</g>
<!-- practise types of\nrecipes -->
<g id="G_node20" class="node"><title>practise types of\nrecipes</title>
<g id="a_G_node20"><a xlink:href="#practise_types_of_recipes" xlink:title="practise types of recipes">
<polygon fill="lightgrey" stroke="black" points="1114,-272 986,-272 986,-234 1114,-234 1114,-272"/>
<text text-anchor="middle" x="1050" y="-256.8" font-family="Open Sans" font-size="14.00">practise types of</text>
<text text-anchor="middle" x="1050" y="-241.8" font-family="Open Sans" font-size="14.00">recipes</text>
</a>
</g>
</g>
<!-- make udon noodles\nfrom scratch&#45;&gt;practise types of\nrecipes -->
<g id="G_edge18" class="edge"><title>make udon noodles\nfrom scratch&#45;&gt;practise types of\nrecipes</title>
<path fill="none" stroke="#cccccc" d="M922.274,-253C939.755,-253 958.375,-253 975.808,-253"/>
<polygon fill="#cccccc" stroke="#cccccc" points="975.918,-256.5 985.918,-253 975.918,-249.5 975.918,-256.5"/>
</g>
<!-- practise types of\nrecipes&#45;&gt;cook yummy food -->
<g id="G_edge19" class="edge"><title>practise types of\nrecipes&#45;&gt;cook yummy food</title>
<path fill="none" stroke="#cccccc" d="M1114.08,-253.937C1133.59,-254.227 1155.31,-254.549 1175.67,-254.851"/>
<polygon fill="#cccccc" stroke="#cccccc" points="1175.8,-258.354 1185.85,-255.003 1175.9,-251.355 1175.8,-258.354"/>
</g>
<!-- build good karma&#45;&gt;learn from people -->
<g id="G_edge21" class="edge"><title>build good karma&#45;&gt;learn from people</title>
<path fill="none" stroke="#cccccc" d="M723.634,-605.782C737.882,-602.314 753.058,-598.621 767.699,-595.057"/>
<polygon fill="#cccccc" stroke="#cccccc" points="768.844,-598.381 777.732,-592.615 767.188,-591.58 768.844,-598.381"/>
</g>
<!-- publish 12 free/PWYC\nresources -->
<g id="G_node22" class="node"><title>publish 12 free/PWYC\nresources</title>
<g id="a_G_node22"><a xlink:href="#publish_12_free_PWYC_resources" xlink:title="publish 12 free/PWYC resources">
<polygon fill="none" stroke="black" points="162,-632 0,-632 0,-594 162,-594 162,-632"/>
<text text-anchor="middle" x="81" y="-616.8" font-family="Open Sans" font-size="14.00">publish 12 free/PWYC</text>
<text text-anchor="middle" x="81" y="-601.8" font-family="Open Sans" font-size="14.00">resources</text>
</a>
</g>
</g>
<!-- publish resources -->
<g id="G_node23" class="node"><title>publish resources</title>
<g id="a_G_node23"><a xlink:href="#publish_resources" xlink:title="publish resources">
<polygon fill="lightgrey" stroke="black" points="344.5,-635 207.5,-635 207.5,-599 344.5,-599 344.5,-635"/>
<text text-anchor="middle" x="276" y="-613.3" font-family="Open Sans" font-size="14.00">publish resources</text>
</a>
</g>
</g>
<!-- publish 12 free/PWYC\nresources&#45;&gt;publish resources -->
<g id="G_edge22" class="edge"><title>publish 12 free/PWYC\nresources&#45;&gt;publish resources</title>
<path fill="none" stroke="#cccccc" d="M162.173,-614.662C173.788,-614.902 185.728,-615.15 197.293,-615.389"/>
<polygon fill="#cccccc" stroke="#cccccc" points="197.272,-618.89 207.342,-615.598 197.417,-611.891 197.272,-618.89"/>
</g>
<!-- publish resources&#45;&gt;share useful stuff -->
<g id="G_edge23" class="edge"><title>publish resources&#45;&gt;share useful stuff</title>
<path fill="none" stroke="#cccccc" d="M338.558,-598.991C356.168,-593.839 375.51,-588.181 393.654,-582.873"/>
<polygon fill="#cccccc" stroke="#cccccc" points="394.689,-586.217 403.303,-580.05 392.723,-579.498 394.689,-586.217"/>
</g>
<!-- improve my coding\nskills -->
<g id="G_node24" class="node"><title>improve my coding\nskills</title>
<g id="a_G_node24"><a xlink:href="#improve_my_coding_skills" xlink:title="improve my coding skills">
<polygon fill="lightgrey" stroke="black" points="349,-581 203,-581 203,-543 349,-543 349,-581"/>
<text text-anchor="middle" x="276" y="-565.8" font-family="Open Sans" font-size="14.00">improve my coding</text>
<text text-anchor="middle" x="276" y="-550.8" font-family="Open Sans" font-size="14.00">skills</text>
</a>
</g>
</g>
<!-- improve my coding\nskills&#45;&gt;share useful stuff -->
<g id="G_edge24" class="edge"><title>improve my coding\nskills&#45;&gt;share useful stuff</title>
<path fill="none" stroke="#cccccc" d="M349.148,-562C362.058,-562 375.549,-562 388.574,-562"/>
<polygon fill="#cccccc" stroke="#cccccc" points="388.9,-565.5 398.9,-562 388.9,-558.5 388.9,-565.5"/>
</g>
<!-- improve my drawing\nskills -->
<g id="G_node25" class="node"><title>improve my drawing\nskills</title>
<g id="a_G_node25"><a xlink:href="#improve_my_drawing_skills" xlink:title="improve my drawing skills">
<polygon fill="lightgrey" stroke="black" points="354,-525 198,-525 198,-487 354,-487 354,-525"/>
<text text-anchor="middle" x="276" y="-509.8" font-family="Open Sans" font-size="14.00">improve my drawing</text>
<text text-anchor="middle" x="276" y="-494.8" font-family="Open Sans" font-size="14.00">skills</text>
</a>
</g>
</g>
<!-- improve my drawing\nskills&#45;&gt;share useful stuff -->
<g id="G_edge25" class="edge"><title>improve my drawing\nskills&#45;&gt;share useful stuff</title>
<path fill="none" stroke="#cccccc" d="M340.911,-525.037C358.245,-530.201 377.106,-535.819 394.768,-541.08"/>
<polygon fill="#cccccc" stroke="#cccccc" points="393.857,-544.46 404.44,-543.961 395.855,-537.752 393.857,-544.46"/>
</g>
<!-- improve my sharing\nskills -->
<g id="G_node26" class="node"><title>improve my sharing\nskills</title>
<g id="a_G_node26"><a xlink:href="#improve_my_sharing_skills" xlink:title="improve my sharing skills">
<polygon fill="lightgrey" stroke="black" points="352,-469 200,-469 200,-431 352,-431 352,-469"/>
<text text-anchor="middle" x="276" y="-453.8" font-family="Open Sans" font-size="14.00">improve my sharing</text>
<text text-anchor="middle" x="276" y="-438.8" font-family="Open Sans" font-size="14.00">skills</text>
</a>
</g>
</g>
<!-- improve my sharing\nskills&#45;&gt;share useful stuff -->
<g id="G_edge26" class="edge"><title>improve my sharing\nskills&#45;&gt;share useful stuff</title>
<path fill="none" stroke="#cccccc" d="M335.424,-469.126C341.816,-471.839 348.127,-474.805 354,-478 384.494,-494.591 415.716,-519.012 437.247,-537.251"/>
<polygon fill="#cccccc" stroke="#cccccc" points="435.136,-540.051 445.003,-543.909 439.695,-534.74 435.136,-540.051"/>
</g>
<!-- develop my analysis\nskills -->
<g id="G_node27" class="node"><title>develop my analysis\nskills</title>
<g id="a_G_node27"><a xlink:href="#develop_my_analysis_skills" xlink:title="develop my analysis skills">
<polygon fill="lightgrey" stroke="black" points="923.5,-650 770.5,-650 770.5,-612 923.5,-612 923.5,-650"/>
<text text-anchor="middle" x="847" y="-634.8" font-family="Open Sans" font-size="14.00">develop my analysis</text>
<text text-anchor="middle" x="847" y="-619.8" font-family="Open Sans" font-size="14.00">skills</text>
</a>
</g>
</g>
<!-- develop my analysis\nskills&#45;&gt;tickle my brain -->
<g id="G_edge29" class="edge"><title>develop my analysis\nskills&#45;&gt;tickle my brain</title>
<path fill="none" stroke="#cccccc" d="M909.868,-611.948C914.861,-609.31 919.649,-606.339 924,-603 946.01,-586.109 937.505,-568.241 960,-552 966.775,-547.109 974.447,-543.092 982.378,-539.795"/>
<polygon fill="#cccccc" stroke="#cccccc" points="983.651,-543.056 991.768,-536.247 981.176,-536.508 983.651,-543.056"/>
</g>
<!-- enrich our\nexperiences -->
<g id="G_node28" class="node"><title>enrich our\nexperiences</title>
<g id="a_G_node28"><a xlink:href="#enrich_our_experiences" xlink:title="enrich our experiences">
<polygon fill="lightgrey" stroke="black" points="1303,-220 1205,-220 1205,-182 1303,-182 1303,-220"/>
<text text-anchor="middle" x="1254" y="-204.8" font-family="Open Sans" font-size="14.00">enrich our</text>
<text text-anchor="middle" x="1254" y="-189.8" font-family="Open Sans" font-size="14.00">experiences</text>
</a>
</g>
</g>
<!-- enrich our\nexperiences&#45;&gt;live an awesome life -->
<g id="G_edge32" class="edge"><title>enrich our\nexperiences&#45;&gt;live an awesome life</title>
<path fill="none" stroke="#cccccc" d="M1303.18,-201C1319.96,-201 1339.33,-201 1358.23,-201"/>
<polygon fill="#cccccc" stroke="#cccccc" points="1358.35,-204.5 1368.35,-201 1358.35,-197.5 1358.35,-204.5"/>
</g>
<!-- cultivate equanimity -->
<g id="G_node29" class="node"><title>cultivate equanimity</title>
<g id="a_G_node29"><a xlink:href="#cultivate_equanimity" xlink:title="cultivate equanimity">
<polygon fill="lightgrey" stroke="black" points="1331.5,-164 1176.5,-164 1176.5,-128 1331.5,-128 1331.5,-164"/>
<text text-anchor="middle" x="1254" y="-142.3" font-family="Open Sans" font-size="14.00">cultivate equanimity</text>
</a>
</g>
</g>
<!-- cultivate equanimity&#45;&gt;live an awesome life -->
<g id="G_edge33" class="edge"><title>cultivate equanimity&#45;&gt;live an awesome life</title>
<path fill="none" stroke="#cccccc" d="M1316.89,-164.009C1334.59,-169.161 1354.03,-174.819 1372.27,-180.127"/>
<polygon fill="#cccccc" stroke="#cccccc" points="1371.4,-183.517 1381.98,-182.95 1373.35,-176.796 1371.4,-183.517"/>
</g>
<!-- do a 5&#45;year\nexperiment in\nself&#45;directed living -->
<g id="G_node30" class="node"><title>do a 5&#45;year\nexperiment in\nself&#45;directed living</title>
<g id="a_G_node30"><a xlink:href="#do_a_5_year_experiment_in_self_directed_living" xlink:title="do a 5&#45;year experiment in self&#45;directed living">
<polygon fill="none" stroke="black" points="1324,-109.5 1184,-109.5 1184,-56.5 1324,-56.5 1324,-109.5"/>
<text text-anchor="middle" x="1254" y="-94.3" font-family="Open Sans" font-size="14.00">do a 5&#45;year</text>
<text text-anchor="middle" x="1254" y="-79.3" font-family="Open Sans" font-size="14.00">experiment in</text>
<text text-anchor="middle" x="1254" y="-64.3" font-family="Open Sans" font-size="14.00">self&#45;directed living</text>
</a>
</g>
</g>
<!-- do a 5&#45;year\nexperiment in\nself&#45;directed living&#45;&gt;live an awesome life -->
<g id="G_edge34" class="edge"><title>do a 5&#45;year\nexperiment in\nself&#45;directed living&#45;&gt;live an awesome life</title>
<path fill="none" stroke="#cccccc" d="M1314.46,-109.368C1320.47,-112.457 1326.41,-115.691 1332,-119 1361.05,-136.204 1391.85,-159.137 1413.78,-176.375"/>
<polygon fill="#cccccc" stroke="#cccccc" points="1411.72,-179.208 1421.73,-182.68 1416.07,-173.724 1411.72,-179.208"/>
</g>
<!-- maintain or improve\nmy health -->
<g id="G_node31" class="node"><title>maintain or improve\nmy health</title>
<g id="a_G_node31"><a xlink:href="#maintain_or_improve_my_health" xlink:title="maintain or improve my health">
<polygon fill="lightgrey" stroke="black" points="1331.5,-38 1176.5,-38 1176.5,-0 1331.5,-0 1331.5,-38"/>
<text text-anchor="middle" x="1254" y="-22.8" font-family="Open Sans" font-size="14.00">maintain or improve</text>
<text text-anchor="middle" x="1254" y="-7.8" font-family="Open Sans" font-size="14.00">my health</text>
</a>
</g>
</g>
<!-- maintain or improve\nmy health&#45;&gt;live an awesome life -->
<g id="G_edge35" class="edge"><title>maintain or improve\nmy health&#45;&gt;live an awesome life</title>
<path fill="none" stroke="#cccccc" d="M1317.63,-38.0556C1322.7,-40.6931 1327.57,-43.6631 1332,-47 1377.75,-81.4443 1412.86,-139.781 1430.79,-173.908"/>
<polygon fill="#cccccc" stroke="#cccccc" points="1427.7,-175.557 1435.38,-182.852 1433.93,-172.358 1427.7,-175.557"/>
</g>
</g>
</svg>
