<?xml version="1.0" encoding="UTF-8" standalone="no"?>
<!DOCTYPE svg PUBLIC "-//W3C//DTD SVG 1.1//EN"
 "http://www.w3.org/Graphics/SVG/1.1/DTD/svg11.dtd">
<!-- Generated by graphviz version 2.43.0 (0)
 -->
<!-- Title: G Pages: 1 -->
<svg width="532pt" height="261pt"
 viewBox="0.00 0.00 532.00 261.00" xmlns="http://www.w3.org/2000/svg" xmlns:xlink="http://www.w3.org/1999/xlink">
<g id="G" class="graph" transform="scale(1 1) rotate(0) translate(4 257)">
<title>G</title>
<polygon fill="white" stroke="transparent" points="-4,4 -4,-257 528,-257 528,4 -4,4"/>
<!-- smoothen the\nworkflow for Emacs\nCalendar -->
<g id="G_node1" class="node">
<title>smoothen the\nworkflow for Emacs\nCalendar</title>
<g id="a_G_node1"><a xlink:href="index.html#smoothen_the_workflow_for_Emacs_Calendar" xlink:title="smoothen the workflow for Emacs Calendar" target="_parent">
<polygon fill="none" stroke="black" points="145,-253 0,-253 0,-200 145,-200 145,-253"/>
<text text-anchor="middle" x="72.5" y="-237.8" font-family="Open Sans" font-size="14.00">smoothen the</text>
<text text-anchor="middle" x="72.5" y="-222.8" font-family="Open Sans" font-size="14.00">workflow for Emacs</text>
<text text-anchor="middle" x="72.5" y="-207.8" font-family="Open Sans" font-size="14.00">Calendar</text>
</a>
</g>
</g>
<!-- help the Emacs\ncommunity grow -->
<g id="G_node2" class="node">
<title>help the Emacs\ncommunity grow</title>
<g id="a_G_node2"><a xlink:href="index.html#help_the_Emacs_community_grow" xlink:title="help the Emacs community grow" target="_parent">
<polygon fill="lightgrey" stroke="black" points="324.5,-139.5 198.5,-139.5 198.5,-101.5 324.5,-101.5 324.5,-139.5"/>
<text text-anchor="middle" x="261.5" y="-124.3" font-family="Open Sans" font-size="14.00">help the Emacs</text>
<text text-anchor="middle" x="261.5" y="-109.3" font-family="Open Sans" font-size="14.00">community grow</text>
</a>
</g>
</g>
<!-- smoothen the\nworkflow for Emacs\nCalendar&#45;&gt;help the Emacs\ncommunity grow -->
<g id="G_edge1" class="edge">
<title>smoothen the\nworkflow for Emacs\nCalendar&#45;&gt;help the Emacs\ncommunity grow</title>
<path fill="none" stroke="#cccccc" d="M129.2,-199.89C134.57,-197.12 139.91,-194.3 145,-191.5 171.4,-176.97 200.27,-159.22 222.55,-145.1"/>
<polygon fill="#cccccc" stroke="#cccccc" points="224.5,-148.01 231.05,-139.69 220.74,-142.11 224.5,-148.01"/>
</g>
<!-- tickle my brain and\nlive an awesome life -->
<g id="G_node6" class="node">
<title>tickle my brain and\nlive an awesome life</title>
<g id="a_G_node6"><a xlink:href="index.html#tickle_my_brain_and_live_an_awesome_life" xlink:title="tickle my brain and live an awesome life" target="_parent">
<polygon fill="lightgrey" stroke="black" points="524,-99.5 378,-99.5 378,-61.5 524,-61.5 524,-99.5"/>
<text text-anchor="middle" x="451" y="-84.3" font-family="Open Sans" font-size="14.00">tickle my brain and</text>
<text text-anchor="middle" x="451" y="-69.3" font-family="Open Sans" font-size="14.00">live an awesome life</text>
</a>
</g>
</g>
<!-- help the Emacs\ncommunity grow&#45;&gt;tickle my brain and\nlive an awesome life -->
<g id="G_edge5" class="edge">
<title>help the Emacs\ncommunity grow&#45;&gt;tickle my brain and\nlive an awesome life</title>
<path fill="none" stroke="#cccccc" d="M324.67,-107.24C338.53,-104.28 353.43,-101.1 367.95,-98"/>
<polygon fill="#cccccc" stroke="#cccccc" points="368.88,-101.39 377.93,-95.88 367.42,-94.54 368.88,-101.39"/>
</g>
<!-- edit the rest of the\nsubtitles for\nEmacsConf -->
<g id="G_node3" class="node">
<title>edit the rest of the\nsubtitles for\nEmacsConf</title>
<g id="a_G_node3"><a xlink:href="index.html#edit_the_rest_of_the_subtitles_for_EmacsConf" xlink:title="edit the rest of the subtitles for EmacsConf" target="_parent">
<polygon fill="none" stroke="black" points="141,-182 4,-182 4,-129 141,-129 141,-182"/>
<text text-anchor="middle" x="72.5" y="-166.8" font-family="Open Sans" font-size="14.00">edit the rest of the</text>
<text text-anchor="middle" x="72.5" y="-151.8" font-family="Open Sans" font-size="14.00">subtitles for</text>
<text text-anchor="middle" x="72.5" y="-136.8" font-family="Open Sans" font-size="14.00">EmacsConf</text>
</a>
</g>
</g>
<!-- edit the rest of the\nsubtitles for\nEmacsConf&#45;&gt;help the Emacs\ncommunity grow -->
<g id="G_edge2" class="edge">
<title>edit the rest of the\nsubtitles for\nEmacsConf&#45;&gt;help the Emacs\ncommunity grow</title>
<path fill="none" stroke="#cccccc" d="M141.01,-142.86C156.37,-139.99 172.75,-136.92 188.3,-134.01"/>
<polygon fill="#cccccc" stroke="#cccccc" points="189.19,-137.41 198.38,-132.13 187.9,-130.53 189.19,-137.41"/>
</g>
<!-- make it easier to\nget stuff out of\nEmacs meetups -->
<g id="G_node4" class="node">
<title>make it easier to\nget stuff out of\nEmacs meetups</title>
<g id="a_G_node4"><a xlink:href="index.html#make_it_easier_to_get_stuff_out_of_Emacs_meetups" xlink:title="make it easier to get stuff out of Emacs meetups" target="_parent">
<polygon fill="none" stroke="black" points="135,-111 10,-111 10,-58 135,-58 135,-111"/>
<text text-anchor="middle" x="72.5" y="-95.8" font-family="Open Sans" font-size="14.00">make it easier to</text>
<text text-anchor="middle" x="72.5" y="-80.8" font-family="Open Sans" font-size="14.00">get stuff out of</text>
<text text-anchor="middle" x="72.5" y="-65.8" font-family="Open Sans" font-size="14.00">Emacs meetups</text>
</a>
</g>
</g>
<!-- make it easier to\nget stuff out of\nEmacs meetups&#45;&gt;help the Emacs\ncommunity grow -->
<g id="G_edge3" class="edge">
<title>make it easier to\nget stuff out of\nEmacs meetups&#45;&gt;help the Emacs\ncommunity grow</title>
<path fill="none" stroke="#cccccc" d="M135.25,-96.39C152.23,-99.66 170.81,-103.23 188.32,-106.61"/>
<polygon fill="#cccccc" stroke="#cccccc" points="188.02,-110.11 198.5,-108.56 189.34,-103.24 188.02,-110.11"/>
</g>
<!-- get the hang of\nstreaming -->
<g id="G_node5" class="node">
<title>get the hang of\nstreaming</title>
<g id="a_G_node5"><a xlink:href="index.html#get_the_hang_of_streaming" xlink:title="get the hang of streaming" target="_parent">
<polygon fill="none" stroke="black" points="129,-39.5 16,-39.5 16,-1.5 129,-1.5 129,-39.5"/>
<text text-anchor="middle" x="72.5" y="-24.3" font-family="Open Sans" font-size="14.00">get the hang of</text>
<text text-anchor="middle" x="72.5" y="-9.3" font-family="Open Sans" font-size="14.00">streaming</text>
</a>
</g>
</g>
<!-- get the hang of\nstreaming&#45;&gt;help the Emacs\ncommunity grow -->
<g id="G_edge4" class="edge">
<title>get the hang of\nstreaming&#45;&gt;help the Emacs\ncommunity grow</title>
<path fill="none" stroke="#cccccc" d="M129.26,-39.01C134.8,-41.82 140.15,-44.97 145,-48.5 165.43,-63.37 160.32,-77.99 181,-92.5 183.7,-94.39 186.53,-96.17 189.46,-97.83"/>
<polygon fill="#cccccc" stroke="#cccccc" points="188,-101.02 198.49,-102.5 191.22,-94.8 188,-101.02"/>
</g>
<!-- fill in at least one\nobservation for each\nspecific expectation\nin the Ontario\nKindergarten Program -->
<g id="G_node7" class="node">
<title>fill in at least one\nobservation for each\nspecific expectation\nin the Ontario\nKindergarten Program</title>
<g id="a_G_node7"><a xlink:href="index.html#fill_in_at_least_one_observation_for_each_specific_expectation_in_the_Ontario_Kindergarten_Program" xlink:title="fill in at least one observation for each specific expectation in the Ontario Kindergarten Program" target="_parent">
<polygon fill="none" stroke="black" points="342,-83 181,-83 181,0 342,0 342,-83"/>
<text text-anchor="middle" x="261.5" y="-67.8" font-family="Open Sans" font-size="14.00">fill in at least one</text>
<text text-anchor="middle" x="261.5" y="-52.8" font-family="Open Sans" font-size="14.00">observation for each</text>
<text text-anchor="middle" x="261.5" y="-37.8" font-family="Open Sans" font-size="14.00">specific expectation</text>
<text text-anchor="middle" x="261.5" y="-22.8" font-family="Open Sans" font-size="14.00">in the Ontario</text>
<text text-anchor="middle" x="261.5" y="-7.8" font-family="Open Sans" font-size="14.00">Kindergarten Program</text>
</a>
</g>
</g>
<!-- fill in at least one\nobservation for each\nspecific expectation\nin the Ontario\nKindergarten Program&#45;&gt;tickle my brain and\nlive an awesome life -->
<g id="G_edge6" class="edge">
<title>fill in at least one\nobservation for each\nspecific expectation\nin the Ontario\nKindergarten Program&#45;&gt;tickle my brain and\nlive an awesome life</title>
<path fill="none" stroke="#cccccc" d="M342.02,-58.04C350.55,-59.82 359.25,-61.62 367.82,-63.41"/>
<polygon fill="#cccccc" stroke="#cccccc" points="367.3,-66.87 377.8,-65.48 368.72,-60.02 367.3,-66.87"/>
</g>
</g>
</svg>
