<?xml version="1.0" encoding="UTF-8" standalone="no"?>
<!DOCTYPE svg PUBLIC "-//W3C//DTD SVG 1.1//EN"
 "http://www.w3.org/Graphics/SVG/1.1/DTD/svg11.dtd">
<!-- Generated by graphviz version 2.43.0 (0)
 -->
<!-- Title: G Pages: 1 -->
<svg width="532pt" height="339pt"
 viewBox="0.00 0.00 532.00 338.50" xmlns="http://www.w3.org/2000/svg" xmlns:xlink="http://www.w3.org/1999/xlink">
<g id="G" class="graph" transform="scale(1 1) rotate(0) translate(4 334.5)">
<title>G</title>
<polygon fill="white" stroke="transparent" points="-4,4 -4,-334.5 528,-334.5 528,4 -4,4"/>
<!-- figure out new\ndrawing workflow -->
<g id="G_node1" class="node">
<title>figure out new\ndrawing workflow</title>
<g id="a_G_node1"><a xlink:href="index.html#figure_out_new_drawing_workflow" xlink:title="figure out new drawing workflow" target="_parent">
<polygon fill="none" stroke="black" points="139.5,-330.5 5.5,-330.5 5.5,-292.5 139.5,-292.5 139.5,-330.5"/>
<text text-anchor="middle" x="72.5" y="-315.3" font-family="Open Sans" font-size="14.00">figure out new</text>
<text text-anchor="middle" x="72.5" y="-300.3" font-family="Open Sans" font-size="14.00">drawing workflow</text>
</a>
</g>
</g>
<!-- set up my new laptop -->
<g id="G_node2" class="node">
<title>set up my new laptop</title>
<g id="a_G_node2"><a xlink:href="index.html#set_up_my_new_laptop" xlink:title="set up my new laptop" target="_parent">
<polygon fill="none" stroke="black" points="339,-296.5 184,-296.5 184,-260.5 339,-260.5 339,-296.5"/>
<text text-anchor="middle" x="261.5" y="-274.8" font-family="Open Sans" font-size="14.00">set up my new laptop</text>
</a>
</g>
</g>
<!-- figure out new\ndrawing workflow&#45;&gt;set up my new laptop -->
<g id="G_edge1" class="edge">
<title>figure out new\ndrawing workflow&#45;&gt;set up my new laptop</title>
<path fill="none" stroke="#cccccc" d="M139.69,-299.82C150.74,-297.87 162.35,-295.82 173.83,-293.8"/>
<polygon fill="#cccccc" stroke="#cccccc" points="174.61,-297.21 183.85,-292.03 173.4,-290.32 174.61,-297.21"/>
</g>
<!-- tickle my brain and\nlive an awesome life -->
<g id="G_node3" class="node">
<title>tickle my brain and\nlive an awesome life</title>
<g id="a_G_node3"><a xlink:href="index.html#tickle_my_brain_and_live_an_awesome_life" xlink:title="tickle my brain and live an awesome life" target="_parent">
<polygon fill="lightgrey" stroke="black" points="524,-178.5 378,-178.5 378,-140.5 524,-140.5 524,-178.5"/>
<text text-anchor="middle" x="451" y="-163.3" font-family="Open Sans" font-size="14.00">tickle my brain and</text>
<text text-anchor="middle" x="451" y="-148.3" font-family="Open Sans" font-size="14.00">live an awesome life</text>
</a>
</g>
</g>
<!-- set up my new laptop&#45;&gt;tickle my brain and\nlive an awesome life -->
<g id="G_edge2" class="edge">
<title>set up my new laptop&#45;&gt;tickle my brain and\nlive an awesome life</title>
<path fill="none" stroke="#cccccc" d="M290.98,-260.43C323.09,-240.05 375.48,-206.8 411.29,-184.07"/>
<polygon fill="#cccccc" stroke="#cccccc" points="413.44,-186.85 420.01,-178.53 409.69,-180.94 413.44,-186.85"/>
</g>
<!-- figure out signposts\nand maps -->
<g id="G_node4" class="node">
<title>figure out signposts\nand maps</title>
<g id="a_G_node4"><a xlink:href="index.html#figure_out_signposts_and_maps" xlink:title="figure out signposts and maps" target="_parent">
<polygon fill="none" stroke="black" points="145,-274.5 0,-274.5 0,-236.5 145,-236.5 145,-274.5"/>
<text text-anchor="middle" x="72.5" y="-259.3" font-family="Open Sans" font-size="14.00">figure out signposts</text>
<text text-anchor="middle" x="72.5" y="-244.3" font-family="Open Sans" font-size="14.00">and maps</text>
</a>
</g>
</g>
<!-- help the Emacs\ncommunity grow -->
<g id="G_node5" class="node">
<title>help the Emacs\ncommunity grow</title>
<g id="a_G_node5"><a xlink:href="index.html#help_the_Emacs_community_grow" xlink:title="help the Emacs community grow" target="_parent">
<polygon fill="lightgrey" stroke="black" points="324.5,-210.5 198.5,-210.5 198.5,-172.5 324.5,-172.5 324.5,-210.5"/>
<text text-anchor="middle" x="261.5" y="-195.3" font-family="Open Sans" font-size="14.00">help the Emacs</text>
<text text-anchor="middle" x="261.5" y="-180.3" font-family="Open Sans" font-size="14.00">community grow</text>
</a>
</g>
</g>
<!-- figure out signposts\nand maps&#45;&gt;help the Emacs\ncommunity grow -->
<g id="G_edge3" class="edge">
<title>figure out signposts\nand maps&#45;&gt;help the Emacs\ncommunity grow</title>
<path fill="none" stroke="#cccccc" d="M129.1,-236.47C149.83,-229.38 173.54,-221.26 195.07,-213.89"/>
<polygon fill="#cccccc" stroke="#cccccc" points="196.46,-217.12 204.79,-210.57 194.2,-210.49 196.46,-217.12"/>
</g>
<!-- help the Emacs\ncommunity grow&#45;&gt;tickle my brain and\nlive an awesome life -->
<g id="G_edge7" class="edge">
<title>help the Emacs\ncommunity grow&#45;&gt;tickle my brain and\nlive an awesome life</title>
<path fill="none" stroke="#cccccc" d="M324.67,-180.89C338.53,-178.52 353.43,-175.98 367.95,-173.5"/>
<polygon fill="#cccccc" stroke="#cccccc" points="368.66,-176.93 377.93,-171.8 367.48,-170.03 368.66,-176.93"/>
</g>
<!-- make quick\nscreencasts and\nanimated GIFs -->
<g id="G_node6" class="node">
<title>make quick\nscreencasts and\nanimated GIFs</title>
<g id="a_G_node6"><a xlink:href="index.html#make_quick_screencasts_and_animated_GIFs" xlink:title="make quick screencasts and animated GIFs" target="_parent">
<polygon fill="none" stroke="black" points="132.5,-218 12.5,-218 12.5,-165 132.5,-165 132.5,-218"/>
<text text-anchor="middle" x="72.5" y="-202.8" font-family="Open Sans" font-size="14.00">make quick</text>
<text text-anchor="middle" x="72.5" y="-187.8" font-family="Open Sans" font-size="14.00">screencasts and</text>
<text text-anchor="middle" x="72.5" y="-172.8" font-family="Open Sans" font-size="14.00">animated GIFs</text>
</a>
</g>
</g>
<!-- make quick\nscreencasts and\nanimated GIFs&#45;&gt;help the Emacs\ncommunity grow -->
<g id="G_edge4" class="edge">
<title>make quick\nscreencasts and\nanimated GIFs&#45;&gt;help the Emacs\ncommunity grow</title>
<path fill="none" stroke="#cccccc" d="M132.67,-191.5C150.36,-191.5 169.96,-191.5 188.39,-191.5"/>
<polygon fill="#cccccc" stroke="#cccccc" points="188.49,-195 198.49,-191.5 188.49,-188 188.49,-195"/>
</g>
<!-- figure out a\nworkflow for\npointing to Emacs\nmeetups -->
<g id="G_node7" class="node">
<title>figure out a\nworkflow for\npointing to Emacs\nmeetups</title>
<g id="a_G_node7"><a xlink:href="index.html#figure_out_a_workflow_for_pointing_to_Emacs_meetups" xlink:title="figure out a workflow for pointing to Emacs meetups" target="_parent">
<polygon fill="none" stroke="black" points="138.5,-146.5 6.5,-146.5 6.5,-78.5 138.5,-78.5 138.5,-146.5"/>
<text text-anchor="middle" x="72.5" y="-131.3" font-family="Open Sans" font-size="14.00">figure out a</text>
<text text-anchor="middle" x="72.5" y="-116.3" font-family="Open Sans" font-size="14.00">workflow for</text>
<text text-anchor="middle" x="72.5" y="-101.3" font-family="Open Sans" font-size="14.00">pointing to Emacs</text>
<text text-anchor="middle" x="72.5" y="-86.3" font-family="Open Sans" font-size="14.00">meetups</text>
</a>
</g>
</g>
<!-- figure out a\nworkflow for\npointing to Emacs\nmeetups&#45;&gt;help the Emacs\ncommunity grow -->
<g id="G_edge5" class="edge">
<title>figure out a\nworkflow for\npointing to Emacs\nmeetups&#45;&gt;help the Emacs\ncommunity grow</title>
<path fill="none" stroke="#cccccc" d="M138.67,-144.75C152.53,-151.23 167.15,-157.8 181,-163.5 185.42,-165.32 190,-167.13 194.64,-168.91"/>
<polygon fill="#cccccc" stroke="#cccccc" points="193.6,-172.26 204.19,-172.49 196.06,-165.7 193.6,-172.26"/>
</g>
<!-- edit the rest of the\nsubtitles for\nEmacsConf -->
<g id="G_node8" class="node">
<title>edit the rest of the\nsubtitles for\nEmacsConf</title>
<g id="a_G_node8"><a xlink:href="index.html#edit_the_rest_of_the_subtitles_for_EmacsConf" xlink:title="edit the rest of the subtitles for EmacsConf" target="_parent">
<polygon fill="none" stroke="black" points="141,-60 4,-60 4,-7 141,-7 141,-60"/>
<text text-anchor="middle" x="72.5" y="-44.8" font-family="Open Sans" font-size="14.00">edit the rest of the</text>
<text text-anchor="middle" x="72.5" y="-29.8" font-family="Open Sans" font-size="14.00">subtitles for</text>
<text text-anchor="middle" x="72.5" y="-14.8" font-family="Open Sans" font-size="14.00">EmacsConf</text>
</a>
</g>
</g>
<!-- edit the rest of the\nsubtitles for\nEmacsConf&#45;&gt;help the Emacs\ncommunity grow -->
<g id="G_edge6" class="edge">
<title>edit the rest of the\nsubtitles for\nEmacsConf&#45;&gt;help the Emacs\ncommunity grow</title>
<path fill="none" stroke="#cccccc" d="M134.74,-60.12C138.45,-62.97 141.92,-66.1 145,-69.5 175,-102.69 148.94,-132.3 181,-163.5 183.67,-166.1 186.6,-168.46 189.71,-170.61"/>
<polygon fill="#cccccc" stroke="#cccccc" points="187.93,-173.62 198.31,-175.79 191.55,-167.63 187.93,-173.62"/>
</g>
<!-- move my services\ninto Docker or\nsimilar containers -->
<g id="G_node9" class="node">
<title>move my services\ninto Docker or\nsimilar containers</title>
<g id="a_G_node9"><a xlink:href="index.html#move_my_services_into_Docker_or_similar_containers" xlink:title="move my services into Docker or similar containers" target="_parent">
<polygon fill="none" stroke="black" points="328,-154 195,-154 195,-101 328,-101 328,-154"/>
<text text-anchor="middle" x="261.5" y="-138.8" font-family="Open Sans" font-size="14.00">move my services</text>
<text text-anchor="middle" x="261.5" y="-123.8" font-family="Open Sans" font-size="14.00">into Docker or</text>
<text text-anchor="middle" x="261.5" y="-108.8" font-family="Open Sans" font-size="14.00">similar containers</text>
</a>
</g>
</g>
<!-- move my services\ninto Docker or\nsimilar containers&#45;&gt;tickle my brain and\nlive an awesome life -->
<g id="G_edge8" class="edge">
<title>move my services\ninto Docker or\nsimilar containers&#45;&gt;tickle my brain and\nlive an awesome life</title>
<path fill="none" stroke="#cccccc" d="M328.08,-138.69C340.87,-140.88 354.43,-143.19 367.69,-145.45"/>
<polygon fill="#cccccc" stroke="#cccccc" points="367.3,-148.94 377.74,-147.17 368.47,-142.04 367.3,-148.94"/>
</g>
<!-- fill in at least one\nobservation for each\nspecific expectation\nin the Ontario\nKindergarten Program -->
<g id="G_node10" class="node">
<title>fill in at least one\nobservation for each\nspecific expectation\nin the Ontario\nKindergarten Program</title>
<g id="a_G_node10"><a xlink:href="index.html#fill_in_at_least_one_observation_for_each_specific_expectation_in_the_Ontario_Kindergarten_Program" xlink:title="fill in at least one observation for each specific expectation in the Ontario Kindergarten Program" target="_parent">
<polygon fill="none" stroke="black" points="342,-83 181,-83 181,0 342,0 342,-83"/>
<text text-anchor="middle" x="261.5" y="-67.8" font-family="Open Sans" font-size="14.00">fill in at least one</text>
<text text-anchor="middle" x="261.5" y="-52.8" font-family="Open Sans" font-size="14.00">observation for each</text>
<text text-anchor="middle" x="261.5" y="-37.8" font-family="Open Sans" font-size="14.00">specific expectation</text>
<text text-anchor="middle" x="261.5" y="-22.8" font-family="Open Sans" font-size="14.00">in the Ontario</text>
<text text-anchor="middle" x="261.5" y="-7.8" font-family="Open Sans" font-size="14.00">Kindergarten Program</text>
</a>
</g>
</g>
<!-- fill in at least one\nobservation for each\nspecific expectation\nin the Ontario\nKindergarten Program&#45;&gt;tickle my brain and\nlive an awesome life -->
<g id="G_edge9" class="edge">
<title>fill in at least one\nobservation for each\nspecific expectation\nin the Ontario\nKindergarten Program&#45;&gt;tickle my brain and\nlive an awesome life</title>
<path fill="none" stroke="#cccccc" d="M328.61,-83.1C356.09,-100.4 387.06,-119.89 410.84,-134.85"/>
<polygon fill="#cccccc" stroke="#cccccc" points="409.25,-137.99 419.58,-140.35 412.98,-132.07 409.25,-137.99"/>
</g>
</g>
</svg>
