<?xml version="1.0" encoding="UTF-8" standalone="no"?>
<!DOCTYPE svg PUBLIC "-//W3C//DTD SVG 1.1//EN"
 "http://www.w3.org/Graphics/SVG/1.1/DTD/svg11.dtd">
<!-- Generated by graphviz version 2.40.1 (20161225.0304)
 -->
<!-- Title: G Pages: 1 -->
<svg width="720pt" height="469pt"
 viewBox="0.00 0.00 720.00 469.08" xmlns="http://www.w3.org/2000/svg" xmlns:xlink="http://www.w3.org/1999/xlink">
<g id="G" class="graph" transform="scale(.618 .618) rotate(0) translate(4 755)">
<title>G</title>
<polygon fill="#ffffff" stroke="transparent" points="-4,4 -4,-755 1161,-755 1161,4 -4,4"/>
<!-- create a 10&#45;week\nEmacs Basics course -->
<g id="G_node1" class="node">
<title>create a 10&#45;week\nEmacs Basics course</title>
<g id="a_G_node1"><a xlink:href="index.html#create_a_10_week_Emacs_Basics_course" xlink:title="create a 10&#45;week Emacs Basics course" target="_parent">
<polygon fill="none" stroke="#000000" points="161.5,-439 7.5,-439 7.5,-401 161.5,-401 161.5,-439"/>
<text text-anchor="middle" x="84.5" y="-423.8" font-family="Open Sans" font-size="14.00" fill="#000000">create a 10&#45;week</text>
<text text-anchor="middle" x="84.5" y="-408.8" font-family="Open Sans" font-size="14.00" fill="#000000">Emacs Basics course</text>
</a>
</g>
</g>
<!-- help the Emacs\ncommunity grow -->
<g id="G_node2" class="node">
<title>help the Emacs\ncommunity grow</title>
<g id="a_G_node2"><a xlink:href="index.html#help_the_Emacs_community_grow" xlink:title="help the Emacs community grow" target="_parent">
<polygon fill="#d3d3d3" stroke="#000000" points="351,-559 221,-559 221,-521 351,-521 351,-559"/>
<text text-anchor="middle" x="286" y="-543.8" font-family="Open Sans" font-size="14.00" fill="#000000">help the Emacs</text>
<text text-anchor="middle" x="286" y="-528.8" font-family="Open Sans" font-size="14.00" fill="#000000">community grow</text>
</a>
</g>
</g>
<!-- create a 10&#45;week\nEmacs Basics course&#45;&gt;help the Emacs\ncommunity grow -->
<g id="G_edge1" class="edge">
<title>create a 10&#45;week\nEmacs Basics course&#45;&gt;help the Emacs\ncommunity grow</title>
<path fill="none" stroke="#cccccc" d="M155.7501,-439.142C160.4566,-441.7346 164.9335,-444.6723 169,-448 193.9577,-468.4234 180.2874,-490.2807 205,-511 207.2534,-512.8893 209.6393,-514.6595 212.124,-516.3178"/>
<polygon fill="#cccccc" stroke="#cccccc" points="210.5186,-519.4351 220.9032,-521.5351 214.0947,-513.4175 210.5186,-519.4351"/>
</g>
<!-- share useful stuff -->
<g id="G_node7" class="node">
<title>share useful stuff</title>
<g id="a_G_node7"><a xlink:href="index.html#share_useful_stuff" xlink:title="share useful stuff" target="_parent">
<polygon fill="#d3d3d3" stroke="#000000" points="754,-430 620,-430 620,-394 754,-394 754,-430"/>
<text text-anchor="middle" x="687" y="-408.3" font-family="Open Sans" font-size="14.00" fill="#000000">share useful stuff</text>
</a>
</g>
</g>
<!-- help the Emacs\ncommunity grow&#45;&gt;share useful stuff -->
<g id="G_edge6" class="edge">
<title>help the Emacs\ncommunity grow&#45;&gt;share useful stuff</title>
<path fill="none" stroke="#cccccc" d="M345.6008,-520.9753C419.2488,-497.4667 544.1833,-457.5874 620.7645,-433.1425"/>
<polygon fill="#cccccc" stroke="#cccccc" points="621.8553,-436.4684 630.3175,-430.0932 619.7267,-429.7999 621.8553,-436.4684"/>
</g>
<!-- tickle my brain -->
<g id="G_node8" class="node">
<title>tickle my brain</title>
<g id="a_G_node8"><a xlink:href="index.html#tickle_my_brain" xlink:title="tickle my brain" target="_parent">
<polygon fill="#d3d3d3" stroke="#000000" points="540,-589 424,-589 424,-553 540,-553 540,-589"/>
<text text-anchor="middle" x="482" y="-567.3" font-family="Open Sans" font-size="14.00" fill="#000000">tickle my brain</text>
</a>
</g>
</g>
<!-- help the Emacs\ncommunity grow&#45;&gt;tickle my brain -->
<g id="G_edge7" class="edge">
<title>help the Emacs\ncommunity grow&#45;&gt;tickle my brain</title>
<path fill="none" stroke="#cccccc" d="M351.2652,-550.3226C371.3661,-553.5018 393.543,-557.0093 413.8337,-560.2186"/>
<polygon fill="#cccccc" stroke="#cccccc" points="413.5133,-563.7114 423.9374,-561.8166 414.6069,-556.7973 413.5133,-563.7114"/>
</g>
<!-- Develop\nemacslife.com into\nbeginner/enthusiast\nresources for Emacs -->
<g id="G_node3" class="node">
<title>Develop\nemacslife.com into\nbeginner/enthusiast\nresources for Emacs</title>
<g id="a_G_node3"><a xlink:href="index.html#Develop_emacslife_com_into_beginner_enthusiast_resources_for_Emacs" xlink:title="Develop emacslife.com into beginner/enthusiast resources for Emacs" target="_parent">
<polygon fill="none" stroke="#000000" points="161.5,-383 7.5,-383 7.5,-315 161.5,-315 161.5,-383"/>
<text text-anchor="middle" x="84.5" y="-367.8" font-family="Open Sans" font-size="14.00" fill="#000000">Develop</text>
<text text-anchor="middle" x="84.5" y="-352.8" font-family="Open Sans" font-size="14.00" fill="#000000">emacslife.com into</text>
<text text-anchor="middle" x="84.5" y="-337.8" font-family="Open Sans" font-size="14.00" fill="#000000">beginner/enthusiast</text>
<text text-anchor="middle" x="84.5" y="-322.8" font-family="Open Sans" font-size="14.00" fill="#000000">resources for Emacs</text>
</a>
</g>
</g>
<!-- Develop\nemacslife.com into\nbeginner/enthusiast\nresources for Emacs&#45;&gt;help the Emacs\ncommunity grow -->
<g id="G_edge2" class="edge">
<title>Develop\nemacslife.com into\nbeginner/enthusiast\nresources for Emacs&#45;&gt;help the Emacs\ncommunity grow</title>
<path fill="none" stroke="#cccccc" d="M160.288,-383.1419C163.4274,-385.8952 166.3587,-388.8445 169,-392 204.4666,-434.3716 166.9177,-470.9628 205,-511 207.1232,-513.2322 209.43,-515.2929 211.8772,-517.1954"/>
<polygon fill="#cccccc" stroke="#cccccc" points="210.4153,-520.4279 220.6747,-523.0728 214.3039,-514.6073 210.4153,-520.4279"/>
</g>
<!-- get back into Emacs\nHangouts -->
<g id="G_node4" class="node">
<title>get back into Emacs\nHangouts</title>
<g id="a_G_node4"><a xlink:href="index.html#get_back_into_Emacs_Hangouts" xlink:title="get back into Emacs Hangouts" target="_parent">
<polygon fill="none" stroke="#000000" points="159.5,-623 9.5,-623 9.5,-585 159.5,-585 159.5,-623"/>
<text text-anchor="middle" x="84.5" y="-607.8" font-family="Open Sans" font-size="14.00" fill="#000000">get back into Emacs</text>
<text text-anchor="middle" x="84.5" y="-592.8" font-family="Open Sans" font-size="14.00" fill="#000000">Hangouts</text>
</a>
</g>
</g>
<!-- get back into Emacs\nHangouts&#45;&gt;help the Emacs\ncommunity grow -->
<g id="G_edge3" class="edge">
<title>get back into Emacs\nHangouts&#45;&gt;help the Emacs\ncommunity grow</title>
<path fill="none" stroke="#cccccc" d="M144.4111,-584.9712C167.0465,-577.7818 192.9924,-569.5409 216.4384,-562.094"/>
<polygon fill="#cccccc" stroke="#cccccc" points="217.5005,-565.429 225.9718,-559.066 215.3815,-558.7575 217.5005,-565.429"/>
</g>
<!-- help organize a\nvirtual Emacs\nconference -->
<g id="G_node5" class="node">
<title>help organize a\nvirtual Emacs\nconference</title>
<g id="a_G_node5"><a xlink:href="index.html#help_organize_a_virtual_Emacs_conference" xlink:title="help organize a virtual Emacs conference" target="_parent">
<polygon fill="none" stroke="#000000" points="144.5,-566.5 24.5,-566.5 24.5,-513.5 144.5,-513.5 144.5,-566.5"/>
<text text-anchor="middle" x="84.5" y="-551.3" font-family="Open Sans" font-size="14.00" fill="#000000">help organize a</text>
<text text-anchor="middle" x="84.5" y="-536.3" font-family="Open Sans" font-size="14.00" fill="#000000">virtual Emacs</text>
<text text-anchor="middle" x="84.5" y="-521.3" font-family="Open Sans" font-size="14.00" fill="#000000">conference</text>
</a>
</g>
</g>
<!-- help organize a\nvirtual Emacs\nconference&#45;&gt;help the Emacs\ncommunity grow -->
<g id="G_edge4" class="edge">
<title>help organize a\nvirtual Emacs\nconference&#45;&gt;help the Emacs\ncommunity grow</title>
<path fill="none" stroke="#cccccc" d="M144.6837,-540C165.407,-540 188.8791,-540 210.6569,-540"/>
<polygon fill="#cccccc" stroke="#cccccc" points="210.8587,-543.5001 220.8586,-540 210.8586,-536.5001 210.8587,-543.5001"/>
</g>
<!-- smoothen Emacs and\nOrg use on my phone -->
<g id="G_node6" class="node">
<title>smoothen Emacs and\nOrg use on my phone</title>
<g id="a_G_node6"><a xlink:href="index.html#smoothen_Emacs_and_Org_use_on_my_phone" xlink:title="smoothen Emacs and Org use on my phone" target="_parent">
<polygon fill="none" stroke="#000000" points="165.5,-495 3.5,-495 3.5,-457 165.5,-457 165.5,-495"/>
<text text-anchor="middle" x="84.5" y="-479.8" font-family="Open Sans" font-size="14.00" fill="#000000">smoothen Emacs and</text>
<text text-anchor="middle" x="84.5" y="-464.8" font-family="Open Sans" font-size="14.00" fill="#000000">Org use on my phone</text>
</a>
</g>
</g>
<!-- smoothen Emacs and\nOrg use on my phone&#45;&gt;help the Emacs\ncommunity grow -->
<g id="G_edge5" class="edge">
<title>smoothen Emacs and\nOrg use on my phone&#45;&gt;help the Emacs\ncommunity grow</title>
<path fill="none" stroke="#cccccc" d="M144.4111,-495.0288C167.0465,-502.2182 192.9924,-510.4591 216.4384,-517.906"/>
<polygon fill="#cccccc" stroke="#cccccc" points="215.3815,-521.2425 225.9718,-520.934 217.5005,-514.571 215.3815,-521.2425"/>
</g>
<!-- get more value from\nmy time -->
<g id="G_node13" class="node">
<title>get more value from\nmy time</title>
<g id="a_G_node13"><a xlink:href="index.html#get_more_value_from_my_time" xlink:title="get more value from my time" target="_parent">
<polygon fill="#d3d3d3" stroke="#000000" points="967.5,-376 813.5,-376 813.5,-338 967.5,-338 967.5,-376"/>
<text text-anchor="middle" x="890.5" y="-360.8" font-family="Open Sans" font-size="14.00" fill="#000000">get more value from</text>
<text text-anchor="middle" x="890.5" y="-345.8" font-family="Open Sans" font-size="14.00" fill="#000000">my time</text>
</a>
</g>
</g>
<!-- share useful stuff&#45;&gt;get more value from\nmy time -->
<g id="G_edge29" class="edge">
<title>share useful stuff&#45;&gt;get more value from\nmy time</title>
<path fill="none" stroke="#cccccc" d="M753.6335,-393.9909C771.6974,-389.1088 791.4445,-383.7718 810.1766,-378.709"/>
<polygon fill="#cccccc" stroke="#cccccc" points="811.1251,-382.0783 819.8655,-376.0904 809.2986,-375.3208 811.1251,-382.0783"/>
</g>
<!-- tickle my brain&#45;&gt;share useful stuff -->
<g id="G_edge32" class="edge">
<title>tickle my brain&#45;&gt;share useful stuff</title>
<path fill="none" stroke="#cccccc" d="M513.9127,-552.8195C528.6156,-544.0394 546.0736,-533.031 561,-522 597.2446,-495.2142 635.8535,-460.4759 660.6381,-437.273"/>
<polygon fill="#cccccc" stroke="#cccccc" points="663.2997,-439.5741 668.1788,-430.1696 658.4999,-434.4788 663.2997,-439.5741"/>
</g>
<!-- tickle my brain&#45;&gt;get more value from\nmy time -->
<g id="G_edge33" class="edge">
<title>tickle my brain&#45;&gt;get more value from\nmy time</title>
<path fill="none" stroke="#cccccc" d="M530.2206,-552.9631C589.8821,-529.8557 693.7675,-487.0091 777,-439 806.1285,-422.1985 836.917,-399.6125 859.0668,-382.3988"/>
<polygon fill="#cccccc" stroke="#cccccc" points="861.4039,-385.0138 867.1115,-376.0878 857.0833,-379.5063 861.4039,-385.0138"/>
</g>
<!-- add 50 items to my\nprocess library -->
<g id="G_node9" class="node">
<title>add 50 items to my\nprocess library</title>
<g id="a_G_node9"><a xlink:href="index.html#add_50_items_to_my_process_library" xlink:title="add 50 items to my process library" target="_parent">
<polygon fill="none" stroke="#000000" points="555,-284 409,-284 409,-246 555,-246 555,-284"/>
<text text-anchor="middle" x="482" y="-268.8" font-family="Open Sans" font-size="14.00" fill="#000000">add 50 items to my</text>
<text text-anchor="middle" x="482" y="-253.8" font-family="Open Sans" font-size="14.00" fill="#000000">process library</text>
</a>
</g>
</g>
<!-- add 50 items to my\nprocess library&#45;&gt;share useful stuff -->
<g id="G_edge8" class="edge">
<title>add 50 items to my\nprocess library&#45;&gt;share useful stuff</title>
<path fill="none" stroke="#cccccc" d="M549.5467,-284.1208C553.6768,-286.7157 557.55,-289.6599 561,-293 592.546,-323.541 564.7129,-355.2436 597,-385 601.1235,-388.8003 605.7623,-392.0668 610.7037,-394.8744"/>
<polygon fill="#cccccc" stroke="#cccccc" points="609.368,-398.1193 619.8792,-399.4485 612.4912,-391.8546 609.368,-398.1193"/>
</g>
<!-- delegate more\neffectively -->
<g id="G_node10" class="node">
<title>delegate more\neffectively</title>
<g id="a_G_node10"><a xlink:href="index.html#delegate_more_effectively" xlink:title="delegate more effectively" target="_parent">
<polygon fill="none" stroke="#000000" points="744.5,-376 629.5,-376 629.5,-338 744.5,-338 744.5,-376"/>
<text text-anchor="middle" x="687" y="-360.8" font-family="Open Sans" font-size="14.00" fill="#000000">delegate more</text>
<text text-anchor="middle" x="687" y="-345.8" font-family="Open Sans" font-size="14.00" fill="#000000">effectively</text>
</a>
</g>
</g>
<!-- add 50 items to my\nprocess library&#45;&gt;delegate more\neffectively -->
<g id="G_edge9" class="edge">
<title>add 50 items to my\nprocess library&#45;&gt;delegate more\neffectively</title>
<path fill="none" stroke="#cccccc" d="M544.4839,-284.1481C550.2329,-286.7928 555.8318,-289.7381 561,-293 580.135,-305.077 577.6332,-317.2984 597,-329 603.97,-333.2113 611.6313,-336.8435 619.4516,-339.9624"/>
<polygon fill="#cccccc" stroke="#cccccc" points="618.4407,-343.3205 629.0338,-343.5168 620.8752,-336.7574 618.4407,-343.3205"/>
</g>
<!-- delegate more\neffectively&#45;&gt;get more value from\nmy time -->
<g id="G_edge12" class="edge">
<title>delegate more\neffectively&#45;&gt;get more value from\nmy time</title>
<path fill="none" stroke="#cccccc" d="M744.7706,-357C762.8823,-357 783.296,-357 802.9845,-357"/>
<polygon fill="#cccccc" stroke="#cccccc" points="803.1981,-360.5001 813.1981,-357 803.1981,-353.5001 803.1981,-360.5001"/>
</g>
<!-- delegate 2,000 hours\nor $20,000 of\nmeaningful, useful\nwork -->
<g id="G_node11" class="node">
<title>delegate 2,000 hours\nor $20,000 of\nmeaningful, useful\nwork</title>
<g id="a_G_node11"><a xlink:href="index.html#delegate_2_000_hours_or__20_000_of_meaningful__useful_work" xlink:title="delegate 2,000 hours or $20,000 of meaningful, useful work" target="_parent">
<polygon fill="none" stroke="#000000" points="561,-201 403,-201 403,-133 561,-133 561,-201"/>
<text text-anchor="middle" x="482" y="-185.8" font-family="Open Sans" font-size="14.00" fill="#000000">delegate 2,000 hours</text>
<text text-anchor="middle" x="482" y="-170.8" font-family="Open Sans" font-size="14.00" fill="#000000">or $20,000 of</text>
<text text-anchor="middle" x="482" y="-155.8" font-family="Open Sans" font-size="14.00" fill="#000000">meaningful, useful</text>
<text text-anchor="middle" x="482" y="-140.8" font-family="Open Sans" font-size="14.00" fill="#000000">work</text>
</a>
</g>
</g>
<!-- delegate 2,000 hours\nor $20,000 of\nmeaningful, useful\nwork&#45;&gt;delegate more\neffectively -->
<g id="G_edge11" class="edge">
<title>delegate 2,000 hours\nor $20,000 of\nmeaningful, useful\nwork&#45;&gt;delegate more\neffectively</title>
<path fill="none" stroke="#cccccc" d="M527.8998,-201.1492C539.8287,-211.6548 551.8754,-223.9268 561,-237 586.1303,-273.0052 564.8645,-299.0799 597,-329 603.5262,-335.0763 611.3519,-339.8344 619.6282,-343.5603"/>
<polygon fill="#cccccc" stroke="#cccccc" points="618.5334,-346.8916 629.1186,-347.3435 621.1255,-340.3892 618.5334,-346.8916"/>
</g>
<!-- build good karma -->
<g id="G_node12" class="node">
<title>build good karma</title>
<polygon fill="none" stroke="#000000" points="754.5,-122 619.5,-122 619.5,-86 754.5,-86 754.5,-122"/>
<text text-anchor="middle" x="687" y="-100.3" font-family="Open Sans" font-size="14.00" fill="#000000">build good karma</text>
</g>
<!-- delegate 2,000 hours\nor $20,000 of\nmeaningful, useful\nwork&#45;&gt;build good karma -->
<g id="G_edge10" class="edge">
<title>delegate 2,000 hours\nor $20,000 of\nmeaningful, useful\nwork&#45;&gt;build good karma</title>
<path fill="none" stroke="#cccccc" d="M561.1459,-142.0879C573.1513,-138.3484 585.3987,-134.5559 597,-131 603.3922,-129.0407 610.0445,-127.0168 616.7097,-124.999"/>
<polygon fill="#cccccc" stroke="#cccccc" points="617.8944,-128.2974 626.4554,-122.0556 615.8705,-121.5964 617.8944,-128.2974"/>
</g>
<!-- live an awesome life -->
<g id="G_node15" class="node">
<title>live an awesome life</title>
<g id="a_G_node15"><a xlink:href="index.html#live_an_awesome_life" xlink:title="live an awesome life" target="_parent">
<polygon fill="#d3d3d3" stroke="#000000" points="1157,-240 1004,-240 1004,-204 1157,-204 1157,-240"/>
<text text-anchor="middle" x="1080.5" y="-218.3" font-family="Open Sans" font-size="14.00" fill="#000000">live an awesome life</text>
</a>
</g>
</g>
<!-- get more value from\nmy time&#45;&gt;live an awesome life -->
<g id="G_edge14" class="edge">
<title>get more value from\nmy time&#45;&gt;live an awesome life</title>
<path fill="none" stroke="#cccccc" d="M917.3194,-337.9441C951.2221,-313.8554 1009.61,-272.3692 1046.5772,-246.1031"/>
<polygon fill="#cccccc" stroke="#cccccc" points="1048.9068,-248.7414 1055.0314,-240.0961 1044.8523,-243.0351 1048.9068,-248.7414"/>
</g>
<!-- create\nsyntopicon/bibliography -->
<g id="G_node14" class="node">
<title>create\nsyntopicon/bibliography</title>
<g id="a_G_node14"><a xlink:href="index.html#create_syntopicon_bibliography" xlink:title="create syntopicon/bibliography" target="_parent">
<polygon fill="none" stroke="#000000" points="777,-320 597,-320 597,-282 777,-282 777,-320"/>
<text text-anchor="middle" x="687" y="-304.8" font-family="Open Sans" font-size="14.00" fill="#000000">create</text>
<text text-anchor="middle" x="687" y="-289.8" font-family="Open Sans" font-size="14.00" fill="#000000">syntopicon/bibliography</text>
</a>
</g>
</g>
<!-- create\nsyntopicon/bibliography&#45;&gt;get more value from\nmy time -->
<g id="G_edge13" class="edge">
<title>create\nsyntopicon/bibliography&#45;&gt;get more value from\nmy time</title>
<path fill="none" stroke="#cccccc" d="M756.1798,-320.0372C773.9559,-324.9289 793.2146,-330.2286 811.4486,-335.2463"/>
<polygon fill="#cccccc" stroke="#cccccc" points="810.5957,-338.6416 821.1659,-337.9204 812.453,-331.8925 810.5957,-338.6416"/>
</g>
<!-- make better\ndecisions -->
<g id="G_node16" class="node">
<title>make better\ndecisions</title>
<g id="a_G_node16"><a xlink:href="index.html#make_better_decisions" xlink:title="make better decisions" target="_parent">
<polygon fill="none" stroke="#000000" points="940.5,-269 840.5,-269 840.5,-231 940.5,-231 940.5,-269"/>
<text text-anchor="middle" x="890.5" y="-253.8" font-family="Open Sans" font-size="14.00" fill="#000000">make better</text>
<text text-anchor="middle" x="890.5" y="-238.8" font-family="Open Sans" font-size="14.00" fill="#000000">decisions</text>
</a>
</g>
</g>
<!-- make better\ndecisions&#45;&gt;live an awesome life -->
<g id="G_edge15" class="edge">
<title>make better\ndecisions&#45;&gt;live an awesome life</title>
<path fill="none" stroke="#cccccc" d="M940.9177,-242.57C957.1508,-240.1778 975.6299,-237.4545 993.7095,-234.7902"/>
<polygon fill="#cccccc" stroke="#cccccc" points="994.3129,-238.2391 1003.6958,-233.3185 993.2923,-231.3139 994.3129,-238.2391"/>
</g>
<!-- write mini&#45;book on\nbuilding Emacs\nhabits -->
<g id="G_node17" class="node">
<title>write mini&#45;book on\nbuilding Emacs\nhabits</title>
<g id="a_G_node17"><a xlink:href="index.html#write_mini_book_on_building_Emacs_habits" xlink:title="write mini&#45;book on building Emacs habits" target="_parent">
<polygon fill="none" stroke="#000000" points="156,-275.5 13,-275.5 13,-222.5 156,-222.5 156,-275.5"/>
<text text-anchor="middle" x="84.5" y="-260.3" font-family="Open Sans" font-size="14.00" fill="#000000">write mini&#45;book on</text>
<text text-anchor="middle" x="84.5" y="-245.3" font-family="Open Sans" font-size="14.00" fill="#000000">building Emacs</text>
<text text-anchor="middle" x="84.5" y="-230.3" font-family="Open Sans" font-size="14.00" fill="#000000">habits</text>
</a>
</g>
</g>
<!-- write mini&#45;book on\nbuilding Emacs\nhabits&#45;&gt;help the Emacs\ncommunity grow -->
<g id="G_edge16" class="edge">
<title>write mini&#45;book on\nbuilding Emacs\nhabits&#45;&gt;help the Emacs\ncommunity grow</title>
<path fill="none" stroke="#cccccc" d="M138.0367,-275.6353C149.8733,-283.8545 161.1978,-293.976 169,-306 219.3537,-383.5998 145.3772,-440.2727 205,-511 207.2834,-513.7087 209.8391,-516.1645 212.5969,-518.3908"/>
<polygon fill="#cccccc" stroke="#cccccc" points="210.6262,-521.2834 220.846,-524.0775 214.5993,-515.5201 210.6262,-521.2834"/>
</g>
<!-- create four major\nprojects in a year -->
<g id="G_node18" class="node">
<title>create four major\nprojects in a year</title>
<g id="a_G_node18"><a xlink:href="index.html#create_four_major_projects_in_a_year" xlink:title="create four major projects in a year" target="_parent">
<polygon fill="none" stroke="#000000" points="353,-247 219,-247 219,-209 353,-209 353,-247"/>
<text text-anchor="middle" x="286" y="-231.8" font-family="Open Sans" font-size="14.00" fill="#000000">create four major</text>
<text text-anchor="middle" x="286" y="-216.8" font-family="Open Sans" font-size="14.00" fill="#000000">projects in a year</text>
</a>
</g>
</g>
<!-- write mini&#45;book on\nbuilding Emacs\nhabits&#45;&gt;create four major\nprojects in a year -->
<g id="G_edge17" class="edge">
<title>write mini&#45;book on\nbuilding Emacs\nhabits&#45;&gt;create four major\nprojects in a year</title>
<path fill="none" stroke="#cccccc" d="M156.1087,-241.5371C173.1296,-239.7632 191.3646,-237.8627 208.63,-236.0634"/>
<polygon fill="#cccccc" stroke="#cccccc" points="209.0838,-239.5351 218.6671,-235.0173 208.3581,-232.5728 209.0838,-239.5351"/>
</g>
<!-- publish resources -->
<g id="G_node19" class="node">
<title>publish resources</title>
<g id="a_G_node19"><a xlink:href="index.html#publish_resources" xlink:title="publish resources" target="_parent">
<polygon fill="none" stroke="#000000" points="550.5,-338 413.5,-338 413.5,-302 550.5,-302 550.5,-338"/>
<text text-anchor="middle" x="482" y="-316.3" font-family="Open Sans" font-size="14.00" fill="#000000">publish resources</text>
</a>
</g>
</g>
<!-- create four major\nprojects in a year&#45;&gt;publish resources -->
<g id="G_edge18" class="edge">
<title>create four major\nprojects in a year&#45;&gt;publish resources</title>
<path fill="none" stroke="#cccccc" d="M350.5368,-247.1536C356.2733,-249.7872 361.8508,-252.7288 367,-256 386.3663,-268.3031 383.6122,-280.7308 403,-293 405.4687,-294.5623 408.0384,-296.0459 410.6778,-297.4536"/>
<polygon fill="#cccccc" stroke="#cccccc" points="409.3545,-300.7025 419.8755,-301.9511 412.4295,-294.414 409.3545,-300.7025"/>
</g>
<!-- publish resources&#45;&gt;share useful stuff -->
<g id="G_edge21" class="edge">
<title>publish resources&#45;&gt;share useful stuff</title>
<path fill="none" stroke="#cccccc" d="M509.9246,-338.1269C532.6723,-352.3101 565.9875,-371.78 597,-385 601.455,-386.8991 606.0871,-388.7208 610.7953,-390.4576"/>
<polygon fill="#cccccc" stroke="#cccccc" points="609.9393,-393.8672 620.5341,-393.9008 612.2727,-387.2675 609.9393,-393.8672"/>
</g>
<!-- write a set of three\nor four 4&#45;part\ncourses -->
<g id="G_node20" class="node">
<title>write a set of three\nor four 4&#45;part\ncourses</title>
<g id="a_G_node20"><a xlink:href="index.html#write_a_set_of_three_or_four_4_part_courses" xlink:title="write a set of three or four 4&#45;part courses" target="_parent">
<polygon fill="none" stroke="#000000" points="358,-190.5 214,-190.5 214,-137.5 358,-137.5 358,-190.5"/>
<text text-anchor="middle" x="286" y="-175.3" font-family="Open Sans" font-size="14.00" fill="#000000">write a set of three</text>
<text text-anchor="middle" x="286" y="-160.3" font-family="Open Sans" font-size="14.00" fill="#000000">or four 4&#45;part</text>
<text text-anchor="middle" x="286" y="-145.3" font-family="Open Sans" font-size="14.00" fill="#000000">courses</text>
</a>
</g>
</g>
<!-- write a set of three\nor four 4&#45;part\ncourses&#45;&gt;publish resources -->
<g id="G_edge19" class="edge">
<title>write a set of three\nor four 4&#45;part\ncourses&#45;&gt;publish resources</title>
<path fill="none" stroke="#cccccc" d="M356.1005,-190.5381C360.0294,-193.3993 363.7102,-196.5453 367,-200 397.565,-232.0971 371.039,-262.2927 403,-293 403.9701,-293.932 404.9736,-294.8319 406.007,-295.7009"/>
<polygon fill="#cccccc" stroke="#cccccc" points="404.2893,-298.7767 414.4514,-301.7739 408.3764,-293.0937 404.2893,-298.7767"/>
</g>
<!-- publish 12 free/PWYC\nresources -->
<g id="G_node21" class="node">
<title>publish 12 free/PWYC\nresources</title>
<g id="a_G_node21"><a xlink:href="index.html#publish_12_free_PWYC_resources" xlink:title="publish 12 free/PWYC resources" target="_parent">
<polygon fill="none" stroke="#000000" points="367,-303 205,-303 205,-265 367,-265 367,-303"/>
<text text-anchor="middle" x="286" y="-287.8" font-family="Open Sans" font-size="14.00" fill="#000000">publish 12 free/PWYC</text>
<text text-anchor="middle" x="286" y="-272.8" font-family="Open Sans" font-size="14.00" fill="#000000">resources</text>
</a>
</g>
</g>
<!-- publish 12 free/PWYC\nresources&#45;&gt;publish resources -->
<g id="G_edge20" class="edge">
<title>publish 12 free/PWYC\nresources&#45;&gt;publish resources</title>
<path fill="none" stroke="#cccccc" d="M367.1355,-298.9024C379.1479,-301.1088 391.5089,-303.3792 403.4669,-305.5755"/>
<polygon fill="#cccccc" stroke="#cccccc" points="402.9325,-309.0359 413.4003,-307.4001 404.1972,-302.151 402.9325,-309.0359"/>
</g>
<!-- contribute to open\nsource documentation -->
<g id="G_node22" class="node">
<title>contribute to open\nsource documentation</title>
<g id="a_G_node22"><a xlink:href="index.html#contribute_to_open_source_documentation" xlink:title="contribute to open source documentation" target="_parent">
<polygon fill="none" stroke="#000000" points="169,-751 0,-751 0,-713 169,-713 169,-751"/>
<text text-anchor="middle" x="84.5" y="-735.8" font-family="Open Sans" font-size="14.00" fill="#000000">contribute to open</text>
<text text-anchor="middle" x="84.5" y="-720.8" font-family="Open Sans" font-size="14.00" fill="#000000">source documentation</text>
</a>
</g>
</g>
<!-- improve my coding\nskills -->
<g id="G_node23" class="node">
<title>improve my coding\nskills</title>
<g id="a_G_node23"><a xlink:href="index.html#improve_my_coding_skills" xlink:title="improve my coding skills" target="_parent">
<polygon fill="#d3d3d3" stroke="#000000" points="359,-687 213,-687 213,-649 359,-649 359,-687"/>
<text text-anchor="middle" x="286" y="-671.8" font-family="Open Sans" font-size="14.00" fill="#000000">improve my coding</text>
<text text-anchor="middle" x="286" y="-656.8" font-family="Open Sans" font-size="14.00" fill="#000000">skills</text>
</a>
</g>
</g>
<!-- contribute to open\nsource documentation&#45;&gt;improve my coding\nskills -->
<g id="G_edge22" class="edge">
<title>contribute to open\nsource documentation&#45;&gt;improve my coding\nskills</title>
<path fill="none" stroke="#cccccc" d="M144.4111,-712.9712C167.0465,-705.7818 192.9924,-697.5409 216.4384,-690.094"/>
<polygon fill="#cccccc" stroke="#cccccc" points="217.5005,-693.429 225.9718,-687.066 215.3815,-686.7575 217.5005,-693.429"/>
</g>
<!-- improve my coding\nskills&#45;&gt;tickle my brain -->
<g id="G_edge24" class="edge">
<title>improve my coding\nskills&#45;&gt;tickle my brain</title>
<path fill="none" stroke="#cccccc" d="M345.8413,-648.8984C353.0604,-646.1312 360.2584,-643.146 367,-640 394.9397,-626.9617 424.7452,-608.9497 447.0104,-594.5982"/>
<polygon fill="#cccccc" stroke="#cccccc" points="448.9875,-597.4874 455.4565,-589.0967 445.1669,-591.622 448.9875,-597.4874"/>
</g>
<!-- move my services\ninto Docker or\nsimilar containers -->
<g id="G_node24" class="node">
<title>move my services\ninto Docker or\nsimilar containers</title>
<g id="a_G_node24"><a xlink:href="index.html#move_my_services_into_Docker_or_similar_containers" xlink:title="move my services into Docker or similar containers" target="_parent">
<polygon fill="none" stroke="#000000" points="153,-694.5 16,-694.5 16,-641.5 153,-641.5 153,-694.5"/>
<text text-anchor="middle" x="84.5" y="-679.3" font-family="Open Sans" font-size="14.00" fill="#000000">move my services</text>
<text text-anchor="middle" x="84.5" y="-664.3" font-family="Open Sans" font-size="14.00" fill="#000000">into Docker or</text>
<text text-anchor="middle" x="84.5" y="-649.3" font-family="Open Sans" font-size="14.00" fill="#000000">similar containers</text>
</a>
</g>
</g>
<!-- move my services\ninto Docker or\nsimilar containers&#45;&gt;improve my coding\nskills -->
<g id="G_edge23" class="edge">
<title>move my services\ninto Docker or\nsimilar containers&#45;&gt;improve my coding\nskills</title>
<path fill="none" stroke="#cccccc" d="M153.2813,-668C169.1429,-668 186.1839,-668 202.5921,-668"/>
<polygon fill="#cccccc" stroke="#cccccc" points="202.7106,-671.5001 212.7106,-668 202.7106,-664.5001 202.7106,-671.5001"/>
</g>
<!-- draw recognizable\npeople -->
<g id="G_node25" class="node">
<title>draw recognizable\npeople</title>
<g id="a_G_node25"><a xlink:href="index.html#draw_recognizable_people" xlink:title="draw recognizable people" target="_parent">
<polygon fill="none" stroke="#000000" points="356,-431 216,-431 216,-393 356,-393 356,-431"/>
<text text-anchor="middle" x="286" y="-415.8" font-family="Open Sans" font-size="14.00" fill="#000000">draw recognizable</text>
<text text-anchor="middle" x="286" y="-400.8" font-family="Open Sans" font-size="14.00" fill="#000000">people</text>
</a>
</g>
</g>
<!-- improve my drawing\nskills -->
<g id="G_node26" class="node">
<title>improve my drawing\nskills</title>
<g id="a_G_node26"><a xlink:href="index.html#improve_my_drawing_skills" xlink:title="improve my drawing skills" target="_parent">
<polygon fill="#d3d3d3" stroke="#000000" points="560,-431 404,-431 404,-393 560,-393 560,-431"/>
<text text-anchor="middle" x="482" y="-415.8" font-family="Open Sans" font-size="14.00" fill="#000000">improve my drawing</text>
<text text-anchor="middle" x="482" y="-400.8" font-family="Open Sans" font-size="14.00" fill="#000000">skills</text>
</a>
</g>
</g>
<!-- draw recognizable\npeople&#45;&gt;improve my drawing\nskills -->
<g id="G_edge25" class="edge">
<title>draw recognizable\npeople&#45;&gt;improve my drawing\nskills</title>
<path fill="none" stroke="#cccccc" d="M356.2069,-412C368.4279,-412 381.2775,-412 393.9055,-412"/>
<polygon fill="#cccccc" stroke="#cccccc" points="393.9692,-415.5001 403.9691,-412 393.9691,-408.5001 393.9692,-415.5001"/>
</g>
<!-- improve my drawing\nskills&#45;&gt;share useful stuff -->
<g id="G_edge28" class="edge">
<title>improve my drawing\nskills&#45;&gt;share useful stuff</title>
<path fill="none" stroke="#cccccc" d="M560.0865,-412C576.2369,-412 593.246,-412 609.3797,-412"/>
<polygon fill="#cccccc" stroke="#cccccc" points="609.8377,-415.5001 619.8376,-412 609.8376,-408.5001 609.8377,-415.5001"/>
</g>
<!-- illustrate another\nbook for A&#45; or her\ncousins -->
<g id="G_node27" class="node">
<title>illustrate another\nbook for A&#45; or her\ncousins</title>
<g id="a_G_node27"><a xlink:href="index.html#illustrate_another_book_for_A__or_her_cousins" xlink:title="illustrate another book for A&#45; or her cousins" target="_parent">
<polygon fill="none" stroke="#000000" points="353,-374.5 219,-374.5 219,-321.5 353,-321.5 353,-374.5"/>
<text text-anchor="middle" x="286" y="-359.3" font-family="Open Sans" font-size="14.00" fill="#000000">illustrate another</text>
<text text-anchor="middle" x="286" y="-344.3" font-family="Open Sans" font-size="14.00" fill="#000000">book for A&#45; or her</text>
<text text-anchor="middle" x="286" y="-329.3" font-family="Open Sans" font-size="14.00" fill="#000000">cousins</text>
</a>
</g>
</g>
<!-- illustrate another\nbook for A&#45; or her\ncousins&#45;&gt;improve my drawing\nskills -->
<g id="G_edge26" class="edge">
<title>illustrate another\nbook for A&#45; or her\ncousins&#45;&gt;improve my drawing\nskills</title>
<path fill="none" stroke="#cccccc" d="M353.1779,-369.9356C372.8911,-376.3726 394.4568,-383.4145 414.2081,-389.8639"/>
<polygon fill="#cccccc" stroke="#cccccc" points="413.1498,-393.2001 423.7423,-392.9771 415.3227,-386.5459 413.1498,-393.2001"/>
</g>
<!-- make a book about\nmicrophthalmia for\nA&#45; -->
<g id="G_node28" class="node">
<title>make a book about\nmicrophthalmia for\nA&#45;</title>
<g id="a_G_node28"><a xlink:href="index.html#make_a_book_about_microphthalmia_for_A_" xlink:title="make a book about microphthalmia for A&#45;" target="_parent">
<polygon fill="none" stroke="#000000" points="359.5,-502.5 212.5,-502.5 212.5,-449.5 359.5,-449.5 359.5,-502.5"/>
<text text-anchor="middle" x="286" y="-487.3" font-family="Open Sans" font-size="14.00" fill="#000000">make a book about</text>
<text text-anchor="middle" x="286" y="-472.3" font-family="Open Sans" font-size="14.00" fill="#000000">microphthalmia for</text>
<text text-anchor="middle" x="286" y="-457.3" font-family="Open Sans" font-size="14.00" fill="#000000">A&#45;</text>
</a>
</g>
</g>
<!-- make a book about\nmicrophthalmia for\nA&#45;&#45;&gt;improve my drawing\nskills -->
<g id="G_edge27" class="edge">
<title>make a book about\nmicrophthalmia for\nA&#45;&#45;&gt;improve my drawing\nskills</title>
<path fill="none" stroke="#cccccc" d="M359.5408,-451.9867C377.4129,-446.1509 396.4445,-439.9365 414.0448,-434.1895"/>
<polygon fill="#cccccc" stroke="#cccccc" points="415.2393,-437.4813 423.659,-431.0501 413.0665,-430.8271 415.2393,-437.4813"/>
</g>
<!-- build organizers and\nother things for the\nhouse -->
<g id="G_node29" class="node">
<title>build organizers and\nother things for the\nhouse</title>
<g id="a_G_node29"><a xlink:href="index.html#build_organizers_and_other_things_for_the_house" xlink:title="build organizers and other things for the house" target="_parent">
<polygon fill="none" stroke="#000000" points="363.5,-630.5 208.5,-630.5 208.5,-577.5 363.5,-577.5 363.5,-630.5"/>
<text text-anchor="middle" x="286" y="-615.3" font-family="Open Sans" font-size="14.00" fill="#000000">build organizers and</text>
<text text-anchor="middle" x="286" y="-600.3" font-family="Open Sans" font-size="14.00" fill="#000000">other things for the</text>
<text text-anchor="middle" x="286" y="-585.3" font-family="Open Sans" font-size="14.00" fill="#000000">house</text>
</a>
</g>
</g>
<!-- build organizers and\nother things for the\nhouse&#45;&gt;tickle my brain -->
<g id="G_edge30" class="edge">
<title>build organizers and\nother things for the\nhouse&#45;&gt;tickle my brain</title>
<path fill="none" stroke="#cccccc" d="M363.7459,-590.9101C380.2971,-588.1234 397.6543,-585.2011 413.8157,-582.48"/>
<polygon fill="#cccccc" stroke="#cccccc" points="414.426,-585.9266 423.7061,-580.8148 413.2637,-579.0238 414.426,-585.9266"/>
</g>
<!-- sew more clothes for\nA&#45; and me -->
<g id="G_node30" class="node">
<title>sew more clothes for\nA&#45; and me</title>
<g id="a_G_node30"><a xlink:href="index.html#sew_more_clothes_for_A__and_me" xlink:title="sew more clothes for A&#45; and me" target="_parent">
<polygon fill="none" stroke="#000000" points="364.5,-743 207.5,-743 207.5,-705 364.5,-705 364.5,-743"/>
<text text-anchor="middle" x="286" y="-727.8" font-family="Open Sans" font-size="14.00" fill="#000000">sew more clothes for</text>
<text text-anchor="middle" x="286" y="-712.8" font-family="Open Sans" font-size="14.00" fill="#000000">A&#45; and me</text>
</a>
</g>
</g>
<!-- sew more clothes for\nA&#45; and me&#45;&gt;tickle my brain -->
<g id="G_edge31" class="edge">
<title>sew more clothes for\nA&#45; and me&#45;&gt;tickle my brain</title>
<path fill="none" stroke="#cccccc" d="M350.6346,-704.998C356.3509,-702.3331 361.897,-699.3428 367,-696 407.4616,-669.4948 443.2859,-625.6363 463.8038,-597.5445"/>
<polygon fill="#cccccc" stroke="#cccccc" points="466.6834,-599.5349 469.6683,-589.3692 460.9955,-595.4547 466.6834,-599.5349"/>
</g>
<!-- get driver&#39;s\nlicense? -->
<g id="G_node31" class="node">
<title>get driver&#39;s\nlicense?</title>
<g id="a_G_node31"><a xlink:href="index.html#get_driver_s_license_" xlink:title="get driver&#39;s license?" target="_parent">
<polygon fill="none" stroke="#000000" points="733,-178 641,-178 641,-140 733,-140 733,-178"/>
<text text-anchor="middle" x="687" y="-162.8" font-family="Open Sans" font-size="14.00" fill="#000000">get driver&#39;s</text>
<text text-anchor="middle" x="687" y="-147.8" font-family="Open Sans" font-size="14.00" fill="#000000">license?</text>
</a>
</g>
</g>
<!-- enrich our\nexperiences -->
<g id="G_node32" class="node">
<title>enrich our\nexperiences</title>
<g id="a_G_node32"><a xlink:href="index.html#enrich_our_experiences" xlink:title="enrich our experiences" target="_parent">
<polygon fill="#d3d3d3" stroke="#000000" points="939.5,-213 841.5,-213 841.5,-175 939.5,-175 939.5,-213"/>
<text text-anchor="middle" x="890.5" y="-197.8" font-family="Open Sans" font-size="14.00" fill="#000000">enrich our</text>
<text text-anchor="middle" x="890.5" y="-182.8" font-family="Open Sans" font-size="14.00" fill="#000000">experiences</text>
</a>
</g>
</g>
<!-- get driver&#39;s\nlicense?&#45;&gt;enrich our\nexperiences -->
<g id="G_edge34" class="edge">
<title>get driver&#39;s\nlicense?&#45;&gt;enrich our\nexperiences</title>
<path fill="none" stroke="#cccccc" d="M733.1773,-166.942C762.2766,-171.9468 800.1235,-178.4561 831.4036,-183.836"/>
<polygon fill="#cccccc" stroke="#cccccc" points="830.8607,-187.2939 841.3093,-185.5397 832.0473,-180.3952 830.8607,-187.2939"/>
</g>
<!-- enrich our\nexperiences&#45;&gt;live an awesome life -->
<g id="G_edge37" class="edge">
<title>enrich our\nexperiences&#45;&gt;live an awesome life</title>
<path fill="none" stroke="#cccccc" d="M939.9243,-201.2836C956.4211,-203.7147 975.321,-206.4999 993.7989,-209.223"/>
<polygon fill="#cccccc" stroke="#cccccc" points="993.3009,-212.6873 1003.7043,-210.6827 994.3215,-205.7621 993.3009,-212.6873"/>
</g>
<!-- set up distinctly\ninteresting memories\nfor four months\nstraight -->
<g id="G_node33" class="node">
<title>set up distinctly\ninteresting memories\nfor four months\nstraight</title>
<g id="a_G_node33"><a xlink:href="index.html#set_up_distinctly_interesting_memories_for_four_months_straight" xlink:title="set up distinctly interesting memories for four months straight" target="_parent">
<polygon fill="none" stroke="#000000" points="767.5,-68 606.5,-68 606.5,0 767.5,0 767.5,-68"/>
<text text-anchor="middle" x="687" y="-52.8" font-family="Open Sans" font-size="14.00" fill="#000000">set up distinctly</text>
<text text-anchor="middle" x="687" y="-37.8" font-family="Open Sans" font-size="14.00" fill="#000000">interesting memories</text>
<text text-anchor="middle" x="687" y="-22.8" font-family="Open Sans" font-size="14.00" fill="#000000">for four months</text>
<text text-anchor="middle" x="687" y="-7.8" font-family="Open Sans" font-size="14.00" fill="#000000">straight</text>
</a>
</g>
</g>
<!-- set up distinctly\ninteresting memories\nfor four months\nstraight&#45;&gt;enrich our\nexperiences -->
<g id="G_edge35" class="edge">
<title>set up distinctly\ninteresting memories\nfor four months\nstraight&#45;&gt;enrich our\nexperiences</title>
<path fill="none" stroke="#cccccc" d="M767.348,-68.1466C770.7892,-70.8986 774.0341,-73.8464 777,-77 806.2322,-108.0825 782.2655,-136.4022 813,-166 818.455,-171.2533 824.968,-175.5313 831.8681,-179.0126"/>
<polygon fill="#cccccc" stroke="#cccccc" points="830.8953,-182.4108 841.4542,-183.283 833.7438,-176.0166 830.8953,-182.4108"/>
</g>
<!-- try two weeks of\nhaving prepared\nactivities/provocations\nfor A&#45; -->
<g id="G_node34" class="node">
<title>try two weeks of\nhaving prepared\nactivities/provocations\nfor A&#45;</title>
<g id="a_G_node34"><a xlink:href="index.html#try_two_weeks_of_having_prepared_activities_provocations_for_A_" xlink:title="try two weeks of having prepared activities/provocations for A&#45;" target="_parent">
<polygon fill="none" stroke="#000000" points="771,-264 603,-264 603,-196 771,-196 771,-264"/>
<text text-anchor="middle" x="687" y="-248.8" font-family="Open Sans" font-size="14.00" fill="#000000">try two weeks of</text>
<text text-anchor="middle" x="687" y="-233.8" font-family="Open Sans" font-size="14.00" fill="#000000">having prepared</text>
<text text-anchor="middle" x="687" y="-218.8" font-family="Open Sans" font-size="14.00" fill="#000000">activities/provocations</text>
<text text-anchor="middle" x="687" y="-203.8" font-family="Open Sans" font-size="14.00" fill="#000000">for A&#45;</text>
</a>
</g>
</g>
<!-- try two weeks of\nhaving prepared\nactivities/provocations\nfor A&#45;&#45;&gt;enrich our\nexperiences -->
<g id="G_edge36" class="edge">
<title>try two weeks of\nhaving prepared\nactivities/provocations\nfor A&#45;&#45;&gt;enrich our\nexperiences</title>
<path fill="none" stroke="#cccccc" d="M771.2402,-215.0976C791.4458,-211.5231 812.6012,-207.7806 831.3887,-204.457"/>
<polygon fill="#cccccc" stroke="#cccccc" points="832.0324,-207.8976 841.2698,-202.709 830.8129,-201.0046 832.0324,-207.8976"/>
</g>
<!-- maintain or improve\nmy health -->
<g id="G_node35" class="node">
<title>maintain or improve\nmy health</title>
<g id="a_G_node35"><a xlink:href="index.html#maintain_or_improve_my_health" xlink:title="maintain or improve my health" target="_parent">
<polygon fill="none" stroke="#000000" points="968,-157 813,-157 813,-119 968,-119 968,-157"/>
<text text-anchor="middle" x="890.5" y="-141.8" font-family="Open Sans" font-size="14.00" fill="#000000">maintain or improve</text>
<text text-anchor="middle" x="890.5" y="-126.8" font-family="Open Sans" font-size="14.00" fill="#000000">my health</text>
</a>
</g>
</g>
<!-- maintain or improve\nmy health&#45;&gt;live an awesome life -->
<g id="G_edge38" class="edge">
<title>maintain or improve\nmy health&#45;&gt;live an awesome life</title>
<path fill="none" stroke="#cccccc" d="M945.8433,-157.112C953.343,-159.9585 960.8975,-162.9612 968,-166 991.4135,-176.0175 1016.8646,-188.5423 1037.6275,-199.2053"/>
<polygon fill="#cccccc" stroke="#cccccc" points="1036.0251,-202.3169 1046.5153,-203.8026 1039.2412,-196.0994 1036.0251,-202.3169"/>
</g>
</g>
</svg>
