<?xml version="1.0" encoding="UTF-8" standalone="no"?>
<!DOCTYPE svg PUBLIC "-//W3C//DTD SVG 1.1//EN"
 "http://www.w3.org/Graphics/SVG/1.1/DTD/svg11.dtd">
<!-- Generated by graphviz version 2.40.1 (20161225.0304)
 -->
<!-- Title: G Pages: 1 -->
<svg width="720pt" height="475pt"
 viewBox="0.00 0.00 720.00 474.95" xmlns="http://www.w3.org/2000/svg" xmlns:xlink="http://www.w3.org/1999/xlink">
<g id="G" class="graph" transform="scale(.618 .618) rotate(0) translate(4 764.5)">
<title>G</title>
<polygon fill="#ffffff" stroke="transparent" points="-4,4 -4,-764.5 1161,-764.5 1161,4 -4,4"/>
<!-- create a 10&#45;week\nEmacs Basics course -->
<g id="G_node1" class="node">
<title>create a 10&#45;week\nEmacs Basics course</title>
<g id="a_G_node1"><a xlink:href="index.html#create_a_10_week_Emacs_Basics_course" xlink:title="create a 10&#45;week Emacs Basics course" target="_parent">
<polygon fill="none" stroke="#000000" points="161.5,-414 7.5,-414 7.5,-376 161.5,-376 161.5,-414"/>
<text text-anchor="middle" x="84.5" y="-398.8" font-family="Open Sans" font-size="14.00" fill="#000000">create a 10&#45;week</text>
<text text-anchor="middle" x="84.5" y="-383.8" font-family="Open Sans" font-size="14.00" fill="#000000">Emacs Basics course</text>
</a>
</g>
</g>
<!-- help the Emacs\ncommunity grow -->
<g id="G_node2" class="node">
<title>help the Emacs\ncommunity grow</title>
<g id="a_G_node2"><a xlink:href="index.html#help_the_Emacs_community_grow" xlink:title="help the Emacs community grow" target="_parent">
<polygon fill="#d3d3d3" stroke="#000000" points="351,-516 221,-516 221,-478 351,-478 351,-516"/>
<text text-anchor="middle" x="286" y="-500.8" font-family="Open Sans" font-size="14.00" fill="#000000">help the Emacs</text>
<text text-anchor="middle" x="286" y="-485.8" font-family="Open Sans" font-size="14.00" fill="#000000">community grow</text>
</a>
</g>
</g>
<!-- create a 10&#45;week\nEmacs Basics course&#45;&gt;help the Emacs\ncommunity grow -->
<g id="G_edge1" class="edge">
<title>create a 10&#45;week\nEmacs Basics course&#45;&gt;help the Emacs\ncommunity grow</title>
<path fill="none" stroke="#cccccc" d="M153.4809,-414.0342C158.9287,-416.6695 164.1798,-419.6453 169,-423 190.0223,-437.6309 184.1535,-453.1197 205,-468 207.5321,-469.8074 210.1884,-471.5127 212.9318,-473.1205"/>
<polygon fill="#cccccc" stroke="#cccccc" points="211.4746,-476.31 221.945,-477.9293 214.7697,-470.1341 211.4746,-476.31"/>
</g>
<!-- share useful stuff -->
<g id="G_node6" class="node">
<title>share useful stuff</title>
<g id="a_G_node6"><a xlink:href="index.html#share_useful_stuff" xlink:title="share useful stuff" target="_parent">
<polygon fill="#d3d3d3" stroke="#000000" points="754,-430 620,-430 620,-394 754,-394 754,-430"/>
<text text-anchor="middle" x="687" y="-408.3" font-family="Open Sans" font-size="14.00" fill="#000000">share useful stuff</text>
</a>
</g>
</g>
<!-- help the Emacs\ncommunity grow&#45;&gt;share useful stuff -->
<g id="G_edge5" class="edge">
<title>help the Emacs\ncommunity grow&#45;&gt;share useful stuff</title>
<path fill="none" stroke="#cccccc" d="M351.0643,-483.7868C406.8222,-472.3982 489.2549,-455.4062 561,-440 576.7849,-436.6104 593.6648,-432.911 609.7731,-429.3446"/>
<polygon fill="#cccccc" stroke="#cccccc" points="610.6819,-432.7281 619.6864,-427.1451 609.1656,-425.8943 610.6819,-432.7281"/>
</g>
<!-- tickle my brain -->
<g id="G_node7" class="node">
<title>tickle my brain</title>
<g id="a_G_node7"><a xlink:href="index.html#tickle_my_brain" xlink:title="tickle my brain" target="_parent">
<polygon fill="#d3d3d3" stroke="#000000" points="540,-536 424,-536 424,-500 540,-500 540,-536"/>
<text text-anchor="middle" x="482" y="-514.3" font-family="Open Sans" font-size="14.00" fill="#000000">tickle my brain</text>
</a>
</g>
</g>
<!-- help the Emacs\ncommunity grow&#45;&gt;tickle my brain -->
<g id="G_edge6" class="edge">
<title>help the Emacs\ncommunity grow&#45;&gt;tickle my brain</title>
<path fill="none" stroke="#cccccc" d="M351.2652,-503.9927C371.3661,-506.1464 393.543,-508.5225 413.8337,-510.6965"/>
<polygon fill="#cccccc" stroke="#cccccc" points="413.6214,-514.1937 423.9374,-511.779 414.3672,-507.2335 413.6214,-514.1937"/>
</g>
<!-- Develop\nemacslife.com into\nbeginner/enthusiast\nresources for Emacs -->
<g id="G_node3" class="node">
<title>Develop\nemacslife.com into\nbeginner/enthusiast\nresources for Emacs</title>
<g id="a_G_node3"><a xlink:href="index.html#Develop_emacslife_com_into_beginner_enthusiast_resources_for_Emacs" xlink:title="Develop emacslife.com into beginner/enthusiast resources for Emacs" target="_parent">
<polygon fill="none" stroke="#000000" points="161.5,-612 7.5,-612 7.5,-544 161.5,-544 161.5,-612"/>
<text text-anchor="middle" x="84.5" y="-596.8" font-family="Open Sans" font-size="14.00" fill="#000000">Develop</text>
<text text-anchor="middle" x="84.5" y="-581.8" font-family="Open Sans" font-size="14.00" fill="#000000">emacslife.com into</text>
<text text-anchor="middle" x="84.5" y="-566.8" font-family="Open Sans" font-size="14.00" fill="#000000">beginner/enthusiast</text>
<text text-anchor="middle" x="84.5" y="-551.8" font-family="Open Sans" font-size="14.00" fill="#000000">resources for Emacs</text>
</a>
</g>
</g>
<!-- Develop\nemacslife.com into\nbeginner/enthusiast\nresources for Emacs&#45;&gt;help the Emacs\ncommunity grow -->
<g id="G_edge2" class="edge">
<title>Develop\nemacslife.com into\nbeginner/enthusiast\nresources for Emacs&#45;&gt;help the Emacs\ncommunity grow</title>
<path fill="none" stroke="#cccccc" d="M159.3104,-543.9676C174.3469,-537.4471 190.1055,-530.8387 205,-525 209.5238,-523.2267 214.2115,-521.4501 218.9476,-519.7001"/>
<polygon fill="#cccccc" stroke="#cccccc" points="220.4981,-522.8606 228.7004,-516.1545 218.1064,-516.2819 220.4981,-522.8606"/>
</g>
<!-- get back into Emacs\nHangouts -->
<g id="G_node4" class="node">
<title>get back into Emacs\nHangouts</title>
<g id="a_G_node4"><a xlink:href="index.html#get_back_into_Emacs_Hangouts" xlink:title="get back into Emacs Hangouts" target="_parent">
<polygon fill="none" stroke="#000000" points="159.5,-526 9.5,-526 9.5,-488 159.5,-488 159.5,-526"/>
<text text-anchor="middle" x="84.5" y="-510.8" font-family="Open Sans" font-size="14.00" fill="#000000">get back into Emacs</text>
<text text-anchor="middle" x="84.5" y="-495.8" font-family="Open Sans" font-size="14.00" fill="#000000">Hangouts</text>
</a>
</g>
</g>
<!-- get back into Emacs\nHangouts&#45;&gt;help the Emacs\ncommunity grow -->
<g id="G_edge3" class="edge">
<title>get back into Emacs\nHangouts&#45;&gt;help the Emacs\ncommunity grow</title>
<path fill="none" stroke="#cccccc" d="M159.5312,-503.2764C176.2102,-502.4486 193.8971,-501.5709 210.5913,-500.7424"/>
<polygon fill="#cccccc" stroke="#cccccc" points="211.0254,-504.2252 220.8396,-500.2338 210.6784,-497.2338 211.0254,-504.2252"/>
</g>
<!-- smoothen Emacs and\nOrg use on my phone -->
<g id="G_node5" class="node">
<title>smoothen Emacs and\nOrg use on my phone</title>
<g id="a_G_node5"><a xlink:href="index.html#smoothen_Emacs_and_Org_use_on_my_phone" xlink:title="smoothen Emacs and Org use on my phone" target="_parent">
<polygon fill="none" stroke="#000000" points="165.5,-470 3.5,-470 3.5,-432 165.5,-432 165.5,-470"/>
<text text-anchor="middle" x="84.5" y="-454.8" font-family="Open Sans" font-size="14.00" fill="#000000">smoothen Emacs and</text>
<text text-anchor="middle" x="84.5" y="-439.8" font-family="Open Sans" font-size="14.00" fill="#000000">Org use on my phone</text>
</a>
</g>
</g>
<!-- smoothen Emacs and\nOrg use on my phone&#45;&gt;help the Emacs\ncommunity grow -->
<g id="G_edge4" class="edge">
<title>smoothen Emacs and\nOrg use on my phone&#45;&gt;help the Emacs\ncommunity grow</title>
<path fill="none" stroke="#cccccc" d="M165.5868,-469.5111C180.5142,-472.9189 196.0408,-476.4634 210.7861,-479.8296"/>
<polygon fill="#cccccc" stroke="#cccccc" points="210.3245,-483.3142 220.8526,-482.1277 211.8825,-476.4897 210.3245,-483.3142"/>
</g>
<!-- get more value from\nmy time -->
<g id="G_node12" class="node">
<title>get more value from\nmy time</title>
<g id="a_G_node12"><a xlink:href="index.html#get_more_value_from_my_time" xlink:title="get more value from my time" target="_parent">
<polygon fill="#d3d3d3" stroke="#000000" points="967.5,-376 813.5,-376 813.5,-338 967.5,-338 967.5,-376"/>
<text text-anchor="middle" x="890.5" y="-360.8" font-family="Open Sans" font-size="14.00" fill="#000000">get more value from</text>
<text text-anchor="middle" x="890.5" y="-345.8" font-family="Open Sans" font-size="14.00" fill="#000000">my time</text>
</a>
</g>
</g>
<!-- share useful stuff&#45;&gt;get more value from\nmy time -->
<g id="G_edge27" class="edge">
<title>share useful stuff&#45;&gt;get more value from\nmy time</title>
<path fill="none" stroke="#cccccc" d="M753.6335,-393.9909C771.6974,-389.1088 791.4445,-383.7718 810.1766,-378.709"/>
<polygon fill="#cccccc" stroke="#cccccc" points="811.1251,-382.0783 819.8655,-376.0904 809.2986,-375.3208 811.1251,-382.0783"/>
</g>
<!-- tickle my brain&#45;&gt;share useful stuff -->
<g id="G_edge30" class="edge">
<title>tickle my brain&#45;&gt;share useful stuff</title>
<path fill="none" stroke="#cccccc" d="M523.2968,-499.9286C535.5302,-494.3749 548.8896,-488.1112 561,-482 590.3484,-467.1901 622.7555,-449.1469 647.3539,-435.0885"/>
<polygon fill="#cccccc" stroke="#cccccc" points="649.1113,-438.1154 656.043,-430.1028 645.6275,-432.0439 649.1113,-438.1154"/>
</g>
<!-- tickle my brain&#45;&gt;get more value from\nmy time -->
<g id="G_edge31" class="edge">
<title>tickle my brain&#45;&gt;get more value from\nmy time</title>
<path fill="none" stroke="#cccccc" d="M540.169,-508.8829C601.2939,-497.8456 699.1835,-475.9822 777,-439 807.9554,-424.2885 839.24,-400.9099 861.1021,-382.8729"/>
<polygon fill="#cccccc" stroke="#cccccc" points="863.5856,-385.3581 868.9993,-376.2508 859.0878,-379.9943 863.5856,-385.3581"/>
</g>
<!-- add 50 items to my\nprocess library -->
<g id="G_node8" class="node">
<title>add 50 items to my\nprocess library</title>
<g id="a_G_node8"><a xlink:href="index.html#add_50_items_to_my_process_library" xlink:title="add 50 items to my process library" target="_parent">
<polygon fill="none" stroke="#000000" points="555,-303 409,-303 409,-265 555,-265 555,-303"/>
<text text-anchor="middle" x="482" y="-287.8" font-family="Open Sans" font-size="14.00" fill="#000000">add 50 items to my</text>
<text text-anchor="middle" x="482" y="-272.8" font-family="Open Sans" font-size="14.00" fill="#000000">process library</text>
</a>
</g>
</g>
<!-- add 50 items to my\nprocess library&#45;&gt;share useful stuff -->
<g id="G_edge7" class="edge">
<title>add 50 items to my\nprocess library&#45;&gt;share useful stuff</title>
<path fill="none" stroke="#cccccc" d="M548.4632,-303.0082C552.9511,-305.6348 557.1934,-308.6165 561,-312 588.038,-336.0331 569.3795,-361.6387 597,-385 601.2037,-388.5554 605.8632,-391.6427 610.7853,-394.3234"/>
<polygon fill="#cccccc" stroke="#cccccc" points="609.3605,-397.5221 619.8871,-398.723 612.4069,-391.2198 609.3605,-397.5221"/>
</g>
<!-- delegate more\neffectively -->
<g id="G_node9" class="node">
<title>delegate more\neffectively</title>
<g id="a_G_node9"><a xlink:href="index.html#delegate_more_effectively" xlink:title="delegate more effectively" target="_parent">
<polygon fill="none" stroke="#000000" points="744.5,-376 629.5,-376 629.5,-338 744.5,-338 744.5,-376"/>
<text text-anchor="middle" x="687" y="-360.8" font-family="Open Sans" font-size="14.00" fill="#000000">delegate more</text>
<text text-anchor="middle" x="687" y="-345.8" font-family="Open Sans" font-size="14.00" fill="#000000">effectively</text>
</a>
</g>
</g>
<!-- add 50 items to my\nprocess library&#45;&gt;delegate more\neffectively -->
<g id="G_edge8" class="edge">
<title>add 50 items to my\nprocess library&#45;&gt;delegate more\neffectively</title>
<path fill="none" stroke="#cccccc" d="M537.9427,-303.0385C545.734,-305.9191 553.6005,-308.9506 561,-312 577.3595,-318.7418 580.5121,-322.5784 597,-329 604.2905,-331.8394 611.9971,-334.595 619.7101,-337.1988"/>
<polygon fill="#cccccc" stroke="#cccccc" points="618.8594,-340.6036 629.4525,-340.4109 621.0513,-333.9556 618.8594,-340.6036"/>
</g>
<!-- delegate more\neffectively&#45;&gt;get more value from\nmy time -->
<g id="G_edge11" class="edge">
<title>delegate more\neffectively&#45;&gt;get more value from\nmy time</title>
<path fill="none" stroke="#cccccc" d="M744.7706,-357C762.8823,-357 783.296,-357 802.9845,-357"/>
<polygon fill="#cccccc" stroke="#cccccc" points="803.1981,-360.5001 813.1981,-357 803.1981,-353.5001 803.1981,-360.5001"/>
</g>
<!-- delegate 2,000 hours\nor $20,000 of\nmeaningful, useful\nwork -->
<g id="G_node10" class="node">
<title>delegate 2,000 hours\nor $20,000 of\nmeaningful, useful\nwork</title>
<g id="a_G_node10"><a xlink:href="index.html#delegate_2_000_hours_or__20_000_of_meaningful__useful_work" xlink:title="delegate 2,000 hours or $20,000 of meaningful, useful work" target="_parent">
<polygon fill="none" stroke="#000000" points="561,-184 403,-184 403,-116 561,-116 561,-184"/>
<text text-anchor="middle" x="482" y="-168.8" font-family="Open Sans" font-size="14.00" fill="#000000">delegate 2,000 hours</text>
<text text-anchor="middle" x="482" y="-153.8" font-family="Open Sans" font-size="14.00" fill="#000000">or $20,000 of</text>
<text text-anchor="middle" x="482" y="-138.8" font-family="Open Sans" font-size="14.00" fill="#000000">meaningful, useful</text>
<text text-anchor="middle" x="482" y="-123.8" font-family="Open Sans" font-size="14.00" fill="#000000">work</text>
</a>
</g>
</g>
<!-- delegate 2,000 hours\nor $20,000 of\nmeaningful, useful\nwork&#45;&gt;delegate more\neffectively -->
<g id="G_edge10" class="edge">
<title>delegate 2,000 hours\nor $20,000 of\nmeaningful, useful\nwork&#45;&gt;delegate more\neffectively</title>
<path fill="none" stroke="#cccccc" d="M509.9963,-184.2081C525.9117,-204.4441 545.6617,-230.9441 561,-256 579.8871,-286.8532 569.4986,-305.4986 597,-329 603.6885,-334.7157 611.5374,-339.2656 619.7642,-342.8873"/>
<polygon fill="#cccccc" stroke="#cccccc" points="618.5845,-346.1843 629.1714,-346.5946 621.1511,-339.6718 618.5845,-346.1843"/>
</g>
<!-- build good karma -->
<g id="G_node11" class="node">
<title>build good karma</title>
<polygon fill="none" stroke="#000000" points="754.5,-122 619.5,-122 619.5,-86 754.5,-86 754.5,-122"/>
<text text-anchor="middle" x="687" y="-100.3" font-family="Open Sans" font-size="14.00" fill="#000000">build good karma</text>
</g>
<!-- delegate 2,000 hours\nor $20,000 of\nmeaningful, useful\nwork&#45;&gt;build good karma -->
<g id="G_edge9" class="edge">
<title>delegate 2,000 hours\nor $20,000 of\nmeaningful, useful\nwork&#45;&gt;build good karma</title>
<path fill="none" stroke="#cccccc" d="M561.2584,-132.2152C576.9705,-128.6895 593.4518,-124.9913 609.1177,-121.476"/>
<polygon fill="#cccccc" stroke="#cccccc" points="610.2873,-124.8007 619.2783,-119.1961 608.7546,-117.9705 610.2873,-124.8007"/>
</g>
<!-- live an awesome life -->
<g id="G_node14" class="node">
<title>live an awesome life</title>
<g id="a_G_node14"><a xlink:href="index.html#live_an_awesome_life" xlink:title="live an awesome life" target="_parent">
<polygon fill="#d3d3d3" stroke="#000000" points="1157,-240 1004,-240 1004,-204 1157,-204 1157,-240"/>
<text text-anchor="middle" x="1080.5" y="-218.3" font-family="Open Sans" font-size="14.00" fill="#000000">live an awesome life</text>
</a>
</g>
</g>
<!-- get more value from\nmy time&#45;&gt;live an awesome life -->
<g id="G_edge13" class="edge">
<title>get more value from\nmy time&#45;&gt;live an awesome life</title>
<path fill="none" stroke="#cccccc" d="M917.3194,-337.9441C951.2221,-313.8554 1009.61,-272.3692 1046.5772,-246.1031"/>
<polygon fill="#cccccc" stroke="#cccccc" points="1048.9068,-248.7414 1055.0314,-240.0961 1044.8523,-243.0351 1048.9068,-248.7414"/>
</g>
<!-- create\nsyntopicon/bibliography -->
<g id="G_node13" class="node">
<title>create\nsyntopicon/bibliography</title>
<g id="a_G_node13"><a xlink:href="index.html#create_syntopicon_bibliography" xlink:title="create syntopicon/bibliography" target="_parent">
<polygon fill="none" stroke="#000000" points="777,-320 597,-320 597,-282 777,-282 777,-320"/>
<text text-anchor="middle" x="687" y="-304.8" font-family="Open Sans" font-size="14.00" fill="#000000">create</text>
<text text-anchor="middle" x="687" y="-289.8" font-family="Open Sans" font-size="14.00" fill="#000000">syntopicon/bibliography</text>
</a>
</g>
</g>
<!-- create\nsyntopicon/bibliography&#45;&gt;get more value from\nmy time -->
<g id="G_edge12" class="edge">
<title>create\nsyntopicon/bibliography&#45;&gt;get more value from\nmy time</title>
<path fill="none" stroke="#cccccc" d="M756.1798,-320.0372C773.9559,-324.9289 793.2146,-330.2286 811.4486,-335.2463"/>
<polygon fill="#cccccc" stroke="#cccccc" points="810.5957,-338.6416 821.1659,-337.9204 812.453,-331.8925 810.5957,-338.6416"/>
</g>
<!-- make better\ndecisions -->
<g id="G_node15" class="node">
<title>make better\ndecisions</title>
<g id="a_G_node15"><a xlink:href="index.html#make_better_decisions" xlink:title="make better decisions" target="_parent">
<polygon fill="none" stroke="#000000" points="940.5,-269 840.5,-269 840.5,-231 940.5,-231 940.5,-269"/>
<text text-anchor="middle" x="890.5" y="-253.8" font-family="Open Sans" font-size="14.00" fill="#000000">make better</text>
<text text-anchor="middle" x="890.5" y="-238.8" font-family="Open Sans" font-size="14.00" fill="#000000">decisions</text>
</a>
</g>
</g>
<!-- make better\ndecisions&#45;&gt;live an awesome life -->
<g id="G_edge14" class="edge">
<title>make better\ndecisions&#45;&gt;live an awesome life</title>
<path fill="none" stroke="#cccccc" d="M940.9177,-242.57C957.1508,-240.1778 975.6299,-237.4545 993.7095,-234.7902"/>
<polygon fill="#cccccc" stroke="#cccccc" points="994.3129,-238.2391 1003.6958,-233.3185 993.2923,-231.3139 994.3129,-238.2391"/>
</g>
<!-- write mini&#45;book on\nbuilding Emacs\nhabits -->
<g id="G_node16" class="node">
<title>write mini&#45;book on\nbuilding Emacs\nhabits</title>
<g id="a_G_node16"><a xlink:href="index.html#write_mini_book_on_building_Emacs_habits" xlink:title="write mini&#45;book on building Emacs habits" target="_parent">
<polygon fill="none" stroke="#000000" points="156,-325.5 13,-325.5 13,-272.5 156,-272.5 156,-325.5"/>
<text text-anchor="middle" x="84.5" y="-310.3" font-family="Open Sans" font-size="14.00" fill="#000000">write mini&#45;book on</text>
<text text-anchor="middle" x="84.5" y="-295.3" font-family="Open Sans" font-size="14.00" fill="#000000">building Emacs</text>
<text text-anchor="middle" x="84.5" y="-280.3" font-family="Open Sans" font-size="14.00" fill="#000000">habits</text>
</a>
</g>
</g>
<!-- write mini&#45;book on\nbuilding Emacs\nhabits&#45;&gt;help the Emacs\ncommunity grow -->
<g id="G_edge15" class="edge">
<title>write mini&#45;book on\nbuilding Emacs\nhabits&#45;&gt;help the Emacs\ncommunity grow</title>
<path fill="none" stroke="#cccccc" d="M126.4965,-325.5668C141.5838,-336.8203 157.6565,-351.0362 169,-367 196.6034,-405.8467 171.3265,-434.279 205,-468 207.1768,-470.1799 209.5287,-472.1968 212.0132,-474.0628"/>
<polygon fill="#cccccc" stroke="#cccccc" points="210.6178,-477.33 220.9102,-479.8433 214.4315,-471.4601 210.6178,-477.33"/>
</g>
<!-- create four major\nprojects in a year -->
<g id="G_node17" class="node">
<title>create four major\nprojects in a year</title>
<g id="a_G_node17"><a xlink:href="index.html#create_four_major_projects_in_a_year" xlink:title="create four major projects in a year" target="_parent">
<polygon fill="none" stroke="#000000" points="353,-276 219,-276 219,-238 353,-238 353,-276"/>
<text text-anchor="middle" x="286" y="-260.8" font-family="Open Sans" font-size="14.00" fill="#000000">create four major</text>
<text text-anchor="middle" x="286" y="-245.8" font-family="Open Sans" font-size="14.00" fill="#000000">projects in a year</text>
</a>
</g>
</g>
<!-- write mini&#45;book on\nbuilding Emacs\nhabits&#45;&gt;create four major\nprojects in a year -->
<g id="G_edge16" class="edge">
<title>write mini&#45;book on\nbuilding Emacs\nhabits&#45;&gt;create four major\nprojects in a year</title>
<path fill="none" stroke="#cccccc" d="M156.1087,-284.0741C173.1296,-280.5263 191.3646,-276.7255 208.63,-273.1268"/>
<polygon fill="#cccccc" stroke="#cccccc" points="209.5917,-276.5016 218.6671,-271.0347 208.1633,-269.6489 209.5917,-276.5016"/>
</g>
<!-- publish resources -->
<g id="G_node18" class="node">
<title>publish resources</title>
<g id="a_G_node18"><a xlink:href="index.html#publish_resources" xlink:title="publish resources" target="_parent">
<polygon fill="none" stroke="#000000" points="550.5,-357 413.5,-357 413.5,-321 550.5,-321 550.5,-357"/>
<text text-anchor="middle" x="482" y="-335.3" font-family="Open Sans" font-size="14.00" fill="#000000">publish resources</text>
</a>
</g>
</g>
<!-- create four major\nprojects in a year&#45;&gt;publish resources -->
<g id="G_edge17" class="edge">
<title>create four major\nprojects in a year&#45;&gt;publish resources</title>
<path fill="none" stroke="#cccccc" d="M347.8909,-276.1326C354.4673,-278.8295 360.9551,-281.79 367,-285 384.6639,-294.38 385.3197,-302.6508 403,-312 406.2673,-313.7277 409.6676,-315.3792 413.1419,-316.9524"/>
<polygon fill="#cccccc" stroke="#cccccc" points="411.8996,-320.2275 422.471,-320.9326 414.6466,-313.789 411.8996,-320.2275"/>
</g>
<!-- publish resources&#45;&gt;share useful stuff -->
<g id="G_edge20" class="edge">
<title>publish resources&#45;&gt;share useful stuff</title>
<path fill="none" stroke="#cccccc" d="M524.5277,-357.0617C546.0709,-365.942 572.7404,-376.528 597,-385 602.6237,-386.9639 608.4743,-388.9169 614.3725,-390.8222"/>
<polygon fill="#cccccc" stroke="#cccccc" points="613.7219,-394.2877 624.3121,-393.9769 615.8395,-387.6157 613.7219,-394.2877"/>
</g>
<!-- write a set of three\nor four 4&#45;part\ncourses -->
<g id="G_node19" class="node">
<title>write a set of three\nor four 4&#45;part\ncourses</title>
<g id="a_G_node19"><a xlink:href="index.html#write_a_set_of_three_or_four_4_part_courses" xlink:title="write a set of three or four 4&#45;part courses" target="_parent">
<polygon fill="none" stroke="#000000" points="358,-219.5 214,-219.5 214,-166.5 358,-166.5 358,-219.5"/>
<text text-anchor="middle" x="286" y="-204.3" font-family="Open Sans" font-size="14.00" fill="#000000">write a set of three</text>
<text text-anchor="middle" x="286" y="-189.3" font-family="Open Sans" font-size="14.00" fill="#000000">or four 4&#45;part</text>
<text text-anchor="middle" x="286" y="-174.3" font-family="Open Sans" font-size="14.00" fill="#000000">courses</text>
</a>
</g>
</g>
<!-- write a set of three\nor four 4&#45;part\ncourses&#45;&gt;publish resources -->
<g id="G_edge18" class="edge">
<title>write a set of three\nor four 4&#45;part\ncourses&#45;&gt;publish resources</title>
<path fill="none" stroke="#cccccc" d="M355.9422,-219.6918C359.9093,-222.516 363.6419,-225.6116 367,-229 395.3044,-257.5596 373.4546,-284.7263 403,-312 404.1316,-313.0446 405.3053,-314.049 406.5158,-315.0147"/>
<polygon fill="#cccccc" stroke="#cccccc" points="404.7585,-318.0542 414.9796,-320.8434 408.7288,-312.289 404.7585,-318.0542"/>
</g>
<!-- publish 12 free/PWYC\nresources -->
<g id="G_node20" class="node">
<title>publish 12 free/PWYC\nresources</title>
<g id="a_G_node20"><a xlink:href="index.html#publish_12_free_PWYC_resources" xlink:title="publish 12 free/PWYC resources" target="_parent">
<polygon fill="none" stroke="#000000" points="367,-332 205,-332 205,-294 367,-294 367,-332"/>
<text text-anchor="middle" x="286" y="-316.8" font-family="Open Sans" font-size="14.00" fill="#000000">publish 12 free/PWYC</text>
<text text-anchor="middle" x="286" y="-301.8" font-family="Open Sans" font-size="14.00" fill="#000000">resources</text>
</a>
</g>
</g>
<!-- publish 12 free/PWYC\nresources&#45;&gt;publish resources -->
<g id="G_edge19" class="edge">
<title>publish 12 free/PWYC\nresources&#45;&gt;publish resources</title>
<path fill="none" stroke="#cccccc" d="M367.1355,-323.7629C379.1479,-325.3564 391.5089,-326.9961 403.4669,-328.5823"/>
<polygon fill="#cccccc" stroke="#cccccc" points="403.0269,-332.0546 413.4003,-329.9 403.9474,-325.1153 403.0269,-332.0546"/>
</g>
<!-- contribute to open\nsource documentation -->
<g id="G_node21" class="node">
<title>contribute to open\nsource documentation</title>
<g id="a_G_node21"><a xlink:href="index.html#contribute_to_open_source_documentation" xlink:title="contribute to open source documentation" target="_parent">
<polygon fill="none" stroke="#000000" points="169,-689 0,-689 0,-651 169,-651 169,-689"/>
<text text-anchor="middle" x="84.5" y="-673.8" font-family="Open Sans" font-size="14.00" fill="#000000">contribute to open</text>
<text text-anchor="middle" x="84.5" y="-658.8" font-family="Open Sans" font-size="14.00" fill="#000000">source documentation</text>
</a>
</g>
</g>
<!-- improve my coding\nskills -->
<g id="G_node22" class="node">
<title>improve my coding\nskills</title>
<g id="a_G_node22"><a xlink:href="index.html#improve_my_coding_skills" xlink:title="improve my coding skills" target="_parent">
<polygon fill="#d3d3d3" stroke="#000000" points="359,-700 213,-700 213,-662 359,-662 359,-700"/>
<text text-anchor="middle" x="286" y="-684.8" font-family="Open Sans" font-size="14.00" fill="#000000">improve my coding</text>
<text text-anchor="middle" x="286" y="-669.8" font-family="Open Sans" font-size="14.00" fill="#000000">skills</text>
</a>
</g>
</g>
<!-- contribute to open\nsource documentation&#45;&gt;improve my coding\nskills -->
<g id="G_edge21" class="edge">
<title>contribute to open\nsource documentation&#45;&gt;improve my coding\nskills</title>
<path fill="none" stroke="#cccccc" d="M169.0783,-674.6172C180.2102,-675.2249 191.6125,-675.8473 202.7224,-676.4538"/>
<polygon fill="#cccccc" stroke="#cccccc" points="202.6511,-679.9551 212.827,-677.0054 203.0327,-672.9655 202.6511,-679.9551"/>
</g>
<!-- improve my coding\nskills&#45;&gt;tickle my brain -->
<g id="G_edge23" class="edge">
<title>improve my coding\nskills&#45;&gt;tickle my brain</title>
<path fill="none" stroke="#cccccc" d="M351.6026,-661.8042C356.9954,-659.1966 362.2075,-656.2718 367,-653 409.4008,-624.0528 445.3567,-575.5384 465.274,-545.2294"/>
<polygon fill="#cccccc" stroke="#cccccc" points="468.4567,-546.7516 470.9296,-536.4494 462.5719,-542.9609 468.4567,-546.7516"/>
</g>
<!-- move my services\ninto Docker or\nsimilar containers -->
<g id="G_node23" class="node">
<title>move my services\ninto Docker or\nsimilar containers</title>
<g id="a_G_node23"><a xlink:href="index.html#move_my_services_into_Docker_or_similar_containers" xlink:title="move my services into Docker or similar containers" target="_parent">
<polygon fill="none" stroke="#000000" points="153,-760.5 16,-760.5 16,-707.5 153,-707.5 153,-760.5"/>
<text text-anchor="middle" x="84.5" y="-745.3" font-family="Open Sans" font-size="14.00" fill="#000000">move my services</text>
<text text-anchor="middle" x="84.5" y="-730.3" font-family="Open Sans" font-size="14.00" fill="#000000">into Docker or</text>
<text text-anchor="middle" x="84.5" y="-715.3" font-family="Open Sans" font-size="14.00" fill="#000000">similar containers</text>
</a>
</g>
</g>
<!-- move my services\ninto Docker or\nsimilar containers&#45;&gt;improve my coding\nskills -->
<g id="G_edge22" class="edge">
<title>move my services\ninto Docker or\nsimilar containers&#45;&gt;improve my coding\nskills</title>
<path fill="none" stroke="#cccccc" d="M153.2813,-715.9086C169.5785,-711.622 187.1206,-707.008 203.9423,-702.5834"/>
<polygon fill="#cccccc" stroke="#cccccc" points="204.9679,-705.9328 213.7486,-700.0041 203.1872,-699.163 204.9679,-705.9328"/>
</g>
<!-- draw recognizable\npeople -->
<g id="G_node24" class="node">
<title>draw recognizable\npeople</title>
<g id="a_G_node24"><a xlink:href="index.html#draw_recognizable_people" xlink:title="draw recognizable people" target="_parent">
<polygon fill="none" stroke="#000000" points="356,-388 216,-388 216,-350 356,-350 356,-388"/>
<text text-anchor="middle" x="286" y="-372.8" font-family="Open Sans" font-size="14.00" fill="#000000">draw recognizable</text>
<text text-anchor="middle" x="286" y="-357.8" font-family="Open Sans" font-size="14.00" fill="#000000">people</text>
</a>
</g>
</g>
<!-- improve my drawing\nskills -->
<g id="G_node25" class="node">
<title>improve my drawing\nskills</title>
<g id="a_G_node25"><a xlink:href="index.html#improve_my_drawing_skills" xlink:title="improve my drawing skills" target="_parent">
<polygon fill="#d3d3d3" stroke="#000000" points="560,-431 404,-431 404,-393 560,-393 560,-431"/>
<text text-anchor="middle" x="482" y="-415.8" font-family="Open Sans" font-size="14.00" fill="#000000">improve my drawing</text>
<text text-anchor="middle" x="482" y="-400.8" font-family="Open Sans" font-size="14.00" fill="#000000">skills</text>
</a>
</g>
</g>
<!-- draw recognizable\npeople&#45;&gt;improve my drawing\nskills -->
<g id="G_edge24" class="edge">
<title>draw recognizable\npeople&#45;&gt;improve my drawing\nskills</title>
<path fill="none" stroke="#cccccc" d="M356.2069,-384.4025C368.4279,-387.0837 381.2775,-389.9027 393.9055,-392.6731"/>
<polygon fill="#cccccc" stroke="#cccccc" points="393.4514,-396.1567 403.9691,-394.881 394.9515,-389.3193 393.4514,-396.1567"/>
</g>
<!-- improve my drawing\nskills&#45;&gt;share useful stuff -->
<g id="G_edge26" class="edge">
<title>improve my drawing\nskills&#45;&gt;share useful stuff</title>
<path fill="none" stroke="#cccccc" d="M560.0865,-412C576.2369,-412 593.246,-412 609.3797,-412"/>
<polygon fill="#cccccc" stroke="#cccccc" points="609.8377,-415.5001 619.8376,-412 609.8376,-408.5001 609.8377,-415.5001"/>
</g>
<!-- illustrate another\nbook for A&#45; or her\ncousins -->
<g id="G_node26" class="node">
<title>illustrate another\nbook for A&#45; or her\ncousins</title>
<g id="a_G_node26"><a xlink:href="index.html#illustrate_another_book_for_A__or_her_cousins" xlink:title="illustrate another book for A&#45; or her cousins" target="_parent">
<polygon fill="none" stroke="#000000" points="353,-459.5 219,-459.5 219,-406.5 353,-406.5 353,-459.5"/>
<text text-anchor="middle" x="286" y="-444.3" font-family="Open Sans" font-size="14.00" fill="#000000">illustrate another</text>
<text text-anchor="middle" x="286" y="-429.3" font-family="Open Sans" font-size="14.00" fill="#000000">book for A&#45; or her</text>
<text text-anchor="middle" x="286" y="-414.3" font-family="Open Sans" font-size="14.00" fill="#000000">cousins</text>
</a>
</g>
</g>
<!-- illustrate another\nbook for A&#45; or her\ncousins&#45;&gt;improve my drawing\nskills -->
<g id="G_edge25" class="edge">
<title>illustrate another\nbook for A&#45; or her\ncousins&#45;&gt;improve my drawing\nskills</title>
<path fill="none" stroke="#cccccc" d="M353.1779,-425.8024C366.159,-424.4115 379.9434,-422.9346 393.484,-421.4839"/>
<polygon fill="#cccccc" stroke="#cccccc" points="394.2035,-424.9269 403.7737,-420.3814 393.4578,-417.9667 394.2035,-424.9269"/>
</g>
<!-- build organizers and\nother things for the\nhouse -->
<g id="G_node27" class="node">
<title>build organizers and\nother things for the\nhouse</title>
<g id="a_G_node27"><a xlink:href="index.html#build_organizers_and_other_things_for_the_house" xlink:title="build organizers and other things for the house" target="_parent">
<polygon fill="none" stroke="#000000" points="363.5,-643.5 208.5,-643.5 208.5,-590.5 363.5,-590.5 363.5,-643.5"/>
<text text-anchor="middle" x="286" y="-628.3" font-family="Open Sans" font-size="14.00" fill="#000000">build organizers and</text>
<text text-anchor="middle" x="286" y="-613.3" font-family="Open Sans" font-size="14.00" fill="#000000">other things for the</text>
<text text-anchor="middle" x="286" y="-598.3" font-family="Open Sans" font-size="14.00" fill="#000000">house</text>
</a>
</g>
</g>
<!-- build organizers and\nother things for the\nhouse&#45;&gt;tickle my brain -->
<g id="G_edge28" class="edge">
<title>build organizers and\nother things for the\nhouse&#45;&gt;tickle my brain</title>
<path fill="none" stroke="#cccccc" d="M347.2871,-590.4097C353.9766,-587.3151 360.656,-584.1407 367,-581 392.1705,-568.5388 419.7899,-553.4561 441.6516,-541.173"/>
<polygon fill="#cccccc" stroke="#cccccc" points="443.6571,-544.0601 450.6445,-536.096 440.2157,-537.9644 443.6571,-544.0601"/>
</g>
<!-- sew more clothes for\nA&#45; and me -->
<g id="G_node28" class="node">
<title>sew more clothes for\nA&#45; and me</title>
<g id="a_G_node28"><a xlink:href="index.html#sew_more_clothes_for_A__and_me" xlink:title="sew more clothes for A&#45; and me" target="_parent">
<polygon fill="none" stroke="#000000" points="364.5,-572 207.5,-572 207.5,-534 364.5,-534 364.5,-572"/>
<text text-anchor="middle" x="286" y="-556.8" font-family="Open Sans" font-size="14.00" fill="#000000">sew more clothes for</text>
<text text-anchor="middle" x="286" y="-541.8" font-family="Open Sans" font-size="14.00" fill="#000000">A&#45; and me</text>
</a>
</g>
</g>
<!-- sew more clothes for\nA&#45; and me&#45;&gt;tickle my brain -->
<g id="G_edge29" class="edge">
<title>sew more clothes for\nA&#45; and me&#45;&gt;tickle my brain</title>
<path fill="none" stroke="#cccccc" d="M364.5914,-538.9658C380.8411,-536.0641 397.8326,-533.0299 413.6805,-530.1999"/>
<polygon fill="#cccccc" stroke="#cccccc" points="414.6815,-533.5766 423.9105,-528.3731 413.4509,-526.6856 414.6815,-533.5766"/>
</g>
<!-- get driver&#39;s\nlicense? -->
<g id="G_node29" class="node">
<title>get driver&#39;s\nlicense?</title>
<g id="a_G_node29"><a xlink:href="index.html#get_driver_s_license_" xlink:title="get driver&#39;s license?" target="_parent">
<polygon fill="none" stroke="#000000" points="733,-178 641,-178 641,-140 733,-140 733,-178"/>
<text text-anchor="middle" x="687" y="-162.8" font-family="Open Sans" font-size="14.00" fill="#000000">get driver&#39;s</text>
<text text-anchor="middle" x="687" y="-147.8" font-family="Open Sans" font-size="14.00" fill="#000000">license?</text>
</a>
</g>
</g>
<!-- enrich our\nexperiences -->
<g id="G_node30" class="node">
<title>enrich our\nexperiences</title>
<g id="a_G_node30"><a xlink:href="index.html#enrich_our_experiences" xlink:title="enrich our experiences" target="_parent">
<polygon fill="#d3d3d3" stroke="#000000" points="939.5,-213 841.5,-213 841.5,-175 939.5,-175 939.5,-213"/>
<text text-anchor="middle" x="890.5" y="-197.8" font-family="Open Sans" font-size="14.00" fill="#000000">enrich our</text>
<text text-anchor="middle" x="890.5" y="-182.8" font-family="Open Sans" font-size="14.00" fill="#000000">experiences</text>
</a>
</g>
</g>
<!-- get driver&#39;s\nlicense?&#45;&gt;enrich our\nexperiences -->
<g id="G_edge32" class="edge">
<title>get driver&#39;s\nlicense?&#45;&gt;enrich our\nexperiences</title>
<path fill="none" stroke="#cccccc" d="M733.1773,-166.942C762.2766,-171.9468 800.1235,-178.4561 831.4036,-183.836"/>
<polygon fill="#cccccc" stroke="#cccccc" points="830.8607,-187.2939 841.3093,-185.5397 832.0473,-180.3952 830.8607,-187.2939"/>
</g>
<!-- enrich our\nexperiences&#45;&gt;live an awesome life -->
<g id="G_edge35" class="edge">
<title>enrich our\nexperiences&#45;&gt;live an awesome life</title>
<path fill="none" stroke="#cccccc" d="M939.9243,-201.2836C956.4211,-203.7147 975.321,-206.4999 993.7989,-209.223"/>
<polygon fill="#cccccc" stroke="#cccccc" points="993.3009,-212.6873 1003.7043,-210.6827 994.3215,-205.7621 993.3009,-212.6873"/>
</g>
<!-- set up distinctly\ninteresting memories\nfor four months\nstraight -->
<g id="G_node31" class="node">
<title>set up distinctly\ninteresting memories\nfor four months\nstraight</title>
<g id="a_G_node31"><a xlink:href="index.html#set_up_distinctly_interesting_memories_for_four_months_straight" xlink:title="set up distinctly interesting memories for four months straight" target="_parent">
<polygon fill="none" stroke="#000000" points="767.5,-68 606.5,-68 606.5,0 767.5,0 767.5,-68"/>
<text text-anchor="middle" x="687" y="-52.8" font-family="Open Sans" font-size="14.00" fill="#000000">set up distinctly</text>
<text text-anchor="middle" x="687" y="-37.8" font-family="Open Sans" font-size="14.00" fill="#000000">interesting memories</text>
<text text-anchor="middle" x="687" y="-22.8" font-family="Open Sans" font-size="14.00" fill="#000000">for four months</text>
<text text-anchor="middle" x="687" y="-7.8" font-family="Open Sans" font-size="14.00" fill="#000000">straight</text>
</a>
</g>
</g>
<!-- set up distinctly\ninteresting memories\nfor four months\nstraight&#45;&gt;enrich our\nexperiences -->
<g id="G_edge33" class="edge">
<title>set up distinctly\ninteresting memories\nfor four months\nstraight&#45;&gt;enrich our\nexperiences</title>
<path fill="none" stroke="#cccccc" d="M767.348,-68.1466C770.7892,-70.8986 774.0341,-73.8464 777,-77 806.2322,-108.0825 782.2655,-136.4022 813,-166 818.455,-171.2533 824.968,-175.5313 831.8681,-179.0126"/>
<polygon fill="#cccccc" stroke="#cccccc" points="830.8953,-182.4108 841.4542,-183.283 833.7438,-176.0166 830.8953,-182.4108"/>
</g>
<!-- try two weeks of\nhaving prepared\nactivities/provocations\nfor A&#45; -->
<g id="G_node32" class="node">
<title>try two weeks of\nhaving prepared\nactivities/provocations\nfor A&#45;</title>
<g id="a_G_node32"><a xlink:href="index.html#try_two_weeks_of_having_prepared_activities_provocations_for_A_" xlink:title="try two weeks of having prepared activities/provocations for A&#45;" target="_parent">
<polygon fill="none" stroke="#000000" points="771,-264 603,-264 603,-196 771,-196 771,-264"/>
<text text-anchor="middle" x="687" y="-248.8" font-family="Open Sans" font-size="14.00" fill="#000000">try two weeks of</text>
<text text-anchor="middle" x="687" y="-233.8" font-family="Open Sans" font-size="14.00" fill="#000000">having prepared</text>
<text text-anchor="middle" x="687" y="-218.8" font-family="Open Sans" font-size="14.00" fill="#000000">activities/provocations</text>
<text text-anchor="middle" x="687" y="-203.8" font-family="Open Sans" font-size="14.00" fill="#000000">for A&#45;</text>
</a>
</g>
</g>
<!-- try two weeks of\nhaving prepared\nactivities/provocations\nfor A&#45;&#45;&gt;enrich our\nexperiences -->
<g id="G_edge34" class="edge">
<title>try two weeks of\nhaving prepared\nactivities/provocations\nfor A&#45;&#45;&gt;enrich our\nexperiences</title>
<path fill="none" stroke="#cccccc" d="M771.2402,-215.0976C791.4458,-211.5231 812.6012,-207.7806 831.3887,-204.457"/>
<polygon fill="#cccccc" stroke="#cccccc" points="832.0324,-207.8976 841.2698,-202.709 830.8129,-201.0046 832.0324,-207.8976"/>
</g>
<!-- maintain or improve\nmy health -->
<g id="G_node33" class="node">
<title>maintain or improve\nmy health</title>
<g id="a_G_node33"><a xlink:href="index.html#maintain_or_improve_my_health" xlink:title="maintain or improve my health" target="_parent">
<polygon fill="none" stroke="#000000" points="968,-157 813,-157 813,-119 968,-119 968,-157"/>
<text text-anchor="middle" x="890.5" y="-141.8" font-family="Open Sans" font-size="14.00" fill="#000000">maintain or improve</text>
<text text-anchor="middle" x="890.5" y="-126.8" font-family="Open Sans" font-size="14.00" fill="#000000">my health</text>
</a>
</g>
</g>
<!-- maintain or improve\nmy health&#45;&gt;live an awesome life -->
<g id="G_edge36" class="edge">
<title>maintain or improve\nmy health&#45;&gt;live an awesome life</title>
<path fill="none" stroke="#cccccc" d="M945.8433,-157.112C953.343,-159.9585 960.8975,-162.9612 968,-166 991.4135,-176.0175 1016.8646,-188.5423 1037.6275,-199.2053"/>
<polygon fill="#cccccc" stroke="#cccccc" points="1036.0251,-202.3169 1046.5153,-203.8026 1039.2412,-196.0994 1036.0251,-202.3169"/>
</g>
</g>
</svg>
