<?xml version="1.0" encoding="UTF-8" standalone="no"?>
<!DOCTYPE svg PUBLIC "-//W3C//DTD SVG 1.1//EN"
 "http://www.w3.org/Graphics/SVG/1.1/DTD/svg11.dtd">
<!-- Generated by graphviz version 2.43.0 (0)
 -->
<!-- Title: G Pages: 1 -->
<svg width="532pt" height="530pt"
 viewBox="0.00 0.00 532.00 529.50" xmlns="http://www.w3.org/2000/svg" xmlns:xlink="http://www.w3.org/1999/xlink">
<g id="G" class="graph" transform="scale(1 1) rotate(0) translate(4 525.5)">
<title>G</title>
<polygon fill="white" stroke="transparent" points="-4,4 -4,-525.5 528,-525.5 528,4 -4,4"/>
<!-- make my server more\nreproducible -->
<g id="G_node1" class="node">
<title>make my server more\nreproducible</title>
<g id="a_G_node1"><a xlink:href="index.html#make_my_server_more_reproducible" xlink:title="make my server more reproducible" target="_parent">
<polygon fill="none" stroke="black" points="340.5,-116.5 182.5,-116.5 182.5,-78.5 340.5,-78.5 340.5,-116.5"/>
<text text-anchor="middle" x="261.5" y="-101.3" font-family="Open Sans" font-size="14.00">make my server more</text>
<text text-anchor="middle" x="261.5" y="-86.3" font-family="Open Sans" font-size="14.00">reproducible</text>
</a>
</g>
</g>
<!-- tickle my brain and\nlive an awesome life -->
<g id="G_node2" class="node">
<title>tickle my brain and\nlive an awesome life</title>
<g id="a_G_node2"><a xlink:href="index.html#tickle_my_brain_and_live_an_awesome_life" xlink:title="tickle my brain and live an awesome life" target="_parent">
<polygon fill="lightgrey" stroke="black" points="524,-275.5 378,-275.5 378,-237.5 524,-237.5 524,-275.5"/>
<text text-anchor="middle" x="451" y="-260.3" font-family="Open Sans" font-size="14.00">tickle my brain and</text>
<text text-anchor="middle" x="451" y="-245.3" font-family="Open Sans" font-size="14.00">live an awesome life</text>
</a>
</g>
</g>
<!-- make my server more\nreproducible&#45;&gt;tickle my brain and\nlive an awesome life -->
<g id="G_edge1" class="edge">
<title>make my server more\nreproducible&#45;&gt;tickle my brain and\nlive an awesome life</title>
<path fill="none" stroke="#cccccc" d="M285.12,-116.68C318.62,-145.09 381.53,-198.44 419.21,-230.39"/>
<polygon fill="#cccccc" stroke="#cccccc" points="417.41,-233.45 427.3,-237.25 421.94,-228.12 417.41,-233.45"/>
</g>
<!-- make an EPUB3\nread&#45;aloud book\nthat&#39;s also viewable\nthrough the web -->
<g id="G_node3" class="node">
<title>make an EPUB3\nread&#45;aloud book\nthat&#39;s also viewable\nthrough the web</title>
<g id="a_G_node3"><a xlink:href="index.html#make_an_EPUB3_read_aloud_book_that_s_also_viewable_through_the_web" xlink:title="make an EPUB3 read&#45;aloud book that&#39;s also viewable through the web" target="_parent">
<polygon fill="none" stroke="black" points="333,-401.5 190,-401.5 190,-333.5 333,-333.5 333,-401.5"/>
<text text-anchor="middle" x="261.5" y="-386.3" font-family="Open Sans" font-size="14.00">make an EPUB3</text>
<text text-anchor="middle" x="261.5" y="-371.3" font-family="Open Sans" font-size="14.00">read&#45;aloud book</text>
<text text-anchor="middle" x="261.5" y="-356.3" font-family="Open Sans" font-size="14.00">that&#39;s also viewable</text>
<text text-anchor="middle" x="261.5" y="-341.3" font-family="Open Sans" font-size="14.00">through the web</text>
</a>
</g>
</g>
<!-- make an EPUB3\nread&#45;aloud book\nthat&#39;s also viewable\nthrough the web&#45;&gt;tickle my brain and\nlive an awesome life -->
<g id="G_edge2" class="edge">
<title>make an EPUB3\nread&#45;aloud book\nthat&#39;s also viewable\nthrough the web&#45;&gt;tickle my brain and\nlive an awesome life</title>
<path fill="none" stroke="#cccccc" d="M326.49,-333.37C331.76,-330.41 336.99,-327.43 342,-324.5 365.77,-310.61 391.91,-294.18 412.51,-280.96"/>
<polygon fill="#cccccc" stroke="#cccccc" points="414.47,-283.86 420.98,-275.5 410.68,-277.97 414.47,-283.86"/>
</g>
<!-- figure out signposts\nand maps -->
<g id="G_node4" class="node">
<title>figure out signposts\nand maps</title>
<g id="a_G_node4"><a xlink:href="index.html#figure_out_signposts_and_maps" xlink:title="figure out signposts and maps" target="_parent">
<polygon fill="none" stroke="black" points="145,-521.5 0,-521.5 0,-483.5 145,-483.5 145,-521.5"/>
<text text-anchor="middle" x="72.5" y="-506.3" font-family="Open Sans" font-size="14.00">figure out signposts</text>
<text text-anchor="middle" x="72.5" y="-491.3" font-family="Open Sans" font-size="14.00">and maps</text>
</a>
</g>
</g>
<!-- help the Emacs\ncommunity grow -->
<g id="G_node5" class="node">
<title>help the Emacs\ncommunity grow</title>
<g id="a_G_node5"><a xlink:href="index.html#help_the_Emacs_community_grow" xlink:title="help the Emacs community grow" target="_parent">
<polygon fill="lightgrey" stroke="black" points="324.5,-315.5 198.5,-315.5 198.5,-277.5 324.5,-277.5 324.5,-315.5"/>
<text text-anchor="middle" x="261.5" y="-300.3" font-family="Open Sans" font-size="14.00">help the Emacs</text>
<text text-anchor="middle" x="261.5" y="-285.3" font-family="Open Sans" font-size="14.00">community grow</text>
</a>
</g>
</g>
<!-- figure out signposts\nand maps&#45;&gt;help the Emacs\ncommunity grow -->
<g id="G_edge3" class="edge">
<title>figure out signposts\nand maps&#45;&gt;help the Emacs\ncommunity grow</title>
<path fill="none" stroke="#cccccc" d="M135.16,-483.33C138.78,-480.74 142.11,-477.82 145,-474.5 190.03,-422.8 135.08,-375.41 181,-324.5 183.68,-321.53 186.69,-318.87 189.94,-316.5"/>
<polygon fill="#cccccc" stroke="#cccccc" points="191.83,-319.44 198.43,-311.16 188.1,-313.52 191.83,-319.44"/>
</g>
<!-- help the Emacs\ncommunity grow&#45;&gt;tickle my brain and\nlive an awesome life -->
<g id="G_edge9" class="edge">
<title>help the Emacs\ncommunity grow&#45;&gt;tickle my brain and\nlive an awesome life</title>
<path fill="none" stroke="#cccccc" d="M324.67,-283.24C338.53,-280.28 353.43,-277.1 367.95,-274"/>
<polygon fill="#cccccc" stroke="#cccccc" points="368.88,-277.39 377.93,-271.88 367.42,-270.54 368.88,-277.39"/>
</g>
<!-- make quick\nscreencasts and\nanimated GIFs -->
<g id="G_node6" class="node">
<title>make quick\nscreencasts and\nanimated GIFs</title>
<g id="a_G_node6"><a xlink:href="index.html#make_quick_screencasts_and_animated_GIFs" xlink:title="make quick screencasts and animated GIFs" target="_parent">
<polygon fill="none" stroke="black" points="132.5,-465 12.5,-465 12.5,-412 132.5,-412 132.5,-465"/>
<text text-anchor="middle" x="72.5" y="-449.8" font-family="Open Sans" font-size="14.00">make quick</text>
<text text-anchor="middle" x="72.5" y="-434.8" font-family="Open Sans" font-size="14.00">screencasts and</text>
<text text-anchor="middle" x="72.5" y="-419.8" font-family="Open Sans" font-size="14.00">animated GIFs</text>
</a>
</g>
</g>
<!-- make quick\nscreencasts and\nanimated GIFs&#45;&gt;help the Emacs\ncommunity grow -->
<g id="G_edge4" class="edge">
<title>make quick\nscreencasts and\nanimated GIFs&#45;&gt;help the Emacs\ncommunity grow</title>
<path fill="none" stroke="#cccccc" d="M132.78,-413.77C137.19,-410.68 141.34,-407.26 145,-403.5 171.9,-375.84 152.53,-350.54 181,-324.5 183.62,-322.11 186.45,-319.92 189.44,-317.91"/>
<polygon fill="#cccccc" stroke="#cccccc" points="191.37,-320.83 198.2,-312.73 187.81,-314.8 191.37,-320.83"/>
</g>
<!-- smoothen the\nworkflow for Emacs\nCalendar -->
<g id="G_node7" class="node">
<title>smoothen the\nworkflow for Emacs\nCalendar</title>
<g id="a_G_node7"><a xlink:href="index.html#smoothen_the_workflow_for_Emacs_Calendar" xlink:title="smoothen the workflow for Emacs Calendar" target="_parent">
<polygon fill="none" stroke="black" points="145,-394 0,-394 0,-341 145,-341 145,-394"/>
<text text-anchor="middle" x="72.5" y="-378.8" font-family="Open Sans" font-size="14.00">smoothen the</text>
<text text-anchor="middle" x="72.5" y="-363.8" font-family="Open Sans" font-size="14.00">workflow for Emacs</text>
<text text-anchor="middle" x="72.5" y="-348.8" font-family="Open Sans" font-size="14.00">Calendar</text>
</a>
</g>
</g>
<!-- smoothen the\nworkflow for Emacs\nCalendar&#45;&gt;help the Emacs\ncommunity grow -->
<g id="G_edge5" class="edge">
<title>smoothen the\nworkflow for Emacs\nCalendar&#45;&gt;help the Emacs\ncommunity grow</title>
<path fill="none" stroke="#cccccc" d="M138.71,-340.91C152.62,-335.38 167.26,-329.66 181,-324.5 185.76,-322.71 190.69,-320.89 195.66,-319.09"/>
<polygon fill="#cccccc" stroke="#cccccc" points="197,-322.32 205.22,-315.63 194.63,-315.74 197,-322.32"/>
</g>
<!-- edit the rest of the\nsubtitles for\nEmacsConf -->
<g id="G_node8" class="node">
<title>edit the rest of the\nsubtitles for\nEmacsConf</title>
<g id="a_G_node8"><a xlink:href="index.html#edit_the_rest_of_the_subtitles_for_EmacsConf" xlink:title="edit the rest of the subtitles for EmacsConf" target="_parent">
<polygon fill="none" stroke="black" points="141,-323 4,-323 4,-270 141,-270 141,-323"/>
<text text-anchor="middle" x="72.5" y="-307.8" font-family="Open Sans" font-size="14.00">edit the rest of the</text>
<text text-anchor="middle" x="72.5" y="-292.8" font-family="Open Sans" font-size="14.00">subtitles for</text>
<text text-anchor="middle" x="72.5" y="-277.8" font-family="Open Sans" font-size="14.00">EmacsConf</text>
</a>
</g>
</g>
<!-- edit the rest of the\nsubtitles for\nEmacsConf&#45;&gt;help the Emacs\ncommunity grow -->
<g id="G_edge6" class="edge">
<title>edit the rest of the\nsubtitles for\nEmacsConf&#45;&gt;help the Emacs\ncommunity grow</title>
<path fill="none" stroke="#cccccc" d="M141.01,-296.5C156.37,-296.5 172.75,-296.5 188.3,-296.5"/>
<polygon fill="#cccccc" stroke="#cccccc" points="188.38,-300 198.38,-296.5 188.38,-293 188.38,-300"/>
</g>
<!-- make it easier to\nget stuff out of\nEmacs meetups -->
<g id="G_node9" class="node">
<title>make it easier to\nget stuff out of\nEmacs meetups</title>
<g id="a_G_node9"><a xlink:href="index.html#make_it_easier_to_get_stuff_out_of_Emacs_meetups" xlink:title="make it easier to get stuff out of Emacs meetups" target="_parent">
<polygon fill="none" stroke="black" points="135,-252 10,-252 10,-199 135,-199 135,-252"/>
<text text-anchor="middle" x="72.5" y="-236.8" font-family="Open Sans" font-size="14.00">make it easier to</text>
<text text-anchor="middle" x="72.5" y="-221.8" font-family="Open Sans" font-size="14.00">get stuff out of</text>
<text text-anchor="middle" x="72.5" y="-206.8" font-family="Open Sans" font-size="14.00">Emacs meetups</text>
</a>
</g>
</g>
<!-- make it easier to\nget stuff out of\nEmacs meetups&#45;&gt;help the Emacs\ncommunity grow -->
<g id="G_edge7" class="edge">
<title>make it easier to\nget stuff out of\nEmacs meetups&#45;&gt;help the Emacs\ncommunity grow</title>
<path fill="none" stroke="#cccccc" d="M135.01,-250.62C150.01,-256.6 166.04,-262.88 181,-268.5 185.76,-270.29 190.69,-272.11 195.66,-273.91"/>
<polygon fill="#cccccc" stroke="#cccccc" points="194.63,-277.26 205.22,-277.37 197,-270.68 194.63,-277.26"/>
</g>
<!-- get the hang of\nstreaming -->
<g id="G_node10" class="node">
<title>get the hang of\nstreaming</title>
<g id="a_G_node10"><a xlink:href="index.html#get_the_hang_of_streaming" xlink:title="get the hang of streaming" target="_parent">
<polygon fill="none" stroke="black" points="129,-180.5 16,-180.5 16,-142.5 129,-142.5 129,-180.5"/>
<text text-anchor="middle" x="72.5" y="-165.3" font-family="Open Sans" font-size="14.00">get the hang of</text>
<text text-anchor="middle" x="72.5" y="-150.3" font-family="Open Sans" font-size="14.00">streaming</text>
</a>
</g>
</g>
<!-- get the hang of\nstreaming&#45;&gt;help the Emacs\ncommunity grow -->
<g id="G_edge8" class="edge">
<title>get the hang of\nstreaming&#45;&gt;help the Emacs\ncommunity grow</title>
<path fill="none" stroke="#cccccc" d="M129.19,-179.03C134.93,-182.27 140.35,-186.06 145,-190.5 172.63,-216.85 152.77,-242.8 181,-268.5 183.62,-270.89 186.46,-273.07 189.45,-275.08"/>
<polygon fill="#cccccc" stroke="#cccccc" points="187.83,-278.18 198.22,-280.24 191.38,-272.15 187.83,-278.18"/>
</g>
<!-- move my services\ninto Docker or\nsimilar containers -->
<g id="G_node11" class="node">
<title>move my services\ninto Docker or\nsimilar containers</title>
<g id="a_G_node11"><a xlink:href="index.html#move_my_services_into_Docker_or_similar_containers" xlink:title="move my services into Docker or similar containers" target="_parent">
<polygon fill="none" stroke="black" points="139,-124 6,-124 6,-71 139,-71 139,-124"/>
<text text-anchor="middle" x="72.5" y="-108.8" font-family="Open Sans" font-size="14.00">move my services</text>
<text text-anchor="middle" x="72.5" y="-93.8" font-family="Open Sans" font-size="14.00">into Docker or</text>
<text text-anchor="middle" x="72.5" y="-78.8" font-family="Open Sans" font-size="14.00">similar containers</text>
</a>
</g>
</g>
<!-- move my services\ninto Docker or\nsimilar containers&#45;&gt;make my server more\nreproducible -->
<g id="G_edge10" class="edge">
<title>move my services\ninto Docker or\nsimilar containers&#45;&gt;make my server more\nreproducible</title>
<path fill="none" stroke="#cccccc" d="M139.17,-97.5C149.88,-97.5 161.14,-97.5 172.29,-97.5"/>
<polygon fill="#cccccc" stroke="#cccccc" points="172.48,-101 182.48,-97.5 172.48,-94 172.48,-101"/>
</g>
<!-- move my blog to a\nstatic site\ngenerator -->
<g id="G_node12" class="node">
<title>move my blog to a\nstatic site\ngenerator</title>
<g id="a_G_node12"><a xlink:href="index.html#move_my_blog_to_a_static_site_generator" xlink:title="move my blog to a static site generator" target="_parent">
<polygon fill="none" stroke="black" points="140,-53 5,-53 5,0 140,0 140,-53"/>
<text text-anchor="middle" x="72.5" y="-37.8" font-family="Open Sans" font-size="14.00">move my blog to a</text>
<text text-anchor="middle" x="72.5" y="-22.8" font-family="Open Sans" font-size="14.00">static site</text>
<text text-anchor="middle" x="72.5" y="-7.8" font-family="Open Sans" font-size="14.00">generator</text>
</a>
</g>
</g>
<!-- move my blog to a\nstatic site\ngenerator&#45;&gt;make my server more\nreproducible -->
<g id="G_edge11" class="edge">
<title>move my blog to a\nstatic site\ngenerator&#45;&gt;make my server more\nreproducible</title>
<path fill="none" stroke="#cccccc" d="M140.22,-51.83C159.96,-59.33 181.44,-67.48 200.71,-74.8"/>
<polygon fill="#cccccc" stroke="#cccccc" points="199.68,-78.15 210.27,-78.43 202.17,-71.61 199.68,-78.15"/>
</g>
<!-- fill in at least one\nobservation for each\nspecific expectation\nin the Ontario\nKindergarten Program -->
<g id="G_node13" class="node">
<title>fill in at least one\nobservation for each\nspecific expectation\nin the Ontario\nKindergarten Program</title>
<g id="a_G_node13"><a xlink:href="index.html#fill_in_at_least_one_observation_for_each_specific_expectation_in_the_Ontario_Kindergarten_Program" xlink:title="fill in at least one observation for each specific expectation in the Ontario Kindergarten Program" target="_parent">
<polygon fill="none" stroke="black" points="342,-259 181,-259 181,-176 342,-176 342,-259"/>
<text text-anchor="middle" x="261.5" y="-243.8" font-family="Open Sans" font-size="14.00">fill in at least one</text>
<text text-anchor="middle" x="261.5" y="-228.8" font-family="Open Sans" font-size="14.00">observation for each</text>
<text text-anchor="middle" x="261.5" y="-213.8" font-family="Open Sans" font-size="14.00">specific expectation</text>
<text text-anchor="middle" x="261.5" y="-198.8" font-family="Open Sans" font-size="14.00">in the Ontario</text>
<text text-anchor="middle" x="261.5" y="-183.8" font-family="Open Sans" font-size="14.00">Kindergarten Program</text>
</a>
</g>
</g>
<!-- fill in at least one\nobservation for each\nspecific expectation\nin the Ontario\nKindergarten Program&#45;&gt;tickle my brain and\nlive an awesome life -->
<g id="G_edge12" class="edge">
<title>fill in at least one\nobservation for each\nspecific expectation\nin the Ontario\nKindergarten Program&#45;&gt;tickle my brain and\nlive an awesome life</title>
<path fill="none" stroke="#cccccc" d="M342.02,-234.04C350.55,-235.82 359.25,-237.62 367.82,-239.41"/>
<polygon fill="#cccccc" stroke="#cccccc" points="367.3,-242.87 377.8,-241.48 368.72,-236.02 367.3,-242.87"/>
</g>
</g>
</svg>
