<?xml version="1.0" encoding="UTF-8" standalone="no"?>
<!DOCTYPE svg PUBLIC "-//W3C//DTD SVG 1.1//EN"
 "http://www.w3.org/Graphics/SVG/1.1/DTD/svg11.dtd">
<!-- Generated by graphviz version 2.43.0 (0)
 -->
<!-- Title: G Pages: 1 -->
<svg width="532pt" height="351pt"
 viewBox="0.00 0.00 532.00 350.50" xmlns="http://www.w3.org/2000/svg" xmlns:xlink="http://www.w3.org/1999/xlink">
<g id="G" class="graph" transform="scale(1 1) rotate(0) translate(4 346.5)">
<title>G</title>
<polygon fill="white" stroke="transparent" points="-4,4 -4,-346.5 528,-346.5 528,4 -4,4"/>
<!-- make my server more\nreproducible -->
<g id="G_node1" class="node">
<title>make my server more\nreproducible</title>
<g id="a_G_node1"><a xlink:href="index.html#make_my_server_more_reproducible" xlink:title="make my server more reproducible" target="_parent">
<polygon fill="none" stroke="black" points="340.5,-45.5 182.5,-45.5 182.5,-7.5 340.5,-7.5 340.5,-45.5"/>
<text text-anchor="middle" x="261.5" y="-30.3" font-family="Open Sans" font-size="14.00">make my server more</text>
<text text-anchor="middle" x="261.5" y="-15.3" font-family="Open Sans" font-size="14.00">reproducible</text>
</a>
</g>
</g>
<!-- tickle my brain and\nlive an awesome life -->
<g id="G_node2" class="node">
<title>tickle my brain and\nlive an awesome life</title>
<g id="a_G_node2"><a xlink:href="index.html#tickle_my_brain_and_live_an_awesome_life" xlink:title="tickle my brain and live an awesome life" target="_parent">
<polygon fill="lightgrey" stroke="black" points="524,-163.5 378,-163.5 378,-125.5 524,-125.5 524,-163.5"/>
<text text-anchor="middle" x="451" y="-148.3" font-family="Open Sans" font-size="14.00">tickle my brain and</text>
<text text-anchor="middle" x="451" y="-133.3" font-family="Open Sans" font-size="14.00">live an awesome life</text>
</a>
</g>
</g>
<!-- make my server more\nreproducible&#45;&gt;tickle my brain and\nlive an awesome life -->
<g id="G_edge1" class="edge">
<title>make my server more\nreproducible&#45;&gt;tickle my brain and\nlive an awesome life</title>
<path fill="none" stroke="#cccccc" d="M323.83,-45.58C330.11,-48.27 336.27,-51.25 342,-54.5 372.67,-71.93 403.14,-98.36 423.85,-118.08"/>
<polygon fill="#cccccc" stroke="#cccccc" points="421.67,-120.84 431.29,-125.28 426.54,-115.81 421.67,-120.84"/>
</g>
<!-- make an EPUB3\nread&#45;aloud book\nthat&#39;s also viewable\nthrough the web -->
<g id="G_node3" class="node">
<title>make an EPUB3\nread&#45;aloud book\nthat&#39;s also viewable\nthrough the web</title>
<g id="a_G_node3"><a xlink:href="index.html#make_an_EPUB3_read_aloud_book_that_s_also_viewable_through_the_web" xlink:title="make an EPUB3 read&#45;aloud book that&#39;s also viewable through the web" target="_parent">
<polygon fill="none" stroke="black" points="333,-289.5 190,-289.5 190,-221.5 333,-221.5 333,-289.5"/>
<text text-anchor="middle" x="261.5" y="-274.3" font-family="Open Sans" font-size="14.00">make an EPUB3</text>
<text text-anchor="middle" x="261.5" y="-259.3" font-family="Open Sans" font-size="14.00">read&#45;aloud book</text>
<text text-anchor="middle" x="261.5" y="-244.3" font-family="Open Sans" font-size="14.00">that&#39;s also viewable</text>
<text text-anchor="middle" x="261.5" y="-229.3" font-family="Open Sans" font-size="14.00">through the web</text>
</a>
</g>
</g>
<!-- make an EPUB3\nread&#45;aloud book\nthat&#39;s also viewable\nthrough the web&#45;&gt;tickle my brain and\nlive an awesome life -->
<g id="G_edge2" class="edge">
<title>make an EPUB3\nread&#45;aloud book\nthat&#39;s also viewable\nthrough the web&#45;&gt;tickle my brain and\nlive an awesome life</title>
<path fill="none" stroke="#cccccc" d="M326.49,-221.37C331.76,-218.41 336.99,-215.43 342,-212.5 365.77,-198.61 391.91,-182.18 412.51,-168.96"/>
<polygon fill="#cccccc" stroke="#cccccc" points="414.47,-171.86 420.98,-163.5 410.68,-165.97 414.47,-171.86"/>
</g>
<!-- figure out signposts\nand maps -->
<g id="G_node4" class="node">
<title>figure out signposts\nand maps</title>
<g id="a_G_node4"><a xlink:href="index.html#figure_out_signposts_and_maps" xlink:title="figure out signposts and maps" target="_parent">
<polygon fill="none" stroke="black" points="145,-342.5 0,-342.5 0,-304.5 145,-304.5 145,-342.5"/>
<text text-anchor="middle" x="72.5" y="-327.3" font-family="Open Sans" font-size="14.00">figure out signposts</text>
<text text-anchor="middle" x="72.5" y="-312.3" font-family="Open Sans" font-size="14.00">and maps</text>
</a>
</g>
</g>
<!-- help the Emacs\ncommunity grow -->
<g id="G_node5" class="node">
<title>help the Emacs\ncommunity grow</title>
<g id="a_G_node5"><a xlink:href="index.html#help_the_Emacs_community_grow" xlink:title="help the Emacs community grow" target="_parent">
<polygon fill="lightgrey" stroke="black" points="324.5,-203.5 198.5,-203.5 198.5,-165.5 324.5,-165.5 324.5,-203.5"/>
<text text-anchor="middle" x="261.5" y="-188.3" font-family="Open Sans" font-size="14.00">help the Emacs</text>
<text text-anchor="middle" x="261.5" y="-173.3" font-family="Open Sans" font-size="14.00">community grow</text>
</a>
</g>
</g>
<!-- figure out signposts\nand maps&#45;&gt;help the Emacs\ncommunity grow -->
<g id="G_edge3" class="edge">
<title>figure out signposts\nand maps&#45;&gt;help the Emacs\ncommunity grow</title>
<path fill="none" stroke="#cccccc" d="M133.5,-304.39C137.65,-301.78 141.55,-298.83 145,-295.5 173.94,-267.58 151.58,-239.91 181,-212.5 183.59,-210.08 186.41,-207.87 189.38,-205.85"/>
<polygon fill="#cccccc" stroke="#cccccc" points="191.32,-208.77 198.12,-200.64 187.74,-202.76 191.32,-208.77"/>
</g>
<!-- help the Emacs\ncommunity grow&#45;&gt;tickle my brain and\nlive an awesome life -->
<g id="G_edge7" class="edge">
<title>help the Emacs\ncommunity grow&#45;&gt;tickle my brain and\nlive an awesome life</title>
<path fill="none" stroke="#cccccc" d="M324.67,-171.24C338.53,-168.28 353.43,-165.1 367.95,-162"/>
<polygon fill="#cccccc" stroke="#cccccc" points="368.88,-165.39 377.93,-159.88 367.42,-158.54 368.88,-165.39"/>
</g>
<!-- make quick\nscreencasts and\nanimated GIFs -->
<g id="G_node6" class="node">
<title>make quick\nscreencasts and\nanimated GIFs</title>
<g id="a_G_node6"><a xlink:href="index.html#make_quick_screencasts_and_animated_GIFs" xlink:title="make quick screencasts and animated GIFs" target="_parent">
<polygon fill="none" stroke="black" points="132.5,-286 12.5,-286 12.5,-233 132.5,-233 132.5,-286"/>
<text text-anchor="middle" x="72.5" y="-270.8" font-family="Open Sans" font-size="14.00">make quick</text>
<text text-anchor="middle" x="72.5" y="-255.8" font-family="Open Sans" font-size="14.00">screencasts and</text>
<text text-anchor="middle" x="72.5" y="-240.8" font-family="Open Sans" font-size="14.00">animated GIFs</text>
</a>
</g>
</g>
<!-- make quick\nscreencasts and\nanimated GIFs&#45;&gt;help the Emacs\ncommunity grow -->
<g id="G_edge4" class="edge">
<title>make quick\nscreencasts and\nanimated GIFs&#45;&gt;help the Emacs\ncommunity grow</title>
<path fill="none" stroke="#cccccc" d="M132.04,-232.98C147.83,-226.08 164.99,-218.81 181,-212.5 185.53,-210.72 190.22,-208.92 194.96,-207.15"/>
<polygon fill="#cccccc" stroke="#cccccc" points="196.53,-210.3 204.71,-203.57 194.11,-203.73 196.53,-210.3"/>
</g>
<!-- figure out a\nworkflow for\npointing to Emacs\nmeetups -->
<g id="G_node7" class="node">
<title>figure out a\nworkflow for\npointing to Emacs\nmeetups</title>
<g id="a_G_node7"><a xlink:href="index.html#figure_out_a_workflow_for_pointing_to_Emacs_meetups" xlink:title="figure out a workflow for pointing to Emacs meetups" target="_parent">
<polygon fill="none" stroke="black" points="138.5,-214.5 6.5,-214.5 6.5,-146.5 138.5,-146.5 138.5,-214.5"/>
<text text-anchor="middle" x="72.5" y="-199.3" font-family="Open Sans" font-size="14.00">figure out a</text>
<text text-anchor="middle" x="72.5" y="-184.3" font-family="Open Sans" font-size="14.00">workflow for</text>
<text text-anchor="middle" x="72.5" y="-169.3" font-family="Open Sans" font-size="14.00">pointing to Emacs</text>
<text text-anchor="middle" x="72.5" y="-154.3" font-family="Open Sans" font-size="14.00">meetups</text>
</a>
</g>
</g>
<!-- figure out a\nworkflow for\npointing to Emacs\nmeetups&#45;&gt;help the Emacs\ncommunity grow -->
<g id="G_edge5" class="edge">
<title>figure out a\nworkflow for\npointing to Emacs\nmeetups&#45;&gt;help the Emacs\ncommunity grow</title>
<path fill="none" stroke="#cccccc" d="M138.64,-181.89C154.7,-182.24 172,-182.61 188.37,-182.96"/>
<polygon fill="#cccccc" stroke="#cccccc" points="188.35,-186.46 198.42,-183.17 188.5,-179.46 188.35,-186.46"/>
</g>
<!-- edit the rest of the\nsubtitles for\nEmacsConf -->
<g id="G_node8" class="node">
<title>edit the rest of the\nsubtitles for\nEmacsConf</title>
<g id="a_G_node8"><a xlink:href="index.html#edit_the_rest_of_the_subtitles_for_EmacsConf" xlink:title="edit the rest of the subtitles for EmacsConf" target="_parent">
<polygon fill="none" stroke="black" points="141,-128 4,-128 4,-75 141,-75 141,-128"/>
<text text-anchor="middle" x="72.5" y="-112.8" font-family="Open Sans" font-size="14.00">edit the rest of the</text>
<text text-anchor="middle" x="72.5" y="-97.8" font-family="Open Sans" font-size="14.00">subtitles for</text>
<text text-anchor="middle" x="72.5" y="-82.8" font-family="Open Sans" font-size="14.00">EmacsConf</text>
</a>
</g>
</g>
<!-- edit the rest of the\nsubtitles for\nEmacsConf&#45;&gt;help the Emacs\ncommunity grow -->
<g id="G_edge6" class="edge">
<title>edit the rest of the\nsubtitles for\nEmacsConf&#45;&gt;help the Emacs\ncommunity grow</title>
<path fill="none" stroke="#cccccc" d="M126.66,-128.12C132.85,-131.27 139.07,-134.44 145,-137.5 161.08,-145.79 164.42,-149.25 181,-156.5 185.11,-158.3 189.37,-160.06 193.7,-161.78"/>
<polygon fill="#cccccc" stroke="#cccccc" points="192.63,-165.12 203.22,-165.46 195.15,-158.59 192.63,-165.12"/>
</g>
<!-- move my services\ninto Docker or\nsimilar containers -->
<g id="G_node9" class="node">
<title>move my services\ninto Docker or\nsimilar containers</title>
<g id="a_G_node9"><a xlink:href="index.html#move_my_services_into_Docker_or_similar_containers" xlink:title="move my services into Docker or similar containers" target="_parent">
<polygon fill="none" stroke="black" points="139,-53 6,-53 6,0 139,0 139,-53"/>
<text text-anchor="middle" x="72.5" y="-37.8" font-family="Open Sans" font-size="14.00">move my services</text>
<text text-anchor="middle" x="72.5" y="-22.8" font-family="Open Sans" font-size="14.00">into Docker or</text>
<text text-anchor="middle" x="72.5" y="-7.8" font-family="Open Sans" font-size="14.00">similar containers</text>
</a>
</g>
</g>
<!-- move my services\ninto Docker or\nsimilar containers&#45;&gt;make my server more\nreproducible -->
<g id="G_edge8" class="edge">
<title>move my services\ninto Docker or\nsimilar containers&#45;&gt;make my server more\nreproducible</title>
<path fill="none" stroke="#cccccc" d="M139.17,-26.5C149.88,-26.5 161.14,-26.5 172.29,-26.5"/>
<polygon fill="#cccccc" stroke="#cccccc" points="172.48,-30 182.48,-26.5 172.48,-23 172.48,-30"/>
</g>
<!-- fill in at least one\nobservation for each\nspecific expectation\nin the Ontario\nKindergarten Program -->
<g id="G_node10" class="node">
<title>fill in at least one\nobservation for each\nspecific expectation\nin the Ontario\nKindergarten Program</title>
<g id="a_G_node10"><a xlink:href="index.html#fill_in_at_least_one_observation_for_each_specific_expectation_in_the_Ontario_Kindergarten_Program" xlink:title="fill in at least one observation for each specific expectation in the Ontario Kindergarten Program" target="_parent">
<polygon fill="none" stroke="black" points="342,-147 181,-147 181,-64 342,-64 342,-147"/>
<text text-anchor="middle" x="261.5" y="-131.8" font-family="Open Sans" font-size="14.00">fill in at least one</text>
<text text-anchor="middle" x="261.5" y="-116.8" font-family="Open Sans" font-size="14.00">observation for each</text>
<text text-anchor="middle" x="261.5" y="-101.8" font-family="Open Sans" font-size="14.00">specific expectation</text>
<text text-anchor="middle" x="261.5" y="-86.8" font-family="Open Sans" font-size="14.00">in the Ontario</text>
<text text-anchor="middle" x="261.5" y="-71.8" font-family="Open Sans" font-size="14.00">Kindergarten Program</text>
</a>
</g>
</g>
<!-- fill in at least one\nobservation for each\nspecific expectation\nin the Ontario\nKindergarten Program&#45;&gt;tickle my brain and\nlive an awesome life -->
<g id="G_edge9" class="edge">
<title>fill in at least one\nobservation for each\nspecific expectation\nin the Ontario\nKindergarten Program&#45;&gt;tickle my brain and\nlive an awesome life</title>
<path fill="none" stroke="#cccccc" d="M342.02,-122.04C350.55,-123.82 359.25,-125.62 367.82,-127.41"/>
<polygon fill="#cccccc" stroke="#cccccc" points="367.3,-130.87 377.8,-129.48 368.72,-124.02 367.3,-130.87"/>
</g>
</g>
</svg>
