<?xml version="1.0" encoding="UTF-8" standalone="no"?>
<!DOCTYPE svg PUBLIC "-//W3C//DTD SVG 1.1//EN"
 "http://www.w3.org/Graphics/SVG/1.1/DTD/svg11.dtd">
<!-- Generated by graphviz version 2.43.0 (0)
 -->
<!-- Title: G Pages: 1 -->
<svg width="532pt" height="361pt"
 viewBox="0.00 0.00 532.00 360.50" xmlns="http://www.w3.org/2000/svg" xmlns:xlink="http://www.w3.org/1999/xlink">
<g id="G" class="graph" transform="scale(1 1) rotate(0) translate(4 356.5)">
<title>G</title>
<polygon fill="white" stroke="transparent" points="-4,4 -4,-356.5 528,-356.5 528,4 -4,4"/>
<!-- make my server more\nreproducible -->
<g id="G_node1" class="node">
<title>make my server more\nreproducible</title>
<g id="a_G_node1"><a xlink:href="index.html#make_my_server_more_reproducible" xlink:title="make my server more reproducible" target="_parent">
<polygon fill="none" stroke="black" points="340.5,-108.5 182.5,-108.5 182.5,-70.5 340.5,-70.5 340.5,-108.5"/>
<text text-anchor="middle" x="261.5" y="-93.3" font-family="Open Sans" font-size="14.00">make my server more</text>
<text text-anchor="middle" x="261.5" y="-78.3" font-family="Open Sans" font-size="14.00">reproducible</text>
</a>
</g>
</g>
<!-- tickle my brain and\nlive an awesome life -->
<g id="G_node2" class="node">
<title>tickle my brain and\nlive an awesome life</title>
<g id="a_G_node2"><a xlink:href="index.html#tickle_my_brain_and_live_an_awesome_life" xlink:title="tickle my brain and live an awesome life" target="_parent">
<polygon fill="lightgrey" stroke="black" points="524,-226.5 378,-226.5 378,-188.5 524,-188.5 524,-226.5"/>
<text text-anchor="middle" x="451" y="-211.3" font-family="Open Sans" font-size="14.00">tickle my brain and</text>
<text text-anchor="middle" x="451" y="-196.3" font-family="Open Sans" font-size="14.00">live an awesome life</text>
</a>
</g>
</g>
<!-- make my server more\nreproducible&#45;&gt;tickle my brain and\nlive an awesome life -->
<g id="G_edge1" class="edge">
<title>make my server more\nreproducible&#45;&gt;tickle my brain and\nlive an awesome life</title>
<path fill="none" stroke="#cccccc" d="M323.83,-108.58C330.11,-111.27 336.27,-114.25 342,-117.5 372.67,-134.93 403.14,-161.36 423.85,-181.08"/>
<polygon fill="#cccccc" stroke="#cccccc" points="421.67,-183.84 431.29,-188.28 426.54,-178.81 421.67,-183.84"/>
</g>
<!-- make an EPUB3\nread&#45;aloud book\nthat&#39;s also viewable\nthrough the web -->
<g id="G_node3" class="node">
<title>make an EPUB3\nread&#45;aloud book\nthat&#39;s also viewable\nthrough the web</title>
<g id="a_G_node3"><a xlink:href="index.html#make_an_EPUB3_read_aloud_book_that_s_also_viewable_through_the_web" xlink:title="make an EPUB3 read&#45;aloud book that&#39;s also viewable through the web" target="_parent">
<polygon fill="none" stroke="black" points="333,-352.5 190,-352.5 190,-284.5 333,-284.5 333,-352.5"/>
<text text-anchor="middle" x="261.5" y="-337.3" font-family="Open Sans" font-size="14.00">make an EPUB3</text>
<text text-anchor="middle" x="261.5" y="-322.3" font-family="Open Sans" font-size="14.00">read&#45;aloud book</text>
<text text-anchor="middle" x="261.5" y="-307.3" font-family="Open Sans" font-size="14.00">that&#39;s also viewable</text>
<text text-anchor="middle" x="261.5" y="-292.3" font-family="Open Sans" font-size="14.00">through the web</text>
</a>
</g>
</g>
<!-- make an EPUB3\nread&#45;aloud book\nthat&#39;s also viewable\nthrough the web&#45;&gt;tickle my brain and\nlive an awesome life -->
<g id="G_edge2" class="edge">
<title>make an EPUB3\nread&#45;aloud book\nthat&#39;s also viewable\nthrough the web&#45;&gt;tickle my brain and\nlive an awesome life</title>
<path fill="none" stroke="#cccccc" d="M326.49,-284.37C331.76,-281.41 336.99,-278.43 342,-275.5 365.77,-261.61 391.91,-245.18 412.51,-231.96"/>
<polygon fill="#cccccc" stroke="#cccccc" points="414.47,-234.86 420.98,-226.5 410.68,-228.97 414.47,-234.86"/>
</g>
<!-- figure out signposts\nand maps -->
<g id="G_node4" class="node">
<title>figure out signposts\nand maps</title>
<g id="a_G_node4"><a xlink:href="index.html#figure_out_signposts_and_maps" xlink:title="figure out signposts and maps" target="_parent">
<polygon fill="none" stroke="black" points="145,-330.5 0,-330.5 0,-292.5 145,-292.5 145,-330.5"/>
<text text-anchor="middle" x="72.5" y="-315.3" font-family="Open Sans" font-size="14.00">figure out signposts</text>
<text text-anchor="middle" x="72.5" y="-300.3" font-family="Open Sans" font-size="14.00">and maps</text>
</a>
</g>
</g>
<!-- help the Emacs\ncommunity grow -->
<g id="G_node5" class="node">
<title>help the Emacs\ncommunity grow</title>
<g id="a_G_node5"><a xlink:href="index.html#help_the_Emacs_community_grow" xlink:title="help the Emacs community grow" target="_parent">
<polygon fill="lightgrey" stroke="black" points="324.5,-266.5 198.5,-266.5 198.5,-228.5 324.5,-228.5 324.5,-266.5"/>
<text text-anchor="middle" x="261.5" y="-251.3" font-family="Open Sans" font-size="14.00">help the Emacs</text>
<text text-anchor="middle" x="261.5" y="-236.3" font-family="Open Sans" font-size="14.00">community grow</text>
</a>
</g>
</g>
<!-- figure out signposts\nand maps&#45;&gt;help the Emacs\ncommunity grow -->
<g id="G_edge3" class="edge">
<title>figure out signposts\nand maps&#45;&gt;help the Emacs\ncommunity grow</title>
<path fill="none" stroke="#cccccc" d="M129.1,-292.47C149.83,-285.38 173.54,-277.26 195.07,-269.89"/>
<polygon fill="#cccccc" stroke="#cccccc" points="196.46,-273.12 204.79,-266.57 194.2,-266.49 196.46,-273.12"/>
</g>
<!-- help the Emacs\ncommunity grow&#45;&gt;tickle my brain and\nlive an awesome life -->
<g id="G_edge6" class="edge">
<title>help the Emacs\ncommunity grow&#45;&gt;tickle my brain and\nlive an awesome life</title>
<path fill="none" stroke="#cccccc" d="M324.67,-234.24C338.53,-231.28 353.43,-228.1 367.95,-225"/>
<polygon fill="#cccccc" stroke="#cccccc" points="368.88,-228.39 377.93,-222.88 367.42,-221.54 368.88,-228.39"/>
</g>
<!-- make quick\nscreencasts and\nanimated GIFs -->
<g id="G_node6" class="node">
<title>make quick\nscreencasts and\nanimated GIFs</title>
<g id="a_G_node6"><a xlink:href="index.html#make_quick_screencasts_and_animated_GIFs" xlink:title="make quick screencasts and animated GIFs" target="_parent">
<polygon fill="none" stroke="black" points="132.5,-274 12.5,-274 12.5,-221 132.5,-221 132.5,-274"/>
<text text-anchor="middle" x="72.5" y="-258.8" font-family="Open Sans" font-size="14.00">make quick</text>
<text text-anchor="middle" x="72.5" y="-243.8" font-family="Open Sans" font-size="14.00">screencasts and</text>
<text text-anchor="middle" x="72.5" y="-228.8" font-family="Open Sans" font-size="14.00">animated GIFs</text>
</a>
</g>
</g>
<!-- make quick\nscreencasts and\nanimated GIFs&#45;&gt;help the Emacs\ncommunity grow -->
<g id="G_edge4" class="edge">
<title>make quick\nscreencasts and\nanimated GIFs&#45;&gt;help the Emacs\ncommunity grow</title>
<path fill="none" stroke="#cccccc" d="M132.67,-247.5C150.36,-247.5 169.96,-247.5 188.39,-247.5"/>
<polygon fill="#cccccc" stroke="#cccccc" points="188.49,-251 198.49,-247.5 188.49,-244 188.49,-251"/>
</g>
<!-- edit the rest of the\nsubtitles for\nEmacsConf -->
<g id="G_node7" class="node">
<title>edit the rest of the\nsubtitles for\nEmacsConf</title>
<g id="a_G_node7"><a xlink:href="index.html#edit_the_rest_of_the_subtitles_for_EmacsConf" xlink:title="edit the rest of the subtitles for EmacsConf" target="_parent">
<polygon fill="none" stroke="black" points="141,-203 4,-203 4,-150 141,-150 141,-203"/>
<text text-anchor="middle" x="72.5" y="-187.8" font-family="Open Sans" font-size="14.00">edit the rest of the</text>
<text text-anchor="middle" x="72.5" y="-172.8" font-family="Open Sans" font-size="14.00">subtitles for</text>
<text text-anchor="middle" x="72.5" y="-157.8" font-family="Open Sans" font-size="14.00">EmacsConf</text>
</a>
</g>
</g>
<!-- edit the rest of the\nsubtitles for\nEmacsConf&#45;&gt;help the Emacs\ncommunity grow -->
<g id="G_edge5" class="edge">
<title>edit the rest of the\nsubtitles for\nEmacsConf&#45;&gt;help the Emacs\ncommunity grow</title>
<path fill="none" stroke="#cccccc" d="M138.71,-203.09C152.62,-208.62 167.26,-214.34 181,-219.5 185.76,-221.29 190.69,-223.11 195.66,-224.91"/>
<polygon fill="#cccccc" stroke="#cccccc" points="194.63,-228.26 205.22,-228.37 197,-221.68 194.63,-228.26"/>
</g>
<!-- move my services\ninto Docker or\nsimilar containers -->
<g id="G_node8" class="node">
<title>move my services\ninto Docker or\nsimilar containers</title>
<g id="a_G_node8"><a xlink:href="index.html#move_my_services_into_Docker_or_similar_containers" xlink:title="move my services into Docker or similar containers" target="_parent">
<polygon fill="none" stroke="black" points="139,-124 6,-124 6,-71 139,-71 139,-124"/>
<text text-anchor="middle" x="72.5" y="-108.8" font-family="Open Sans" font-size="14.00">move my services</text>
<text text-anchor="middle" x="72.5" y="-93.8" font-family="Open Sans" font-size="14.00">into Docker or</text>
<text text-anchor="middle" x="72.5" y="-78.8" font-family="Open Sans" font-size="14.00">similar containers</text>
</a>
</g>
</g>
<!-- move my services\ninto Docker or\nsimilar containers&#45;&gt;make my server more\nreproducible -->
<g id="G_edge7" class="edge">
<title>move my services\ninto Docker or\nsimilar containers&#45;&gt;make my server more\nreproducible</title>
<path fill="none" stroke="#cccccc" d="M139.17,-94.69C149.88,-94.23 161.14,-93.75 172.29,-93.27"/>
<polygon fill="#cccccc" stroke="#cccccc" points="172.64,-96.76 182.48,-92.84 172.34,-89.77 172.64,-96.76"/>
</g>
<!-- move my blog to a\nstatic site\ngenerator -->
<g id="G_node9" class="node">
<title>move my blog to a\nstatic site\ngenerator</title>
<g id="a_G_node9"><a xlink:href="index.html#move_my_blog_to_a_static_site_generator" xlink:title="move my blog to a static site generator" target="_parent">
<polygon fill="none" stroke="black" points="140,-53 5,-53 5,0 140,0 140,-53"/>
<text text-anchor="middle" x="72.5" y="-37.8" font-family="Open Sans" font-size="14.00">move my blog to a</text>
<text text-anchor="middle" x="72.5" y="-22.8" font-family="Open Sans" font-size="14.00">static site</text>
<text text-anchor="middle" x="72.5" y="-7.8" font-family="Open Sans" font-size="14.00">generator</text>
</a>
</g>
</g>
<!-- move my blog to a\nstatic site\ngenerator&#45;&gt;make my server more\nreproducible -->
<g id="G_edge8" class="edge">
<title>move my blog to a\nstatic site\ngenerator&#45;&gt;make my server more\nreproducible</title>
<path fill="none" stroke="#cccccc" d="M140.22,-48.98C157.83,-54.91 176.83,-61.31 194.41,-67.23"/>
<polygon fill="#cccccc" stroke="#cccccc" points="193.41,-70.59 204.01,-70.47 195.65,-63.96 193.41,-70.59"/>
</g>
<!-- fill in at least one\nobservation for each\nspecific expectation\nin the Ontario\nKindergarten Program -->
<g id="G_node10" class="node">
<title>fill in at least one\nobservation for each\nspecific expectation\nin the Ontario\nKindergarten Program</title>
<g id="a_G_node10"><a xlink:href="index.html#fill_in_at_least_one_observation_for_each_specific_expectation_in_the_Ontario_Kindergarten_Program" xlink:title="fill in at least one observation for each specific expectation in the Ontario Kindergarten Program" target="_parent">
<polygon fill="none" stroke="black" points="342,-210 181,-210 181,-127 342,-127 342,-210"/>
<text text-anchor="middle" x="261.5" y="-194.8" font-family="Open Sans" font-size="14.00">fill in at least one</text>
<text text-anchor="middle" x="261.5" y="-179.8" font-family="Open Sans" font-size="14.00">observation for each</text>
<text text-anchor="middle" x="261.5" y="-164.8" font-family="Open Sans" font-size="14.00">specific expectation</text>
<text text-anchor="middle" x="261.5" y="-149.8" font-family="Open Sans" font-size="14.00">in the Ontario</text>
<text text-anchor="middle" x="261.5" y="-134.8" font-family="Open Sans" font-size="14.00">Kindergarten Program</text>
</a>
</g>
</g>
<!-- fill in at least one\nobservation for each\nspecific expectation\nin the Ontario\nKindergarten Program&#45;&gt;tickle my brain and\nlive an awesome life -->
<g id="G_edge9" class="edge">
<title>fill in at least one\nobservation for each\nspecific expectation\nin the Ontario\nKindergarten Program&#45;&gt;tickle my brain and\nlive an awesome life</title>
<path fill="none" stroke="#cccccc" d="M342.02,-185.04C350.55,-186.82 359.25,-188.62 367.82,-190.41"/>
<polygon fill="#cccccc" stroke="#cccccc" points="367.3,-193.87 377.8,-192.48 368.72,-187.02 367.3,-193.87"/>
</g>
</g>
</svg>
